{
.appVersion = "3324";
.formatVersion = 3;
axes = (
{
name = Weight;
tag = wght;
}
);
classes = (
{
automatic = 1;
code = "A Aacute Abreve Acircumflex Adieresis Agrave Amacron Aogonek Aring Atilde AE B C Cacute Ccaron Ccedilla Cdotaccent D Dcaron Dcroat Eth E Eacute Ecaron Ecircumflex Edieresis Edotaccent Egrave Emacron Eogonek F G Gbreve Gcommaaccent Gdotaccent H Hbar I IJ Iacute Icircumflex Idieresis Idotaccent Igrave Imacron Iogonek J Jacute K Kcommaaccent L Lcaron Lcommaaccent Lslash M N Nacute Ncaron Ncommaaccent Ntilde O Oacute Ocircumflex Odieresis Ograve Ohungarumlaut Oslash Otilde OE P Thorn Q R Racute Rcaron S Sacute Scaron Scedilla Scommaaccent Germandbls T Tcaron Tcedilla Tcommaaccent U Uacute Ucircumflex Udieresis Ugrave Uhungarumlaut Umacron Uogonek Uring V W Wacute Wcircumflex Wdieresis Wgrave X Y Yacute Ycircumflex Ydieresis Ygrave Z Zacute Zcaron Zdotaccent Delta Omega";
name = Uppercase;
}
);
customParameters = (
{
name = "Variable Font Origin";
value = "78636F1B-F233-4E70-8C3B-7E1F8D8169C5";
},
{
name = unicodeRanges;
value = (
0,
1,
2,
3,
5,
6,
29,
31,
33,
35,
45,
46
);
},
{
name = unicodeRanges;
value = (
0,
1,
2,
3,
5,
6,
29,
31,
33,
35,
45,
46
);
},
{
name = "Enforce Compatibility Check";
value = 1;
},
{
name = fsType;
value = (
);
},
{
name = "Axis Mappings";
value = {
wght = {
200 = 60;
300 = 75;
400 = 91;
500 = 115;
600 = 130;
700 = 146;
800 = 170;
};
};
}
);
date = "2024-04-25 14:25:41 +0000";
familyName = "Atkinson Hyperlegible Next";
featurePrefixes = (
{
automatic = 1;
code = "languagesystem DFLT dflt;

languagesystem latn dflt;
languagesystem latn ROM;
languagesystem latn MOL;
languagesystem latn NLD;
";
name = Languagesystems;
}
);
features = (
{
automatic = 1;
code = "feature locl;
feature sups;
feature frac;
feature ordn;
feature pnum;
feature tnum;
feature case;
";
tag = aalt;
},
{
automatic = 1;
code = "lookup ccmp_DFLT_1 {

glyphs = (
{
glyphname = A;
kernLeft = A;
kernRight = A;
lastChange = "2024-11-01 12:02:53 +0000";
layers = (
{
anchors = (
{
name = bottom;
pos = (292,0);
},
{
name = ogonek;
pos = (573,10);
},
{
name = top;
pos = (292,668);
}
);
layerId = "883DA8B6-3D8E-4908-9E9E-18B044E47F8D";
shapes = (
{
closed = 1;
nodes = (
(66,0,l),
(128,168,l),
(455,168,l),
(516,0,l),
(573,0,l),
(322,668,l),
(263,668,l),
(10,0,l)
);
},
{
closed = 1;
nodes = (
(292,613,l),
(437,216,l),
(146,216,l)
);
}
);
width = 583;
},
{
anchors = (
{
name = bottom;
pos = (351,0);
},
{
name = ogonek;
pos = (699,10);
},
{
name = top;
pos = (351,668);
}
);
layerId = "5C67A8D6-F0A6-408B-B629-E0E82D5C59F6";
shapes = (
{
closed = 1;
nodes = (
(190,0,l),
(227,114,l),
(474,114,l),
(512,0,l),
(698,0,l),
(444,668,l),
(257,668,l),
(4,0,l)
);
},
{
closed = 1;
nodes = (
(350,487,l),
(429,251,l),
(272,251,l)
);
}
);
width = 702;
},
{
anchors = (
{
name = bottom;
pos = (313,0);
},
{
name = ogonek;
pos = (616,10);
},
{
name = top;
pos = (313,668);
}
);
layerId = "78636F1B-F233-4E70-8C3B-7E1F8D8169C5";
shapes = (
{
closed = 1;
nodes = (
(110,0,l),
(162,146,l),
(464,146,l),
(516,0,l),
(616,0,l),
(366,668,l),
(261,668,l),
(10,0,l)
);
},
{
closed = 1;
nodes = (
(313,573,l),
(436,227,l),
(190,227,l)
);
}
);
width = 626;
},
{
anchors = (
{
name = bottom;
pos = (345,0);
},
{
name = ogonek;
pos = (685,10);
},
{
name = top;
pos = (345,668);
}
);
layerId = "77C32F3B-CDAD-439A-A41B-3F592148655B";
shapes = (
{
closed = 1;
nodes = (
(177,0,l),
(217,119,l),
(473,119,l),
(513,0,l),
(685,0,l),
(432,668,l),
(258,668,l),
(5,0,l)
);
},
{
closed = 1;
nodes = (
(344,501,l),
(430,247,l),
(259,247,l)
);
}
);
width = 690;
}
);
metricRight = "=|";
unicode = 65;
},
{
glyphname = Aogonek;
kernLeft = A;
kernRight = A;
lastChange = "2024-11-01 12:02:53 +0000";
layers = (
{
anchors = (
{
name = bottom;
pos = (292,0);
},
{
name = top;
pos = (292,668);
}
);
layerId = "883DA8B6-3D8E-4908-9E9E-18B044E47F8D";
shapes = (
{
closed = 1;
nodes = (
(541,-168,o),
(553,-167,o),
(573,-159,c),
(573,-120,l),
(561,-126,o),
(549,-127,o),
(541,-127,cs),
(510,-127,o),
(488,-114,o),
(488,-84,cs),
(488,-50,o),
(520,-17,o),
(573,0,c),
(322,668,l),
(263,668,l),
(10,0,l),
(66,0,l),
(128,168,l),
(455,168,l),
(514,5,l),
(514,5,l),
(473,-17,o),
(443,-48,o),
(443,-94,cs),
(443,-140,o),
(478,-168,o),
(525,-168,cs)
);
},
{
closed = 1;
nodes = (
(292,613,l),
(437,216,l),
(146,216,l)
);
}
);
width = 583;
},
{
anchors = (
{
name = bottom;
pos = (351,0);
},
{
name = top;
pos = (351,668);
}
);
layerId = "5C67A8D6-F0A6-408B-B629-E0E82D5C59F6";
shapes = (
{
closed = 1;
nodes = (
(643,-176,o),
(685,-171,o),
(699,-167,c),
(699,-86,l),
(692,-87,o),
(669,-95,o),
(648,-95,cs),
(627,-95,o),
(603,-88,o),
(603,-65,cs),
(603,-31,o),
(663,-2,o),
(699,0,c),
(444,668,l),
(257,668,l),
(4,0,l),
(190,0,l),
(227,114,l),
(474,114,l),
(512,0,l),
(531,0,l),
(495,-17,o),
(466,-45,o),
(466,-84,cs),
(466,-121,o),
(496,-176,o),
(617,-176,cs)
);
},
{
closed = 1;
nodes = (
(350,487,l),
(429,251,l),
(272,251,l)
);
}
);
width = 702;
},
{
anchors = (
{
name = bottom;
pos = (313,0);
},
{
name = top;
pos = (313,668);
}
);
layerId = "78636F1B-F233-4E70-8C3B-7E1F8D8169C5";
shapes = (
{
closed = 1;
nodes = (
(576,-173,o),
(597,-169,o),
(616,-161,c),
(616,-107,l),
(603,-113,o),
(590,-115,o),
(578,-115,cs),
(550,-115,o),
(529,-102,o),
(529,-74,cs),
(529,-40,o),
(560,-20,o),
(616,0,c),
(366,668,l),
(261,668,l),
(10,0,l),
(110,0,l),
(162,146,l),
(464,146,l),
(515,2,l),
(515,2,l),
(480,-19,o),
(459,-50,o),
(459,-91,cs),
(459,-144,o),
(504,-173,o),
(557,-173,cs)
);
},
{
closed = 1;
nodes = (
(313,573,l),
(436,227,l),
(190,227,l)
);
}
);
width = 626;
},
{
anchors = (
{
name = bottom;
pos = (345,0);
},
{
name = top;
pos = (345,668);
}
);
layerId = "77C32F3B-CDAD-439A-A41B-3F592148655B";
shapes = (
{
closed = 1;
nodes = (
(631,-174,o),
(670,-169,o),
(685,-164,c),
(685,-89,l),
(677,-91,o),
(656,-98,o),
(636,-98,cs),
(614,-98,o),
(590,-92,o),
(590,-68,cs),
(590,-34,o),
(646,-5,o),
(685,0,c),
(432,668,l),
(258,668,l),
(5,0,l),
(177,0,l),
(217,119,l),
(473,119,l),
(513,0,l),
(533,0,l),
(490,-18,o),
(464,-46,o),
(464,-85,cs),
(464,-123,o),
(498,-174,o),
(606,-174,cs)
);
},
{
closed = 1;
nodes = (
(344,501,l),
(430,247,l),
(259,247,l)
);
}
);
width = 690;
}
);
metricLeft = A;
metricWidth = A;
unicode = 260;
},
{
glyphname = Aring;
kernLeft = A;
kernRight = A;
lastChange = "2024-11-01 12:02:53 +0000";
layers = (
{
anchors = (
{
name = bottom;
pos = (292,0);
},
{
name = ogonek;
pos = (573,10);
},
{
name = top;
pos = (292,835);
}
);
layerId = "883DA8B6-3D8E-4908-9E9E-18B044E47F8D";
shapes = (
{
closed = 1;
nodes = (
(66,0,l),
(128,168,l),
(455,168,l),
(516,0,l),
(573,0,l),
(328,652,l),
(362,667,o),
(387,701,o),
(387,740,cs),
(387,792,o),
(344,835,o),
(292,835,cs),
(240,835,o),
(197,792,o),
(197,740,cs),
(197,700,o),
(222,666,o),
(257,652,c),
(10,0,l)
);
},
{
closed = 1;
nodes = (
(292,613,l),
(437,216,l),
(146,216,l)
);
},
{
closed = 1;
nodes = (
(262,685,o),
(237,710,o),
(237,740,cs),
(237,770,o),
(262,795,o),
(292,795,cs),
(322,795,o),
(347,770,o),
(347,740,cs),
(347,710,o),
(322,685,o),
(292,685,cs)
);
}
);
width = 583;
},
{
anchors = (
{
name = bottom;
pos = (351,0);
},
{
name = ogonek;
pos = (699,10);
},
{
name = top;
pos = (351,865);
}
);
layerId = "5C67A8D6-F0A6-408B-B629-E0E82D5C59F6";
shapes = (
{
closed = 1;
nodes = (
(190,0,l),
(227,114,l),
(474,114,l),
(512,0,l),
(698,0,l),
(455,638,l),
(476,662,o),
(488,693,o),
(488,728,cs),
(488,805,o),
(427,865,o),
(351,865,cs),
(275,865,o),
(214,805,o),
(214,728,cs),
(214,694,o),
(226,663,o),
(246,639,c),
(4,0,l)
);
},
{
closed = 1;
nodes = (
(350,487,l),
(429,251,l),
(272,251,l)
);
},
{
closed = 1;
nodes = (
(326,682,o),
(305,702,o),
(305,728,cs),
(305,754,o),
(326,774,o),
(351,774,cs),
(376,774,o),
(397,754,o),
(397,728,cs),
(397,702,o),
(376,682,o),
(351,682,cs)
);
}
);
width = 702;
},
{
anchors = (
{
name = bottom;
pos = (313,0);
},
{
name = ogonek;
pos = (616,10);
},
{
name = top;
pos = (313,838);
}
);
layerId = "78636F1B-F233-4E70-8C3B-7E1F8D8169C5";
shapes = (
{
closed = 1;
nodes = (
(110,0,l),
(162,146,l),
(464,146,l),
(516,0,l),
(616,0,l),
(376,640,l),
(404,660,o),
(422,693,o),
(422,729,cs),
(422,788,o),
(375,838,o),
(313,838,cs),
(251,838,o),
(204,788,o),
(204,729,cs),
(204,693,o),
(222,659,o),
(250,640,c),
(10,0,l)
);
},
{
closed = 1;
nodes = (
(313,573,l),
(436,227,l),
(190,227,l)
);
},
{
closed = 1;
nodes = (
(283,678,o),
(261,700,o),
(261,729,cs),
(261,758,o),
(283,780,o),
(313,780,cs),
(343,780,o),
(365,758,o),
(365,729,cs),
(365,700,o),
(343,678,o),
(313,678,cs)
);
}
);
width = 626;
},
{
anchors = (
{
name = bottom;
pos = (345,0);
},
{
name = ogonek;
pos = (685,10);
},
{
name = top;
pos = (345,861);
}
);
layerId = "77C32F3B-CDAD-439A-A41B-3F592148655B";
shapes = (
{
closed = 1;
nodes = (
(177,0,l),
(217,119,l),
(473,119,l),
(513,0,l),
(685,0,l),
(443,640,l),
(464,663,o),
(477,695,o),
(477,729,cs),
(477,802,o),
(418,861,o),
(345,861,cs),
(272,861,o),
(213,802,o),
(213,729,cs),
(213,695,o),
(226,663,o),
(247,640,c),
(5,0,l)
);
},
{
closed = 1;
nodes = (
(344,501,l),
(430,247,l),
(259,247,l)
);
},
{
closed = 1;
nodes = (
(319,682,o),
(298,703,o),
(298,729,cs),
(298,755,o),
(319,776,o),
(345,776,cs),
(371,776,o),
(392,755,o),
(392,729,cs),
(392,703,o),
(371,682,o),
(345,682,cs)
);
}
);
width = 690;
}
);
metricLeft = A;
metricRight = A;
unicode = 197;
},
{
glyphname = AE;
kernLeft = AE;
kernRight = E;
lastChange = "2024-11-01 12:02:53 +0000";
layers = (
{
anchors = (
{
name = bottom;
pos = (415,0);
},
{
name = top;
pos = (415,668);
}
);
layerId = "883DA8B6-3D8E-4908-9E9E-18B044E47F8D";
shapes = (
{
closed = 1;
nodes = (
(58,0,l),
(152,168,l),
(405,168,l),
(405,0,l),
(825,0,l),
(825,48,l),
(461,48,l),
(461,320,l),
(755,320,l),
(755,368,l),
(461,368,l),
(461,620,l),
(821,620,l),
(821,668,l),
(376,668,l),
(0,0,l)
);
},
{
closed = 1;
nodes = (
(405,623,l),
(405,216,l),
(178,216,l)
);
}
);
width = 865;
},
{
anchors = (
{
name = bottom;
pos = (534,0);
},
{
name = top;
pos = (534,668);
}
);
layerId = "5C67A8D6-F0A6-408B-B629-E0E82D5C59F6";
shapes = (
{
closed = 1;
nodes = (
(190,0,l),
(251,114,l),
(472,114,l),
(472,0,l),
(967,0,l),
(967,150,l),
(642,150,l),
(642,269,l),
(820,269,l),
(820,418,l),
(642,418,l),
(642,518,l),
(967,518,l),
(967,668,l),
(372,668,l),
(0,0,l)
);
},
{
closed = 1;
nodes = (
(472,529,l),
(472,251,l),
(324,251,l)
);
}
);
width = 1001;
},
{
anchors = (
{
name = bottom;
pos = (473,0);
},
{
name = top;
pos = (473,668);
}
);
layerId = "78636F1B-F233-4E70-8C3B-7E1F8D8169C5";
shapes = (
{
closed = 1;
nodes = (
(103,0,l),
(183,146,l),
(430,146,l),
(430,0,l),
(853,0,l),
(853,81,l),
(524,81,l),
(524,303,l),
(759,303,l),
(759,384,l),
(524,384,l),
(524,587,l),
(853,587,l),
(853,668,l),
(377,668,l),
(0,0,l)
);
},
{
closed = 1;
nodes = (
(430,595,l),
(430,227,l),
(228,227,l)
);
}
);
width = 891;
},
{
anchors = (
{
name = bottom;
pos = (524,0);
},
{
name = top;
pos = (524,668);
}
);
layerId = "77C32F3B-CDAD-439A-A41B-3F592148655B";
shapes = (
{
closed = 1;
nodes = (
(176,0,l),
(240,119,l),
(465,119,l),
(465,0,l),
(949,0,l),
(949,139,l),
(623,139,l),
(623,274,l),
(810,274,l),
(810,413,l),
(623,413,l),
(623,529,l),
(949,529,l),
(949,668,l),
(373,668,l),
(0,0,l)
);
},
{
closed = 1;
nodes = (
(465,539,l),
(465,247,l),
(308,247,l)
);
}
);
width = 983;
}
);
metricLeft = "=0";
metricRight = E;
unicode = 198;
},
{
glyphname = B;
kernLeft = B;
kernRight = B;
lastChange = "2024-11-01 12:02:53 +0000";
layers = (
{
anchors = (
{
name = bottom;
pos = (291,0);
},
{
name = center;
pos = (291,334);
},
{
name = top;
pos = (291,668);
}
);
layerId = "883DA8B6-3D8E-4908-9E9E-18B044E47F8D";
shapes = (
{
closed = 1;
nodes = (
(344,0,ls),
(482,0,o),
(548,95,o),
(548,191,cs),
(548,265,o),
(513,318,o),
(431,349,c),
(493,378,o),
(519,433,o),
(519,495,cs),
(519,589,o),
(449,668,o),
(323,668,cs),
(82,668,l),
(82,0,l)
);
},
{
closed = 1;
nodes = (
(138,322,l),
(334,322,ls),
(445,322,o),
(491,261,o),
(491,188,cs),
(491,113,o),
(449,48,o),
(336,48,cs),
(138,48,l)
);
},
{
closed = 1;
nodes = (
(138,620,l),
(315,620,ls),
(420,620,o),
(463,562,o),
(463,492,cs),
(463,423,o),
(427,370,o),
(331,370,cs),
(138,370,l)
);
}
);
width = 585;
},
{
anchors = (
{
name = bottom;
pos = (343,0);
},
{
name = center;
pos = (343,334);
},
{
name = top;
pos = (343,668);
}
);
layerId = "5C67A8D6-F0A6-408B-B629-E0E82D5C59F6";
shapes = (
{
closed = 1;
nodes = (
(362,0,ls),
(537,0,o),
(640,62,o),
(640,198,cs),
(640,279,o),
(591,332,o),
(519,355,c),
(577,383,o),
(613,428,o),
(613,495,cs),
(613,616,o),
(516,668,o),
(352,668,cs),
(54,668,l),
(54,0,l)
);
},
{
closed = 1;
nodes = (
(224,277,l),
(370,277,ls),
(430,277,o),
(462,254,o),
(462,210,cs),
(462,165,o),
(430,141,o),
(370,141,cs),
(224,141,l)
);
},
{
closed = 1;
nodes = (
(224,530,l),
(360,530,ls),
(409,530,o),
(437,508,o),
(437,470,cs),
(437,432,o),
(408,408,o),
(358,408,cs),
(224,408,l)
);
}
);
width = 659;
},
{
anchors = (
{
name = bottom;
pos = (312,0);
},
{
name = center;
pos = (312,334);
},
{
name = top;
pos = (312,668);
}
);
layerId = "78636F1B-F233-4E70-8C3B-7E1F8D8169C5";
shapes = (
{
closed = 1;
nodes = (
(353,0,ls),
(495,0,o),
(581,84,o),
(581,193,cs),
(581,256,o),
(552,318,o),
(464,351,c),
(528,381,o),
(553,438,o),
(553,495,cs),
(553,595,o),
(475,668,o),
(337,668,cs),
(78,668,l),
(78,0,l)
);
},
{
closed = 1;
nodes = (
(172,308,l),
(350,308,ls),
(445,308,o),
(486,256,o),
(486,195,cs),
(486,134,o),
(446,79,o),
(350,79,cs),
(172,79,l)
);
},
{
closed = 1;
nodes = (
(172,589,l),
(334,589,ls),
(416,589,o),
(459,549,o),
(459,485,cs),
(459,426,o),
(425,382,o),
(344,382,cs),
(172,382,l)
);
}
);
width = 613;
},
{
anchors = (
{
name = bottom;
pos = (336,0);
},
{
name = center;
pos = (336,334);
},
{
name = top;
pos = (336,668);
}
);
layerId = "77C32F3B-CDAD-439A-A41B-3F592148655B";
shapes = (
{
closed = 1;
nodes = (
(359,0,ls),
(531,0,o),
(629,68,o),
(629,197,cs),
(629,278,o),
(581,330,o),
(509,354,c),
(569,383,o),
(602,431,o),
(602,495,cs),
(602,609,o),
(512,668,o),
(348,668,cs),
(56,668,l),
(56,0,l)
);
},
{
closed = 1;
nodes = (
(214,282,l),
(365,282,ls),
(431,282,o),
(464,254,o),
(464,208,cs),
(464,160,o),
(431,131,o),
(365,131,cs),
(214,131,l)
);
},
{
closed = 1;
nodes = (
(214,539,l),
(354,539,ls),
(409,539,o),
(439,514,o),
(439,472,cs),
(439,431,o),
(409,404,o),
(354,404,cs),
(214,404,l)
);
}
);
width = 650;
}
);
metricLeft = H;
unicode = 66;
},
{
glyphname = C;
kernLeft = O;
kernRight = C;
lastChange = "2024-11-01 12:02:53 +0000";
layers = (
{
anchors = (
{
name = bottom;
pos = (336,0);
},
{
name = top;
pos = (340,668);
}
);
layerId = "883DA8B6-3D8E-4908-9E9E-18B044E47F8D";
shapes = (
{
closed = 1;
nodes = (
(454,-12,o),
(538,36,o),
(585,137,c),
(535,156,l),
(503,92,o),
(448,36,o),
(340,36,cs),
(209,36,o),
(103,142,o),
(103,336,cs),
(103,530,o),
(211,632,o),
(341,632,cs),
(444,632,o),
(503,577,o),
(533,512,c),
(582,531,l),
(539,630,o),
(448,680,o),
(343,680,cs),
(167,680,o),
(46,536,o),
(46,336,cs),
(46,136,o),
(159,-12,o),
(336,-12,cs)
);
}
);
width = 632;
},
{
anchors = (
{
name = bottom;
pos = (368,0);
},
{
name = top;
pos = (370,668);
}
);
layerId = "5C67A8D6-F0A6-408B-B629-E0E82D5C59F6";
shapes = (
{
closed = 1;
nodes = (
(496,-12,o),
(598,48,o),
(653,143,c),
(504,198,l),
(473,140,o),
(411,128,o),
(368,128,cs),
(279,128,o),
(209,199,o),
(209,334,cs),
(209,463,o),
(278,540,o),
(366,540,cs),
(414,540,o),
(468,522,o),
(498,469,c),
(649,524,l),
(597,618,o),
(500,680,o),
(371,680,cs),
(161,680,o),
(28,545,o),
(28,334,cs),
(28,119,o),
(157,-12,o),
(368,-12,cs)
);
}
);
width = 665;
},
{
anchors = (
{
name = bottom;
pos = (347,0);
},
{
name = top;
pos = (352,668);
}
);
layerId = "78636F1B-F233-4E70-8C3B-7E1F8D8169C5";
shapes = (
{
closed = 1;
nodes = (
(465,-12,o),
(564,40,o),
(612,139,c),
(530,169,l),
(499,108,o),
(440,67,o),
(353,67,cs),
(228,67,o),
(140,167,o),
(140,335,cs),
(140,509,o),
(232,601,o),
(350,601,cs),
(437,601,o),
(496,559,o),
(526,499,c),
(608,529,l),
(562,626,o),
(467,680,o),
(355,680,cs),
(166,680,o),
(44,543,o),
(44,335,cs),
(44,132,o),
(156,-12,o),
(347,-12,cs)
);
}
);
width = 645;
},
{
anchors = (
{
name = bottom;
pos = (365,0);
},
{
name = top;
pos = (366,668);
}
);
layerId = "77C32F3B-CDAD-439A-A41B-3F592148655B";
shapes = (
{
closed = 1;
nodes = (
(490,-12,o),
(592,47,o),
(646,142,c),
(507,193,l),
(476,135,o),
(415,118,o),
(365,118,cs),
(270,118,o),
(197,194,o),
(197,334,cs),
(197,470,o),
(270,550,o),
(363,550,cs),
(417,550,o),
(472,528,o),
(502,474,c),
(642,525,l),
(591,619,o),
(494,680,o),
(368,680,cs),
(161,680,o),
(30,545,o),
(30,334,cs),
(30,121,o),
(156,-12,o),
(364,-12,cs)
);
}
);
width = 661;
}
);
metricLeft = O;
unicode = 67;
},
{
glyphname = Ccedilla;
kernLeft = O;
kernRight = C;
lastChange = "2024-11-01 12:02:53 +0000";
layers = (
{
anchors = (
{
name = top;
pos = (340,668);
}
);
layerId = "883DA8B6-3D8E-4908-9E9E-18B044E47F8D";
shapes = (
{
closed = 1;
nodes = (
(391,-177,o),
(415,-127,o),
(415,-99,cs),
(415,-71,o),
(394,-44,o),
(353,-44,cs),
(347,-44,o),
(335,-45,o),
(322,-48,c),
(345,-12,l),
(458,-9,o),
(539,39,o),
(585,137,c),
(535,156,l),
(503,92,o),
(448,36,o),
(340,36,cs),
(209,36,o),
(103,142,o),
(103,336,cs),
(103,530,o),
(211,632,o),
(341,632,cs),
(444,632,o),
(503,577,o),
(533,512,c),
(582,531,l),
(539,630,o),
(448,680,o),
(343,680,cs),
(167,680,o),
(46,536,o),
(46,336,cs),
(46,147,o),
(147,4,o),
(308,-11,c),
(281,-55,ls),
(272,-69,o),
(275,-83,o),
(290,-83,cs),
(300,-83,o),
(317,-77,o),
(332,-77,cs),
(363,-77,o),
(373,-88,o),
(373,-108,cs),
(373,-122,o),
(362,-145,o),
(323,-145,cs),
(305,-145,o),
(288,-142,o),
(260,-128,c),
(246,-153,l),
(269,-165,o),
(302,-177,o),
(323,-177,cs)
);
}
);
width = 632;
},
{
anchors = (
{
name = top;
pos = (370,668);
}
);
layerId = "5C67A8D6-F0A6-408B-B629-E0E82D5C59F6";
shapes = (
{
closed = 1;
nodes = (
(421,-188,o),
(490,-170,o),
(490,-108,cs),
(490,-59,o),
(437,-46,o),
(400,-46,cs),
(385,-46,o),
(374,-47,o),
(366,-49,c),
(389,-11,l),
(507,-5,o),
(601,53,o),
(653,143,c),
(504,198,l),
(473,140,o),
(411,128,o),
(368,128,cs),
(279,128,o),
(209,199,o),
(209,334,cs),
(209,463,o),
(278,540,o),
(366,540,cs),
(414,540,o),
(468,522,o),
(498,469,c),
(649,524,l),
(597,618,o),
(500,680,o),
(371,680,cs),
(161,680,o),
(28,545,o),
(28,334,cs),
(28,132,o),
(142,4,o),
(331,-11,c),
(301,-59,ls),
(291,-75,o),
(302,-96,o),
(326,-90,cs),
(335,-87,o),
(345,-85,o),
(352,-85,cs),
(374,-85,o),
(390,-94,o),
(390,-111,cs),
(390,-131,o),
(369,-136,o),
(347,-136,cs),
(321,-136,o),
(294,-129,o),
(285,-124,c),
(269,-176,l),
(292,-183,o),
(324,-188,o),
(357,-188,cs)
);
}
);
width = 665;
},
{
anchors = (
{
name = top;
pos = (352,668);
}
);
layerId = "78636F1B-F233-4E70-8C3B-7E1F8D8169C5";
shapes = (
{
closed = 1;
nodes = (
(407,-183,o),
(439,-142,o),
(439,-104,cs),
(439,-72,o),
(416,-41,o),
(370,-41,cs),
(361,-41,o),
(351,-43,o),
(340,-45,c),
(360,-12,l),
(472,-8,o),
(566,44,o),
(612,139,c),
(530,169,l),
(499,108,o),
(440,67,o),
(353,67,cs),
(228,67,o),
(140,167,o),
(140,335,cs),
(140,509,o),
(232,601,o),
(350,601,cs),
(437,601,o),
(496,559,o),
(526,499,c),
(608,529,l),
(562,626,o),
(467,680,o),
(355,680,cs),
(166,680,o),
(44,543,o),
(44,335,cs),
(44,144,o),
(143,5,o),
(314,-11,c),
(285,-57,ls),
(276,-71,o),
(285,-89,o),
(308,-83,cs),
(320,-80,o),
(332,-79,o),
(341,-79,cs),
(368,-79,o),
(379,-92,o),
(379,-108,cs),
(379,-124,o),
(366,-142,o),
(326,-142,cs),
(310,-142,o),
(291,-138,o),
(268,-128,c),
(254,-163,l),
(288,-177,o),
(317,-183,o),
(342,-183,cs)
);
}
);
width = 645;
},
{
anchors = (
{
name = top;
pos = (366,668);
}
);
layerId = "77C32F3B-CDAD-439A-A41B-3F592148655B";
shapes = (
{
closed = 1;
nodes = (
(419,-187,o),
(482,-165,o),
(482,-107,cs),
(482,-61,o),
(434,-45,o),
(396,-45,cs),
(382,-45,o),
(371,-46,o),
(362,-48,c),
(385,-11,l),
(501,-5,o),
(595,52,o),
(646,142,c),
(507,193,l),
(476,135,o),
(415,118,o),
(365,118,cs),
(270,118,o),
(197,194,o),
(197,334,cs),
(197,470,o),
(270,550,o),
(363,550,cs),
(417,550,o),
(472,528,o),
(502,474,c),
(642,525,l),
(591,619,o),
(494,680,o),
(368,680,cs),
(161,680,o),
(30,545,o),
(30,334,cs),
(30,133,o),
(142,4,o),
(329,-11,c),
(299,-59,ls),
(289,-75,o),
(306,-95,o),
(324,-89,cs),
(333,-86,o),
(343,-84,o),
(351,-84,cs),
(373,-84,o),
(388,-94,o),
(388,-110,cs),
(388,-130,o),
(368,-137,o),
(344,-137,cs),
(320,-137,o),
(294,-130,o),
(283,-124,c),
(267,-174,l),
(292,-182,o),
(323,-187,o),
(355,-187,cs)
);
}
);
width = 661;
}
);
unicode = 199;
},
{
glyphname = D;
kernLeft = H;
kernRight = O;
lastChange = "2024-11-01 12:02:53 +0000";
layers = (
{
anchors = (
{
name = bottom;
pos = (323,0);
},
{
name = center;
pos = (182,351);
},
{
name = top;
pos = (310,668);
}
);
layerId = "883DA8B6-3D8E-4908-9E9E-18B044E47F8D";
shapes = (
{
closed = 1;
nodes = (
(246,0,ls),
(452,0,o),
(596,92,o),
(596,336,cs),
(596,590,o),
(440,668,o),
(246,668,cs),
(82,668,l),
(82,0,l)
);
},
{
closed = 1;
nodes = (
(138,620,l),
(238,620,ls),
(402,620,o),
(539,568,o),
(539,336,cs),
(539,104,o),
(402,48,o),
(238,48,cs),
(138,48,l)
);
}
);
width = 642;
},
{
anchors = (
{
name = bottom;
pos = (358,0);
},
{
name = center;
pos = (175,344);
},
{
name = top;
pos = (338,668);
}
);
layerId = "5C67A8D6-F0A6-408B-B629-E0E82D5C59F6";
shapes = (
{
closed = 1;
nodes = (
(281,0,ls),
(511,0,o),
(672,87,o),
(672,334,cs),
(672,578,o),
(512,668,o),
(281,668,cs),
(54,668,l),
(54,0,l)
);
},
{
closed = 1;
nodes = (
(224,527,l),
(285,527,ls),
(406,527,o),
(497,491,o),
(497,334,cs),
(497,176,o),
(406,143,o),
(285,143,cs),
(224,143,l)
);
}
);
width = 700;
},
{
anchors = (
{
name = bottom;
pos = (339,0);
},
{
name = center;
pos = (192,349);
},
{
name = top;
pos = (319,668);
}
);
layerId = "78636F1B-F233-4E70-8C3B-7E1F8D8169C5";
shapes = (
{
closed = 1;
nodes = (
(260,0,ls),
(472,0,o),
(625,79,o),
(625,335,cs),
(625,581,o),
(482,668,o),
(260,668,cs),
(78,668,l),
(78,0,l)
);
},
{
closed = 1;
nodes = (
(172,589,l),
(258,589,ls),
(408,589,o),
(529,551,o),
(529,335,cs),
(529,117,o),
(408,79,o),
(258,79,cs),
(172,79,l)
);
}
);
width = 669;
},
{
anchors = (
{
name = bottom;
pos = (353,0);
},
{
name = center;
pos = (176,345);
},
{
name = top;
pos = (333,668);
}
);
layerId = "77C32F3B-CDAD-439A-A41B-3F592148655B";
shapes = (
{
closed = 1;
nodes = (
(276,0,ls),
(504,0,o),
(663,87,o),
(663,334,cs),
(663,578,o),
(505,668,o),
(276,668,c),
(56,668,l),
(56,0,l)
);
},
{
closed = 1;
nodes = (
(214,537,l),
(279,537,ls),
(406,537,o),
(500,500,o),
(500,334,cs),
(500,168,o),
(407,133,o),
(279,133,cs),
(214,133,l)
);
}
);
width = 693;
}
);
metricLeft = H;
metricRight = O;
unicode = 68;
},
{
glyphname = Dcroat;
kernLeft = H;
kernRight = O;
lastChange = "2024-11-01 12:02:53 +0000";
layers = (
{
layerId = "883DA8B6-3D8E-4908-9E9E-18B044E47F8D";
shapes = (
{
closed = 1;
nodes = (
(266,0,ls),
(472,0,o),
(616,92,o),
(616,336,cs),
(616,590,o),
(460,668,o),
(266,668,cs),
(102,668,l),
(102,375,l),
(24,375,l),
(24,327,l),
(102,327,l),
(102,0,l)
);
},
{
closed = 1;
nodes = (
(158,327,l),
(360,327,l),
(360,375,l),
(158,375,l),
(158,620,l),
(258,620,ls),
(422,620,o),
(559,568,o),
(559,336,cs),
(559,104,o),
(422,48,o),
(258,48,cs),
(158,48,l)
);
}
);
width = 662;
},
{
layerId = "5C67A8D6-F0A6-408B-B629-E0E82D5C59F6";
shapes = (
{
closed = 1;
nodes = (
(301,0,ls),
(531,0,o),
(692,87,o),
(692,334,cs),
(692,578,o),
(532,668,o),
(301,668,cs),
(74,668,l),
(74,413,l),
(8,413,l),
(8,274,l),
(74,274,l),
(74,0,l)
);
},
{
closed = 1;
nodes = (
(244,274,l),
(371,274,l),
(371,413,l),
(244,413,l),
(244,527,l),
(305,527,ls),
(426,527,o),
(517,491,o),
(517,334,cs),
(517,176,o),
(426,143,o),
(305,143,cs),
(244,143,l)
);
}
);
width = 720;
},
{
layerId = "78636F1B-F233-4E70-8C3B-7E1F8D8169C5";
shapes = (
{
closed = 1;
nodes = (
(280,0,ls),
(492,0,o),
(645,79,o),
(645,335,cs),
(645,581,o),
(502,668,o),
(280,668,cs),
(98,668,l),
(98,388,l),
(31,388,l),
(31,309,l),
(98,309,l),
(98,0,l)
);
},
{
closed = 1;
nodes = (
(192,309,l),
(382,309,l),
(382,388,l),
(192,388,l),
(192,589,l),
(278,589,ls),
(428,589,o),
(549,551,o),
(549,335,cs),
(549,117,o),
(428,79,o),
(278,79,cs),
(192,79,l)
);
}
);
width = 689;
},
{
layerId = "77C32F3B-CDAD-439A-A41B-3F592148655B";
shapes = (
{
closed = 1;
nodes = (
(296,0,ls),
(524,0,o),
(683,87,o),
(683,334,cs),
(683,578,o),
(525,668,o),
(296,668,cs),
(76,668,l),
(76,409,l),
(10,409,l),
(10,280,l),
(76,280,l),
(76,0,l)
);
},
{
closed = 1;
nodes = (
(234,280,l),
(371,280,l),
(371,409,l),
(234,409,l),
(234,537,l),
(299,537,ls),
(426,537,o),
(520,500,o),
(520,334,cs),
(520,168,o),
(427,133,o),
(299,133,cs),
(234,133,l)
);
}
);
width = 713;
}
);
metricRight = D;
unicode = 272;
},
{
glyphname = Eth;
kernLeft = H;
kernRight = O;
lastChange = "2024-11-01 12:02:53 +0000";
layers = (
{
layerId = "883DA8B6-3D8E-4908-9E9E-18B044E47F8D";
shapes = (
{
closed = 1;
nodes = (
(266,0,ls),
(472,0,o),
(616,92,o),
(616,336,cs),
(616,590,o),
(460,668,o),
(266,668,cs),
(102,668,l),
(102,375,l),
(24,375,l),
(24,327,l),
(102,327,l),
(102,0,l)
);
},
{
closed = 1;
nodes = (
(158,327,l),
(360,327,l),
(360,375,l),
(158,375,l),
(158,620,l),
(258,620,ls),
(422,620,o),
(559,568,o),
(559,336,cs),
(559,104,o),
(422,48,o),
(258,48,cs),
(158,48,l)
);
}
);
width = 662;
},
{
layerId = "5C67A8D6-F0A6-408B-B629-E0E82D5C59F6";
shapes = (
{
closed = 1;
nodes = (
(301,0,ls),
(531,0,o),
(692,87,o),
(692,334,cs),
(692,578,o),
(532,668,o),
(301,668,cs),
(74,668,l),
(74,413,l),
(8,413,l),
(8,274,l),
(74,274,l),
(74,0,l)
);
},
{
closed = 1;
nodes = (
(244,274,l),
(371,274,l),
(371,413,l),
(244,413,l),
(244,527,l),
(305,527,ls),
(426,527,o),
(517,491,o),
(517,334,cs),
(517,176,o),
(426,143,o),
(305,143,cs),
(244,143,l)
);
}
);
width = 720;
},
{
layerId = "78636F1B-F233-4E70-8C3B-7E1F8D8169C5";
shapes = (
{
closed = 1;
nodes = (
(280,0,ls),
(492,0,o),
(645,79,o),
(645,335,cs),
(645,581,o),
(502,668,o),
(280,668,cs),
(98,668,l),
(98,388,l),
(31,388,l),
(31,309,l),
(98,309,l),
(98,0,l)
);
},
{
closed = 1;
nodes = (
(192,309,l),
(382,309,l),
(382,388,l),
(192,388,l),
(192,589,l),
(278,589,ls),
(428,589,o),
(549,551,o),
(549,335,cs),
(549,117,o),
(428,79,o),
(278,79,cs),
(192,79,l)
);
}
);
width = 689;
},
{
layerId = "77C32F3B-CDAD-439A-A41B-3F592148655B";
shapes = (
{
closed = 1;
nodes = (
(296,0,ls),
(524,0,o),
(683,87,o),
(683,334,cs),
(683,578,o),
(525,668,o),
(296,668,cs),
(76,668,l),
(76,409,l),
(10,409,l),
(10,280,l),
(76,280,l),
(76,0,l)
);
},
{
closed = 1;
nodes = (
(234,280,l),
(371,280,l),
(371,409,l),
(234,409,l),
(234,537,l),
(299,537,ls),
(426,537,o),
(520,500,o),
(520,334,cs),
(520,168,o),
(427,133,o),
(299,133,cs),
(234,133,l)
);
}
);
width = 713;
}
);
metricRight = D;
unicode = 208;
},
{
glyphname = E;
kernLeft = B;
kernRight = E;
lastChange = "2024-11-01 12:02:53 +0000";
layers = (
{
anchors = (
{
name = bottom;
pos = (270,0);
},
{
name = ogonek;
pos = (502,10);
},
{
name = top;
pos = (292,668);
},
{
name = topleft;
pos = (9,668);
}
);
layerId = "883DA8B6-3D8E-4908-9E9E-18B044E47F8D";
shapes = (
{
closed = 1;
nodes = (
(502,0,l),
(502,48,l),
(138,48,l),
(138,320,l),
(432,320,l),
(432,368,l),
(138,368,l),
(138,620,l),
(498,620,l),
(498,668,l),
(82,668,l),
(82,0,l)
);
}
);
width = 542;
},
{
anchors = (
{
name = bottom;
pos = (307,0);
},
{
name = ogonek;
pos = (579,10);
},
{
name = top;
pos = (319,668);
},
{
name = topleft;
pos = (36,668);
}
);
layerId = "5C67A8D6-F0A6-408B-B629-E0E82D5C59F6";
shapes = (
{
closed = 1;
nodes = (
(579,0,l),
(579,150,l),
(224,150,l),
(224,269,l),
(432,269,l),
(432,418,l),
(224,418,l),
(224,518,l),
(575,518,l),
(575,668,l),
(54,668,l),
(54,0,l)
);
}
);
width = 613;
},
{
anchors = (
{
name = bottom;
pos = (286,0);
},
{
name = ogonek;
pos = (531,10);
},
{
name = top;
pos = (305,668);
},
{
name = topleft;
pos = (22,668);
}
);
layerId = "78636F1B-F233-4E70-8C3B-7E1F8D8169C5";
shapes = (
{
closed = 1;
nodes = (
(531,0,l),
(531,81,l),
(172,81,l),
(172,303,l),
(437,303,l),
(437,384,l),
(172,384,l),
(172,587,l),
(527,587,l),
(527,668,l),
(78,668,l),
(78,0,l)
);
}
);
width = 569;
},
{
anchors = (
{
name = bottom;
pos = (302,0);
},
{
name = ogonek;
pos = (570,10);
},
{
name = top;
pos = (315,668);
},
{
name = topleft;
pos = (32,668);
}
);
layerId = "77C32F3B-CDAD-439A-A41B-3F592148655B";
shapes = (
{
closed = 1;
nodes = (
(570,0,l),
(570,139,l),
(214,139,l),
(214,274,l),
(431,274,l),
(431,413,l),
(214,413,l),
(214,529,l),
(566,529,l),
(566,668,l),
(56,668,l),
(56,0,l)
);
}
);
width = 604;
}
);
metricLeft = H;
unicode = 69;
},
{
glyphname = Eogonek;
kernLeft = B;
kernRight = E;
lastChange = "2024-11-01 12:02:53 +0000";
layers = (
{
anchors = (
{
name = bottom;
pos = (270,0);
},
{
name = top;
pos = (281,668);
},
{
name = topleft;
pos = (9,668);
}
);
layerId = "883DA8B6-3D8E-4908-9E9E-18B044E47F8D";
shapes = (
{
closed = 1;
nodes = (
(434,0,l),
(397,-22,o),
(372,-52,o),
(372,-94,cs),
(372,-140,o),
(407,-168,o),
(454,-168,cs),
(470,-168,o),
(482,-167,o),
(502,-159,c),
(502,-120,l),
(490,-126,o),
(478,-127,o),
(470,-127,cs),
(439,-127,o),
(417,-114,o),
(417,-84,cs),
(417,-50,o),
(449,-17,o),
(502,0,c),
(502,48,l),
(138,48,l),
(138,320,l),
(432,320,l),
(432,368,l),
(138,368,l),
(138,620,l),
(498,620,l),
(498,668,l),
(82,668,l),
(82,0,l)
);
}
);
width = 542;
},
{
anchors = (
{
name = bottom;
pos = (307,0);
},
{
name = top;
pos = (291,668);
},
{
name = topleft;
pos = (36,668);
}
);
layerId = "5C67A8D6-F0A6-408B-B629-E0E82D5C59F6";
shapes = (
{
closed = 1;
nodes = (
(411,0,l),
(375,-17,o),
(346,-45,o),
(346,-84,cs),
(346,-121,o),
(376,-176,o),
(497,-176,cs),
(523,-176,o),
(565,-171,o),
(579,-167,c),
(579,-86,l),
(572,-87,o),
(549,-95,o),
(528,-95,cs),
(507,-95,o),
(483,-88,o),
(483,-65,cs),
(483,-31,o),
(543,-2,o),
(579,0,c),
(579,150,l),
(224,150,l),
(224,269,l),
(432,269,l),
(432,418,l),
(224,418,l),
(224,518,l),
(575,518,l),
(575,668,l),
(54,668,l),
(54,0,l)
);
}
);
width = 613;
},
{
anchors = (
{
name = bottom;
pos = (286,0);
},
{
name = top;
pos = (284,668);
},
{
name = topleft;
pos = (22,668);
}
);
layerId = "78636F1B-F233-4E70-8C3B-7E1F8D8169C5";
shapes = (
{
closed = 1;
nodes = (
(426,0,l),
(393,-21,o),
(374,-51,o),
(374,-91,cs),
(374,-144,o),
(419,-173,o),
(472,-173,cs),
(491,-173,o),
(512,-169,o),
(531,-161,c),
(531,-107,l),
(518,-113,o),
(505,-115,o),
(493,-115,cs),
(465,-115,o),
(444,-102,o),
(444,-74,cs),
(444,-40,o),
(475,-20,o),
(531,0,c),
(531,81,l),
(172,81,l),
(172,303,l),
(437,303,l),
(437,384,l),
(172,384,l),
(172,587,l),
(527,587,l),
(527,668,l),
(78,668,l),
(78,0,l)
);
}
);
width = 569;
},
{
anchors = (
{
name = bottom;
pos = (302,0);
},
{
name = top;
pos = (290,668);
},
{
name = topleft;
pos = (32,668);
}
);
layerId = "77C32F3B-CDAD-439A-A41B-3F592148655B";
shapes = (
{
closed = 1;
nodes = (
(418,0,l),
(375,-18,o),
(349,-46,o),
(349,-85,cs),
(349,-123,o),
(383,-174,o),
(491,-174,cs),
(516,-174,o),
(555,-169,o),
(570,-164,c),
(570,-89,l),
(562,-91,o),
(541,-98,o),
(521,-98,cs),
(499,-98,o),
(475,-92,o),
(475,-68,cs),
(475,-34,o),
(531,-5,o),
(570,0,c),
(570,139,l),
(214,139,l),
(214,274,l),
(431,274,l),
(431,413,l),
(214,413,l),
(214,529,l),
(566,529,l),
(566,668,l),
(56,668,l),
(56,0,l)
);
}
);
width = 604;
}
);
metricLeft = E;
metricWidth = E;
unicode = 280;
},
{
glyphname = F;
kernLeft = B;
kernRight = F;
lastChange = "2024-11-01 12:02:53 +0000";
layers = (
{
anchors = (
{
name = bottom;
pos = (264,0);
},
{
name = top;
pos = (264,668);
}
);
layerId = "883DA8B6-3D8E-4908-9E9E-18B044E47F8D";
shapes = (
{
closed = 1;
nodes = (
(138,0,l),
(138,320,l),
(488,320,l),
(488,368,l),
(138,368,l),
(138,620,l),
(492,620,l),
(492,668,l),
(82,668,l),
(82,0,l)
);
}
);
width = 535;
},
{
anchors = (
{
name = bottom;
pos = (287,0);
},
{
name = top;
pos = (287,668);
}
);
layerId = "5C67A8D6-F0A6-408B-B629-E0E82D5C59F6";
shapes = (
{
closed = 1;
nodes = (
(224,0,l),
(224,233,l),
(536,233,l),
(536,383,l),
(224,383,l),
(224,518,l),
(540,518,l),
(540,668,l),
(54,668,l),
(54,0,l)
);
}
);
width = 574;
},
{
anchors = (
{
name = bottom;
pos = (276,0);
},
{
name = top;
pos = (276,668);
}
);
layerId = "78636F1B-F233-4E70-8C3B-7E1F8D8169C5";
shapes = (
{
closed = 1;
nodes = (
(172,0,l),
(172,303,l),
(508,303,l),
(508,384,l),
(172,384,l),
(172,587,l),
(512,587,l),
(512,668,l),
(78,668,l),
(78,0,l)
);
}
);
width = 552;
},
{
anchors = (
{
name = bottom;
pos = (284,0);
},
{
name = top;
pos = (284,668);
}
);
layerId = "77C32F3B-CDAD-439A-A41B-3F592148655B";
shapes = (
{
closed = 1;
nodes = (
(214,0,l),
(214,244,l),
(530,244,l),
(530,383,l),
(214,383,l),
(214,529,l),
(534,529,l),
(534,668,l),
(56,668,l),
(56,0,l)
);
}
);
width = 569;
}
);
metricLeft = H;
unicode = 70;
},
{
glyphname = G;
kernLeft = O;
kernRight = G;
lastChange = "2024-11-01 12:02:53 +0000";
layers = (
{
anchors = (
{
name = bottom;
pos = (341,0);
},
{
name = top;
pos = (341,668);
}
);
layerId = "883DA8B6-3D8E-4908-9E9E-18B044E47F8D";
shapes = (
{
closed = 1;
nodes = (
(427,-12,o),
(509,20,o),
(556,97,c),
(569,0,l),
(609,0,l),
(609,327,l),
(337,327,l),
(337,279,l),
(556,279,l),
(556,253,ls),
(556,79,o),
(433,36,o),
(340,36,cs),
(200,36,o),
(103,150,o),
(103,334,cs),
(103,529,o),
(209,632,o),
(342,632,cs),
(437,632,o),
(504,585,o),
(538,505,c),
(589,525,l),
(544,627,o),
(452,680,o),
(344,680,cs),
(162,680,o),
(46,541,o),
(46,334,cs),
(46,137,o),
(151,-12,o),
(340,-12,cs)
);
}
);
width = 673;
},
{
anchors = (
{
name = bottom;
pos = (357,0);
},
{
name = top;
pos = (357,668);
}
);
layerId = "5C67A8D6-F0A6-408B-B629-E0E82D5C59F6";
shapes = (
{
closed = 1;
nodes = (
(445,-12,o),
(509,16,o),
(552,72,c),
(574,0,l),
(687,0,l),
(687,384,l),
(374,384,l),
(374,247,l),
(516,247,l),
(516,229,ls),
(516,154,o),
(446,128,o),
(376,128,cs),
(276,128,o),
(209,201,o),
(209,336,cs),
(209,471,o),
(281,540,o),
(374,540,cs),
(440,540,o),
(481,513,o),
(499,481,c),
(653,537,l),
(605,633,o),
(496,680,o),
(376,680,cs),
(170,680,o),
(28,548,o),
(28,336,cs),
(28,121,o),
(151,-12,o),
(348,-12,cs)
);
}
);
width = 731;
},
{
anchors = (
{
name = bottom;
pos = (349,0);
},
{
name = top;
pos = (349,668);
}
);
layerId = "78636F1B-F233-4E70-8C3B-7E1F8D8169C5";
shapes = (
{
closed = 1;
nodes = (
(436,-12,o),
(514,16,o),
(557,84,c),
(582,0,l),
(636,0,l),
(636,345,l),
(352,345,l),
(352,264,l),
(547,264,l),
(547,242,ls),
(547,104,o),
(439,67,o),
(350,67,cs),
(226,67,o),
(140,167,o),
(140,335,cs),
(140,509,o),
(234,601,o),
(352,601,cs),
(439,601,o),
(498,559,o),
(528,498,c),
(612,529,l),
(566,628,o),
(469,680,o),
(357,680,cs),
(168,680,o),
(44,543,o),
(44,335,cs),
(44,132,o),
(154,-12,o),
(346,-12,cs)
);
}
);
width = 694;
},
{
anchors = (
{
name = bottom;
pos = (355,0);
},
{
name = top;
pos = (355,668);
}
);
layerId = "77C32F3B-CDAD-439A-A41B-3F592148655B";
shapes = (
{
closed = 1;
nodes = (
(443,-12,o),
(509,16,o),
(552,74,c),
(574,0,l),
(678,0,l),
(678,378,l),
(370,378,l),
(370,250,l),
(520,250,l),
(520,231,ls),
(520,146,o),
(444,118,o),
(371,118,cs),
(267,118,o),
(197,196,o),
(197,336,cs),
(197,477,o),
(273,550,o),
(370,550,cs),
(439,550,o),
(483,520,o),
(503,484,c),
(646,536,l),
(598,632,o),
(491,680,o),
(372,680,cs),
(169,680,o),
(30,547,o),
(30,336,cs),
(30,123,o),
(151,-12,o),
(347,-12,cs)
);
}
);
width = 724;
}
);
metricLeft = O;
unicode = 71;
},
{
glyphname = H;
kernLeft = B;
kernRight = H;
lastChange = "2024-11-01 12:02:53 +0000";
layers = (
{
anchors = (
{
name = bottom;
pos = (332,0);
},
{
name = center;
pos = (333,540);
},
{
name = top;
pos = (332,668);
},
{
name = topleft;
pos = (5,668);
}
);
layerId = "883DA8B6-3D8E-4908-9E9E-18B044E47F8D";
shapes = (
{
closed = 1;
nodes = (
(138,0,l),
(138,321,l),
(528,321,l),
(528,0,l),
(584,0,l),
(584,668,l),
(528,668,l),
(528,369,l),
(138,369,l),
(138,668,l),
(82,668,l),
(82,0,l)
);
}
);
width = 666;
},
{
anchors = (
{
name = bottom;
pos = (355,0);
},
{
name = center;
pos = (355,546);
},
{
name = top;
pos = (355,668);
},
{
name = topleft;
pos = (20,668);
}
);
layerId = "5C67A8D6-F0A6-408B-B629-E0E82D5C59F6";
shapes = (
{
closed = 1;
nodes = (
(224,0,l),
(224,268,l),
(485,268,l),
(485,0,l),
(655,0,l),
(655,668,l),
(485,668,l),
(485,418,l),
(224,418,l),
(224,668,l),
(54,668,l),
(54,0,l)
);
}
);
width = 709;
},
{
anchors = (
{
name = bottom;
pos = (347,0);
},
{
name = center;
pos = (347,544);
},
{
name = top;
pos = (347,668);
},
{
name = topleft;
pos = (22,668);
}
);
layerId = "78636F1B-F233-4E70-8C3B-7E1F8D8169C5";
shapes = (
{
closed = 1;
nodes = (
(172,0,l),
(172,303,l),
(522,303,l),
(522,0,l),
(616,0,l),
(616,668,l),
(522,668,l),
(522,384,l),
(172,384,l),
(172,668,l),
(78,668,l),
(78,0,l)
);
}
);
width = 694;
},
{
anchors = (
{
name = bottom;
pos = (352,0);
},
{
name = center;
pos = (352,549);
},
{
name = top;
pos = (352,668);
},
{
name = topleft;
pos = (32,668);
}
);
layerId = "77C32F3B-CDAD-439A-A41B-3F592148655B";
shapes = (
{
closed = 1;
nodes = (
(214,0,l),
(214,274,l),
(489,274,l),
(489,0,l),
(647,0,l),
(647,668,l),
(489,668,l),
(489,413,l),
(214,413,l),
(214,668,l),
(56,668,l),
(56,0,l)
);
}
);
width = 703;
}
);
metricRight = "=|";
unicode = 72;
},
{
glyphname = Hbar;
kernLeft = H;
kernRight = H;
lastChange = "2024-11-01 12:02:53 +0000";
layers = (
{
layerId = "883DA8B6-3D8E-4908-9E9E-18B044E47F8D";
shapes = (
{
closed = 1;
nodes = (
(138,0,l),
(138,321,l),
(528,321,l),
(528,0,l),
(584,0,l),
(584,517,l),
(649,517,l),
(649,563,l),
(584,563,l),
(584,668,l),
(528,668,l),
(528,563,l),
(138,563,l),
(138,668,l),
(82,668,l),
(82,563,l),
(17,563,l),
(17,517,l),
(82,517,l),
(82,0,l)
);
},
{
closed = 1;
nodes = (
(138,517,l),
(528,517,l),
(528,369,l),
(138,369,l)
);
}
);
width = 666;
},
{
layerId = "5C67A8D6-F0A6-408B-B629-E0E82D5C59F6";
shapes = (
{
closed = 1;
nodes = (
(224,0,l),
(224,268,l),
(485,268,l),
(485,0,l),
(655,0,l),
(655,498,l),
(695,498,l),
(695,594,l),
(655,594,l),
(655,668,l),
(485,668,l),
(485,594,l),
(224,594,l),
(224,668,l),
(54,668,l),
(54,594,l),
(14,594,l),
(14,498,l),
(54,498,l),
(54,0,l)
);
},
{
closed = 1;
nodes = (
(224,498,l),
(485,498,l),
(485,418,l),
(224,418,l)
);
}
);
width = 709;
},
{
layerId = "78636F1B-F233-4E70-8C3B-7E1F8D8169C5";
shapes = (
{
closed = 1;
nodes = (
(172,0,l),
(172,303,l),
(522,303,l),
(522,0,l),
(616,0,l),
(616,506,l),
(683,506,l),
(683,582,l),
(616,582,l),
(616,668,l),
(522,668,l),
(522,582,l),
(172,582,l),
(172,668,l),
(78,668,l),
(78,582,l),
(11,582,l),
(11,506,l),
(78,506,l),
(78,0,l)
);
},
{
closed = 1;
nodes = (
(172,506,l),
(522,506,l),
(522,384,l),
(172,384,l)
);
}
);
width = 694;
},
{
guides = (
{
pos = (216,224);
showMeasurement = 1;
}
);
layerId = "77C32F3B-CDAD-439A-A41B-3F592148655B";
shapes = (
{
closed = 1;
nodes = (
(214,0,l),
(214,274,l),
(489,274,l),
(489,0,l),
(647,0,l),
(647,501,l),
(692,501,l),
(692,597,l),
(647,597,l),
(647,668,l),
(489,668,l),
(489,597,l),
(214,597,l),
(214,668,l),
(56,668,l),
(56,597,l),
(11,597,l),
(11,501,l),
(56,501,l),
(56,0,l)
);
},
{
closed = 1;
nodes = (
(214,501,l),
(489,501,l),
(489,413,l),
(214,413,l)
);
}
);
width = 703;
}
);
unicode = 294;
},
{
glyphname = I;
kernLeft = I;
kernRight = I;
lastChange = "2024-11-01 12:02:53 +0000";
layers = (
{
anchors = (
{
name = bottom;
pos = (179,0);
},
{
name = ogonek;
pos = (301,10);
},
{
name = top;
pos = (179,668);
},
{
name = topleft;
pos = (6,668);
}
);
layerId = "883DA8B6-3D8E-4908-9E9E-18B044E47F8D";
shapes = (
{
closed = 1;
nodes = (
(301,0,l),
(301,42,l),
(207,42,l),
(207,626,l),
(301,626,l),
(301,668,l),
(57,668,l),
(57,626,l),
(151,626,l),
(151,42,l),
(57,42,l),
(57,0,l)
);
}
);
width = 358;
},
{
anchors = (
{
name = bottom;
pos = (217,0);
},
{
name = ogonek;
pos = (394,10);
},
{
name = top;
pos = (217,668);
},
{
name = topleft;
pos = (3,668);
}
);
layerId = "5C67A8D6-F0A6-408B-B629-E0E82D5C59F6";
shapes = (
{
closed = 1;
nodes = (
(394,0,l),
(394,124,l),
(302,124,l),
(302,544,l),
(394,544,l),
(394,668,l),
(40,668,l),
(40,544,l),
(132,544,l),
(132,124,l),
(40,124,l),
(40,0,l)
);
}
);
width = 434;
},
{
anchors = (
{
name = bottom;
pos = (196,0);
},
{
name = ogonek;
pos = (337,10);
},
{
name = top;
pos = (196,668);
},
{
name = topleft;
pos = (9,668);
}
);
layerId = "78636F1B-F233-4E70-8C3B-7E1F8D8169C5";
shapes = (
{
closed = 1;
nodes = (
(337,0,l),
(337,70,l),
(243,70,l),
(243,598,l),
(337,598,l),
(337,668,l),
(55,668,l),
(55,598,l),
(149,598,l),
(149,70,l),
(55,70,l),
(55,0,l)
);
}
);
width = 392;
},
{
anchors = (
{
name = bottom;
pos = (216,0);
},
{
name = ogonek;
pos = (388,10);
},
{
name = top;
pos = (216,668);
},
{
name = topleft;
pos = (7,668);
}
);
layerId = "77C32F3B-CDAD-439A-A41B-3F592148655B";
shapes = (
{
closed = 1;
nodes = (
(388,0,l),
(388,116,l),
(295,116,l),
(295,552,l),
(388,552,l),
(388,668,l),
(44,668,l),
(44,552,l),
(137,552,l),
(137,116,l),
(44,116,l),
(44,0,l)
);
}
);
width = 432;
}
);
unicode = 73;
},
{
glyphname = Iogonek;
kernLeft = I;
kernRight = I;
lastChange = "2024-11-01 12:02:53 +0000";
layers = (
{
anchors = (
{
name = bottom;
pos = (179,0);
},
{
name = top;
pos = (179,668);
},
{
name = topleft;
pos = (6,668);
}
);
layerId = "883DA8B6-3D8E-4908-9E9E-18B044E47F8D";
shapes = (
{
closed = 1;
nodes = (
(233,0,l),
(196,-22,o),
(171,-52,o),
(171,-94,cs),
(171,-140,o),
(206,-168,o),
(253,-168,cs),
(269,-168,o),
(281,-167,o),
(301,-159,c),
(301,-120,l),
(289,-126,o),
(277,-127,o),
(269,-127,cs),
(238,-127,o),
(216,-114,o),
(216,-84,cs),
(216,-50,o),
(248,-17,o),
(301,0,c),
(301,42,l),
(207,42,l),
(207,626,l),
(301,626,l),
(301,668,l),
(57,668,l),
(57,626,l),
(151,626,l),
(151,42,l),
(57,42,l),
(57,0,l)
);
}
);
width = 358;
},
{
anchors = (
{
name = bottom;
pos = (217,0);
},
{
name = top;
pos = (217,668);
},
{
name = topleft;
pos = (3,668);
}
);
layerId = "5C67A8D6-F0A6-408B-B629-E0E82D5C59F6";
shapes = (
{
closed = 1;
nodes = (
(226,0,l),
(190,-17,o),
(161,-45,o),
(161,-84,cs),
(161,-121,o),
(191,-176,o),
(312,-176,cs),
(338,-176,o),
(380,-171,o),
(394,-167,c),
(394,-86,l),
(387,-87,o),
(364,-95,o),
(343,-95,cs),
(322,-95,o),
(298,-88,o),
(298,-65,cs),
(298,-31,o),
(358,-2,o),
(394,0,c),
(394,124,l),
(302,124,l),
(302,544,l),
(394,544,l),
(394,668,l),
(40,668,l),
(40,544,l),
(132,544,l),
(132,124,l),
(40,124,l),
(40,0,l)
);
}
);
width = 434;
},
{
anchors = (
{
name = bottom;
pos = (196,0);
},
{
name = top;
pos = (196,668);
},
{
name = topleft;
pos = (9,668);
}
);
layerId = "78636F1B-F233-4E70-8C3B-7E1F8D8169C5";
shapes = (
{
closed = 1;
nodes = (
(232,0,l),
(199,-21,o),
(180,-51,o),
(180,-91,cs),
(180,-144,o),
(225,-173,o),
(278,-173,cs),
(297,-173,o),
(318,-169,o),
(337,-161,c),
(337,-107,l),
(324,-113,o),
(311,-115,o),
(299,-115,cs),
(271,-115,o),
(250,-102,o),
(250,-74,cs),
(250,-40,o),
(281,-20,o),
(337,0,c),
(337,70,l),
(243,70,l),
(243,598,l),
(337,598,l),
(337,668,l),
(55,668,l),
(55,598,l),
(149,598,l),
(149,70,l),
(55,70,l),
(55,0,l)
);
}
);
width = 392;
},
{
anchors = (
{
name = bottom;
pos = (216,0);
},
{
name = top;
pos = (216,668);
},
{
name = topleft;
pos = (7,668);
}
);
layerId = "77C32F3B-CDAD-439A-A41B-3F592148655B";
shapes = (
{
closed = 1;
nodes = (
(236,0,l),
(193,-18,o),
(167,-46,o),
(167,-85,cs),
(167,-123,o),
(201,-174,o),
(309,-174,cs),
(334,-174,o),
(373,-169,o),
(388,-164,c),
(388,-89,l),
(380,-91,o),
(359,-98,o),
(339,-98,cs),
(317,-98,o),
(293,-92,o),
(293,-68,cs),
(293,-34,o),
(349,-5,o),
(388,0,c),
(388,116,l),
(295,116,l),
(295,552,l),
(388,552,l),
(388,668,l),
(44,668,l),
(44,552,l),
(137,552,l),
(137,116,l),
(44,116,l),
(44,0,l)
);
}
);
width = 432;
}
);
metricLeft = I;
metricWidth = I;
unicode = 302;
},
{
glyphname = J;
kernLeft = J;
kernRight = U;
lastChange = "2024-11-01 12:02:53 +0000";
layers = (
{
anchors = (
{
name = bottom;
pos = (242,0);
},
{
name = top;
pos = (362,668);
}
);
layerId = "883DA8B6-3D8E-4908-9E9E-18B044E47F8D";
shapes = (
{
closed = 1;
nodes = (
(317,-12,o),
(390,52,o),
(390,183,cs),
(390,668,l),
(334,668,l),
(334,184,ls),
(334,58,o),
(256,36,o),
(208,36,cs),
(136,36,o),
(64,79,o),
(74,207,c),
(20,196,l),
(15,53,o),
(91,-12,o),
(208,-12,cs)
);
}
);
width = 472;
},
{
anchors = (
{
name = bottom;
pos = (285,0);
},
{
name = top;
pos = (446,668);
}
);
layerId = "5C67A8D6-F0A6-408B-B629-E0E82D5C59F6";
shapes = (
{
closed = 1;
nodes = (
(439,-12,o),
(531,93,o),
(531,264,cs),
(531,668,l),
(361,668,l),
(361,264,ls),
(361,160,o),
(329,122,o),
(262,122,cs),
(199,122,o),
(173,182,o),
(159,231,c),
(3,172,l),
(35,63,o),
(118,-12,o),
(261,-12,cs)
);
}
);
width = 585;
},
{
anchors = (
{
name = bottom;
pos = (255,0);
},
{
name = top;
pos = (387,668);
}
);
layerId = "78636F1B-F233-4E70-8C3B-7E1F8D8169C5";
shapes = (
{
closed = 1;
nodes = (
(355,-12,o),
(434,66,o),
(434,212,cs),
(434,668,l),
(340,668,l),
(340,213,ls),
(340,92,o),
(278,65,o),
(224,65,cs),
(157,65,o),
(99,113,o),
(102,214,c),
(15,189,l),
(21,56,o),
(99,-12,o),
(224,-12,cs)
);
}
);
width = 512;
},
{
anchors = (
{
name = bottom;
pos = (280,0);
},
{
name = top;
pos = (437,668);
}
);
layerId = "77C32F3B-CDAD-439A-A41B-3F592148655B";
shapes = (
{
closed = 1;
nodes = (
(426,-12,o),
(516,89,o),
(516,256,cs),
(516,668,l),
(358,668,l),
(358,256,ls),
(358,149,o),
(321,113,o),
(256,113,cs),
(192,113,o),
(161,171,o),
(150,228,c),
(5,175,l),
(33,62,o),
(115,-12,o),
(255,-12,cs)
);
}
);
width = 572;
}
);
metricRight = H;
unicode = 74;
},
{
glyphname = K;
kernLeft = H;
kernRight = K;
lastChange = "2024-11-01 12:02:53 +0000";
layers = (
{
anchors = (
{
name = bottom;
pos = (290,0);
},
{
name = top;
pos = (290,668);
}
);
layerId = "883DA8B6-3D8E-4908-9E9E-18B044E47F8D";
shapes = (
{
closed = 1;
nodes = (
(138,0,l),
(138,219,l),
(258,350,l),
(511,0,l),
(584,0,l),
(296,392,l),
(547,668,l),
(474,668,l),
(138,291,l),
(138,668,l),
(82,668,l),
(82,0,l)
);
}
);
width = 600;
},
{
anchors = (
{
name = bottom;
pos = (349,0);
},
{
name = top;
pos = (349,668);
}
);
layerId = "5C67A8D6-F0A6-408B-B629-E0E82D5C59F6";
shapes = (
{
closed = 1;
nodes = (
(224,0,l),
(224,195,l),
(286,263,l),
(475,0,l),
(671,0,l),
(395,380,l),
(661,668,l),
(454,668,l),
(224,416,l),
(224,668,l),
(54,668,l),
(54,0,l)
);
}
);
width = 681;
},
{
anchors = (
{
name = bottom;
pos = (316,0);
},
{
name = top;
pos = (316,668);
}
);
layerId = "78636F1B-F233-4E70-8C3B-7E1F8D8169C5";
shapes = (
{
closed = 1;
nodes = (
(172,0,l),
(172,210,l),
(272,320,l),
(504,0,l),
(619,0,l),
(335,389,l),
(590,668,l),
(473,668,l),
(172,332,l),
(172,668,l),
(78,668,l),
(78,0,l)
);
}
);
width = 631;
},
{
anchors = (
{
name = bottom;
pos = (342,0);
},
{
name = top;
pos = (342,668);
}
);
layerId = "77C32F3B-CDAD-439A-A41B-3F592148655B";
shapes = (
{
closed = 1;
nodes = (
(214,0,l),
(214,197,l),
(283,272,l),
(478,0,l),
(661,0,l),
(384,382,l),
(648,668,l),
(455,668,l),
(214,403,l),
(214,668,l),
(56,668,l),
(56,0,l)
);
}
);
width = 671;
}
);
metricLeft = H;
metricRight = V;
unicode = 75;
},
{
glyphname = L;
kernLeft = H;
kernRight = L;
lastChange = "2024-11-01 12:02:53 +0000";
layers = (
{
anchors = (
{
name = bottom;
pos = (255,0);
},
{
name = center;
pos = (153,330);
},
{
name = top;
pos = (255,668);
},
{
name = topright;
pos = (215,459);
}
);
layerId = "883DA8B6-3D8E-4908-9E9E-18B044E47F8D";
shapes = (
{
closed = 1;
nodes = (
(517,0,l),
(517,48,l),
(138,48,l),
(138,668,l),
(82,668,l),
(82,0,l)
);
}
);
width = 522;
},
{
anchors = (
{
name = bottom;
pos = (285,0);
},
{
name = center;
pos = (179,363);
},
{
name = top;
pos = (285,668);
},
{
name = topright;
pos = (268,459);
}
);
layerId = "5C67A8D6-F0A6-408B-B629-E0E82D5C59F6";
shapes = (
{
closed = 1;
nodes = (
(537,0,l),
(537,150,l),
(224,150,l),
(224,668,l),
(54,668,l),
(54,0,l)
);
}
);
width = 558;
},
{
anchors = (
{
name = bottom;
pos = (272,0);
},
{
name = center;
pos = (169,340);
},
{
name = top;
pos = (272,668);
},
{
name = topright;
pos = (239,459);
}
);
layerId = "78636F1B-F233-4E70-8C3B-7E1F8D8169C5";
shapes = (
{
closed = 1;
nodes = (
(531,0,l),
(531,81,l),
(172,81,l),
(172,668,l),
(78,668,l),
(78,0,l)
);
}
);
width = 541;
},
{
anchors = (
{
name = bottom;
pos = (281,0);
},
{
name = center;
pos = (176,359);
},
{
name = top;
pos = (281,668);
},
{
name = topright;
pos = (262,459);
}
);
layerId = "77C32F3B-CDAD-439A-A41B-3F592148655B";
shapes = (
{
closed = 1;
nodes = (
(534,0,l),
(534,139,l),
(214,139,l),
(214,668,l),
(56,668,l),
(56,0,l)
);
}
);
width = 554;
}
);
metricLeft = H;
unicode = 76;
},
{
glyphname = Lslash;
kernLeft = H;
kernRight = L;
lastChange = "2024-11-01 12:02:53 +0000";
layers = (
{
layerId = "883DA8B6-3D8E-4908-9E9E-18B044E47F8D";
shapes = (
{
closed = 1;
nodes = (
(547,0,l),
(547,48,l),
(168,48,l),
(168,293,l),
(370,411,l),
(370,466,l),
(168,348,l),
(168,668,l),
(112,668,l),
(112,316,l),
(-4,248,l),
(-4,193,l),
(112,261,l),
(112,0,l)
);
}
);
width = 552;
},
{
layerId = "5C67A8D6-F0A6-408B-B629-E0E82D5C59F6";
shapes = (
{
closed = 1;
nodes = (
(567,0,l),
(567,150,l),
(254,150,l),
(254,326,l),
(404,416,l),
(404,544,l),
(254,454,l),
(254,668,l),
(84,668,l),
(84,352,l),
(13,309,l),
(13,182,l),
(84,224,l),
(84,0,l)
);
}
);
width = 588;
},
{
layerId = "78636F1B-F233-4E70-8C3B-7E1F8D8169C5";
shapes = (
{
closed = 1;
nodes = (
(561,0,l),
(561,81,l),
(202,81,l),
(202,302,l),
(388,411,l),
(388,491,l),
(202,382,l),
(202,668,l),
(108,668,l),
(108,326,l),
(9,268,l),
(9,188,l),
(108,246,l),
(108,0,l)
);
}
);
width = 571;
},
{
layerId = "77C32F3B-CDAD-439A-A41B-3F592148655B";
shapes = (
{
closed = 1;
nodes = (
(564,0,l),
(564,139,l),
(244,139,l),
(244,322,l),
(400,415,l),
(400,535,l),
(244,442,l),
(244,668,l),
(86,668,l),
(86,347,l),
(11,302,l),
(11,182,l),
(86,227,l),
(86,0,l)
);
}
);
width = 584;
}
);
metricRight = L;
unicode = 321;
},
{
glyphname = M;
kernLeft = H;
kernRight = H;
lastChange = "2024-11-01 12:02:53 +0000";
layers = (
{
anchors = (
{
name = bottom;
pos = (387,0);
},
{
name = top;
pos = (387,668);
}
);
layerId = "883DA8B6-3D8E-4908-9E9E-18B044E47F8D";
shapes = (
{
closed = 1;
nodes = (
(138,0,l),
(138,620,l),
(359,0,l),
(417,0,l),
(636,620,l),
(636,0,l),
(692,0,l),
(692,668,l),
(595,668,l),
(388,64,l),
(179,668,l),
(82,668,l),
(82,0,l)
);
}
);
width = 774;
},
{
anchors = (
{
name = bottom;
pos = (439,0);
},
{
name = top;
pos = (439,668);
}
);
layerId = "5C67A8D6-F0A6-408B-B629-E0E82D5C59F6";
shapes = (
{
closed = 1;
nodes = (
(218,0,l),
(218,517,l),
(369,0,l),
(506,0,l),
(659,517,l),
(659,0,l),
(824,0,l),
(824,668,l),
(572,668,l),
(438,202,l),
(306,668,l),
(54,668,l),
(54,0,l)
);
}
);
width = 878;
},
{
anchors = (
{
name = bottom;
pos = (412,0);
},
{
name = top;
pos = (412,668);
}
);
layerId = "78636F1B-F233-4E70-8C3B-7E1F8D8169C5";
shapes = (
{
closed = 1;
nodes = (
(172,0,l),
(172,570,l),
(366,0,l),
(459,0,l),
(652,570,l),
(652,0,l),
(746,0,l),
(746,668,l),
(590,668,l),
(412,122,l),
(234,668,l),
(78,668,l),
(78,0,l)
);
}
);
width = 824;
},
{
anchors = (
{
name = bottom;
pos = (433,0);
},
{
name = top;
pos = (433,668);
}
);
layerId = "77C32F3B-CDAD-439A-A41B-3F592148655B";
shapes = (
{
closed = 1;
nodes = (
(209,0,l),
(209,525,l),
(367,0,l),
(497,0,l),
(656,525,l),
(656,0,l),
(810,0,l),
(810,668,l),
(574,668,l),
(433,189,l),
(294,668,l),
(56,668,l),
(56,0,l)
);
}
);
width = 866;
}
);
metricLeft = H;
metricRight = H;
unicode = 77;
},
{
glyphname = N;
kernLeft = H;
kernRight = H;
lastChange = "2024-11-01 12:02:53 +0000";
layers = (
{
anchors = (
{
name = bottom;
pos = (331,0);
},
{
name = top;
pos = (331,668);
}
);
layerId = "883DA8B6-3D8E-4908-9E9E-18B044E47F8D";
shapes = (
{
closed = 1;
nodes = (
(138,0,l),
(138,621,l),
(490,0,l),
(579,0,l),
(579,668,l),
(523,668,l),
(523,51,l),
(173,668,l),
(82,668,l),
(82,0,l)
);
}
);
width = 661;
},
{
anchors = (
{
name = bottom;
pos = (367,0);
},
{
name = top;
pos = (367,668);
}
);
layerId = "5C67A8D6-F0A6-408B-B629-E0E82D5C59F6";
shapes = (
{
closed = 1;
nodes = (
(217,0,l),
(217,458,l),
(466,0,l),
(679,0,l),
(679,668,l),
(516,668,l),
(516,209,l),
(266,668,l),
(54,668,l),
(54,0,l)
);
}
);
width = 733;
},
{
anchors = (
{
name = bottom;
pos = (347,0);
},
{
name = top;
pos = (347,668);
}
);
layerId = "78636F1B-F233-4E70-8C3B-7E1F8D8169C5";
shapes = (
{
closed = 1;
nodes = (
(172,0,l),
(172,571,l),
(477,0,l),
(615,0,l),
(615,668,l),
(521,668,l),
(521,100,l),
(217,668,l),
(78,668,l),
(78,0,l)
);
}
);
width = 693;
},
{
anchors = (
{
name = bottom;
pos = (362,0);
},
{
name = top;
pos = (362,668);
}
);
layerId = "77C32F3B-CDAD-439A-A41B-3F592148655B";
shapes = (
{
closed = 1;
nodes = (
(208,0,l),
(208,476,l),
(466,0,l),
(667,0,l),
(667,668,l),
(515,668,l),
(515,192,l),
(257,668,l),
(56,668,l),
(56,0,l)
);
}
);
width = 723;
}
);
metricLeft = H;
metricRight = H;
unicode = 78;
},
{
glyphname = O;
kernLeft = O;
kernRight = O;
lastChange = "2024-11-01 12:02:53 +0000";
layers = (
{
anchors = (
{
name = bottom;
pos = (343,0);
},
{
name = center;
pos = (343,334);
},
{
name = ogonek;
pos = (626,10);
},
{
name = top;
pos = (343,668);
},
{
name = topleft;
pos = (7,668);
},
{
name = topright;
pos = (677,668);
}
);
layerId = "883DA8B6-3D8E-4908-9E9E-18B044E47F8D";
shapes = (
{
closed = 1;
nodes = (
(526,-12,o),
(638,136,o),
(638,334,cs),
(638,532,o),
(526,680,o),
(342,680,cs),
(158,680,o),
(46,532,o),
(46,334,cs),
(46,136,o),
(158,-12,o),
(342,-12,cs)
);
},
{
closed = 1;
nodes = (
(208,36,o),
(103,143,o),
(103,334,cs),
(103,525,o),
(208,632,o),
(342,632,cs),
(476,632,o),
(581,525,o),
(581,334,cs),
(581,143,o),
(476,36,o),
(342,36,cs)
);
}
);
width = 684;
},
{
anchors = (
{
name = bottom;
pos = (378,0);
},
{
name = center;
pos = (378,334);
},
{
name = ogonek;
pos = (683,10);
},
{
name = top;
pos = (378,668);
},
{
name = topleft;
pos = (16,668);
},
{
name = topright;
pos = (740,668);
}
);
layerId = "5C67A8D6-F0A6-408B-B629-E0E82D5C59F6";
shapes = (
{
closed = 1;
nodes = (
(584,-12,o),
(728,125,o),
(728,334,cs),
(728,543,o),
(584,680,o),
(378,680,cs),
(172,680,o),
(28,543,o),
(28,334,cs),
(28,125,o),
(172,-12,o),
(378,-12,cs)
);
},
{
closed = 1;
nodes = (
(286,128,o),
(210,198,o),
(210,334,cs),
(210,470,o),
(286,540,o),
(378,540,cs),
(470,540,o),
(546,470,o),
(546,334,cs),
(546,198,o),
(470,128,o),
(378,128,cs)
);
}
);
width = 756;
},
{
anchors = (
{
name = bottom;
pos = (358,0);
},
{
name = center;
pos = (358,334);
},
{
name = ogonek;
pos = (648,10);
},
{
name = top;
pos = (358,668);
},
{
name = topleft;
pos = (14,668);
},
{
name = topright;
pos = (701,668);
}
);
layerId = "78636F1B-F233-4E70-8C3B-7E1F8D8169C5";
shapes = (
{
closed = 1;
nodes = (
(549,-12,o),
(670,132,o),
(670,334,cs),
(670,536,o),
(549,680,o),
(357,680,cs),
(165,680,o),
(44,536,o),
(44,334,cs),
(44,132,o),
(165,-12,o),
(357,-12,cs)
);
},
{
closed = 1;
nodes = (
(236,67,o),
(140,161,o),
(140,334,cs),
(140,507,o),
(236,601,o),
(357,601,cs),
(478,601,o),
(574,507,o),
(574,334,cs),
(574,161,o),
(478,67,o),
(357,67,cs)
);
}
);
width = 714;
},
{
anchors = (
{
name = bottom;
pos = (377,0);
},
{
name = center;
pos = (377,334);
},
{
name = ogonek;
pos = (680,10);
},
{
name = top;
pos = (377,668);
},
{
name = topleft;
pos = (18,668);
},
{
name = topright;
pos = (736,668);
}
);
layerId = "77C32F3B-CDAD-439A-A41B-3F592148655B";
shapes = (
{
closed = 1;
nodes = (
(581,-12,o),
(724,126,o),
(724,334,cs),
(724,542,o),
(581,680,o),
(377,680,cs),
(173,680,o),
(30,542,o),
(30,334,cs),
(30,126,o),
(173,-12,o),
(377,-12,cs)
);
},
{
closed = 1;
nodes = (
(280,118,o),
(198,192,o),
(198,334,cs),
(198,476,o),
(280,550,o),
(377,550,cs),
(474,550,o),
(556,476,o),
(556,334,cs),
(556,192,o),
(474,118,o),
(377,118,cs)
);
}
);
width = 754;
}
);
metricRight = "=|";
unicode = 79;
},
{
glyphname = Oslash;
kernLeft = O;
kernRight = O;
lastChange = "2024-11-01 12:02:53 +0000";
layers = (
{
anchors = (
{
name = bottom;
pos = (343,0);
},
{
name = center;
pos = (343,334);
},
{
name = top;
pos = (343,668);
},
{
name = topleft;
pos = (7,668);
},
{
name = topright;
pos = (677,668);
}
);
layerId = "883DA8B6-3D8E-4908-9E9E-18B044E47F8D";
shapes = (
{
closed = 1;
nodes = (
(526,-12,o),
(638,136,o),
(638,334,cs),
(638,427,o),
(613,509,o),
(568,570,c),
(633,646,l),
(603,670,l),
(543,599,l),
(493,650,o),
(425,680,o),
(342,680,cs),
(158,680,o),
(46,532,o),
(46,334,cs),
(46,240,o),
(71,158,o),
(117,97,c),
(53,22,l),
(82,-3,l),
(142,68,l),
(192,18,o),
(260,-12,o),
(342,-12,cs)
);
},
{
closed = 1;
nodes = (
(277,36,o),
(219,61,o),
(177,108,c),
(532,527,l),
(563,478,o),
(581,413,o),
(581,334,cs),
(581,143,o),
(476,36,o),
(342,36,cs)
);
},
{
closed = 1;
nodes = (
(103,525,o),
(208,632,o),
(342,632,cs),
(407,632,o),
(466,607,o),
(508,559,c),
(153,140,l),
(121,189,o),
(103,254,o),
(103,334,cs)
);
}
);
width = 684;
},
{
anchors = (
{
name = bottom;
pos = (378,0);
},
{
name = center;
pos = (378,334);
},
{
name = top;
pos = (378,668);
},
{
name = topleft;
pos = (16,668);
},
{
name = topright;
pos = (740,668);
}
);
layerId = "5C67A8D6-F0A6-408B-B629-E0E82D5C59F6";
shapes = (
{
closed = 1;
nodes = (
(584,-12,o),
(728,125,o),
(728,334,cs),
(728,434,o),
(695,517,o),
(639,577,c),
(684,629,l),
(624,680,l),
(578,626,l),
(523,661,o),
(455,680,o),
(378,680,cs),
(172,680,o),
(28,543,o),
(28,334,cs),
(28,235,o),
(61,151,o),
(117,91,c),
(71,38,l),
(130,-13,l),
(177,42,l),
(233,7,o),
(301,-12,o),
(378,-12,cs)
);
},
{
closed = 1;
nodes = (
(342,128,o),
(308,139,o),
(280,161,c),
(525,444,l),
(538,414,o),
(546,378,o),
(546,334,cs),
(546,198,o),
(470,128,o),
(378,128,cs)
);
},
{
closed = 1;
nodes = (
(210,470,o),
(286,540,o),
(378,540,cs),
(414,540,o),
(448,529,o),
(476,508,c),
(231,224,l),
(218,254,o),
(210,291,o),
(210,334,cs)
);
}
);
width = 756;
},
{
anchors = (
{
name = bottom;
pos = (358,0);
},
{
name = center;
pos = (358,334);
},
{
name = top;
pos = (358,668);
},
{
name = topleft;
pos = (14,668);
},
{
name = topright;
pos = (701,668);
}
);
guides = (
{
angle = 90;
pos = (44,334);
},
{
angle = 90;
pos = (63,334);
},
{
angle = 90;
pos = (651,334);
},
{
angle = 90;
pos = (670,334);
}
);
layerId = "78636F1B-F233-4E70-8C3B-7E1F8D8169C5";
shapes = (
{
closed = 1;
nodes = (
(549,-12,o),
(670,132,o),
(670,334,cs),
(670,430,o),
(643,512,o),
(594,573,c),
(652,641,l),
(613,673,l),
(559,609,l),
(507,654,o),
(438,680,o),
(357,680,cs),
(165,680,o),
(44,536,o),
(44,334,cs),
(44,238,o),
(71,156,o),
(120,95,c),
(62,27,l),
(100,-6,l),
(155,59,l),
(207,14,o),
(276,-12,o),
(357,-12,cs)
);
},
{
closed = 1;
nodes = (
(301,67,o),
(251,87,o),
(212,126,c),
(533,502,l),
(559,459,o),
(574,403,o),
(574,334,cs),
(574,161,o),
(478,67,o),
(357,67,cs)
);
},
{
closed = 1;
nodes = (
(140,507,o),
(236,601,o),
(357,601,cs),
(413,601,o),
(463,581,o),
(502,542,c),
(181,166,l),
(155,209,o),
(140,265,o),
(140,334,cs)
);
}
);
width = 714;
},
{
anchors = (
{
name = bottom;
pos = (377,0);
},
{
name = center;
pos = (377,334);
},
{
name = top;
pos = (377,668);
},
{
name = topleft;
pos = (18,668);
},
{
name = topright;
pos = (736,668);
}
);
guides = (
{
angle = 90;
pos = (30,334);
},
{
angle = 90;
pos = (72,334);
},
{
angle = 90;
pos = (682,334);
},
{
angle = 90;
pos = (724,334);
}
);
layerId = "77C32F3B-CDAD-439A-A41B-3F592148655B";
shapes = (
{
closed = 1;
nodes = (
(581,-12,o),
(724,126,o),
(724,334,cs),
(724,433,o),
(691,517,o),
(635,577,c),
(682,631,l),
(626,679,l),
(579,624,l),
(523,660,o),
(455,680,o),
(377,680,cs),
(173,680,o),
(30,542,o),
(30,334,cs),
(30,234,o),
(63,151,o),
(119,91,c),
(72,36,l),
(128,-12,l),
(176,44,l),
(231,8,o),
(300,-12,o),
(377,-12,cs)
);
},
{
closed = 1;
nodes = (
(338,118,o),
(301,130,o),
(271,154,c),
(530,455,l),
(547,423,o),
(556,382,o),
(556,334,cs),
(556,192,o),
(474,118,o),
(377,118,cs)
);
},
{
closed = 1;
nodes = (
(198,476,o),
(280,550,o),
(377,550,cs),
(416,550,o),
(453,538,o),
(483,514,c),
(224,212,l),
(208,245,o),
(198,285,o),
(198,334,cs)
);
}
);
width = 754;
}
);
metricLeft = O;
metricRight = O;
unicode = 216;
},
{
glyphname = OE;
kernLeft = O;
kernRight = E;
lastChange = "2024-11-01 12:02:53 +0000";
layers = (
{
anchors = (
{
name = bottom;
pos = (500,0);
},
{
name = top;
pos = (500,668);
}
);
layerId = "883DA8B6-3D8E-4908-9E9E-18B044E47F8D";
shapes = (
{
closed = 1;
nodes = (
(434,-12,o),
(511,39,o),
(555,126,c),
(555,0,l),
(945,0,l),
(945,50,l),
(611,50,l),
(611,318,l),
(875,318,l),
(875,369,l),
(611,369,l),
(611,618,l),
(941,618,l),
(941,668,l),
(555,668,l),
(555,544,l),
(511,630,o),
(434,680,o),
(332,680,cs),
(152,680,o),
(46,533,o),
(46,336,cs),
(46,137,o),
(152,-12,o),
(332,-12,cs)
);
},
{
closed = 1;
nodes = (
(202,40,o),
(104,146,o),
(104,336,cs),
(104,525,o),
(202,628,o),
(329,628,cs),
(458,628,o),
(555,525,o),
(555,336,cs),
(555,146,o),
(458,40,o),
(329,40,cs)
);
}
);
width = 985;
},
{
anchors = (
{
name = bottom;
pos = (522,0);
},
{
name = top;
pos = (522,668);
}
);
layerId = "5C67A8D6-F0A6-408B-B629-E0E82D5C59F6";
shapes = (
{
closed = 1;
nodes = (
(414,-12,o),
(467,2,o),
(512,29,c),
(512,0,l),
(1000,0,l),
(1000,150,l),
(670,150,l),
(670,269,l),
(852,269,l),
(852,418,l),
(670,418,l),
(670,518,l),
(996,518,l),
(996,668,l),
(512,668,l),
(512,639,l),
(467,666,o),
(414,680,o),
(355,680,cs),
(165,680,o),
(28,543,o),
(28,334,cs),
(28,125,o),
(165,-12,o),
(355,-12,cs)
);
},
{
closed = 1;
nodes = (
(280,128,o),
(210,181,o),
(210,334,cs),
(210,487,o),
(280,540,o),
(361,540,cs),
(442,540,o),
(512,487,o),
(512,334,cs),
(512,181,o),
(442,128,o),
(361,128,cs)
);
}
);
width = 1034;
},
{
anchors = (
{
name = bottom;
pos = (510,0);
},
{
name = top;
pos = (510,668);
}
);
layerId = "78636F1B-F233-4E70-8C3B-7E1F8D8169C5";
shapes = (
{
closed = 1;
nodes = (
(427,-12,o),
(497,22,o),
(545,82,c),
(545,0,l),
(968,0,l),
(968,81,l),
(635,81,l),
(635,303,l),
(874,303,l),
(874,384,l),
(635,384,l),
(635,587,l),
(964,587,l),
(964,668,l),
(545,668,l),
(545,587,l),
(497,647,o),
(427,680,o),
(342,680,cs),
(159,680,o),
(44,536,o),
(44,335,cs),
(44,133,o),
(159,-12,o),
(342,-12,cs)
);
},
{
closed = 1;
nodes = (
(229,67,o),
(140,157,o),
(140,335,cs),
(140,513,o),
(229,601,o),
(342,601,cs),
(456,601,o),
(545,513,o),
(545,335,cs),
(545,157,o),
(456,67,o),
(342,67,cs)
);
}
);
width = 1006;
},
{
anchors = (
{
name = bottom;
pos = (519,0);
},
{
name = top;
pos = (519,668);
}
);
layerId = "77C32F3B-CDAD-439A-A41B-3F592148655B";
shapes = (
{
closed = 1;
nodes = (
(414,-12,o),
(470,4,o),
(516,35,c),
(516,0,l),
(994,0,l),
(994,139,l),
(664,139,l),
(664,274,l),
(855,274,l),
(855,413,l),
(664,413,l),
(664,529,l),
(990,529,l),
(990,668,l),
(516,668,l),
(516,633,l),
(470,664,o),
(414,680,o),
(352,680,cs),
(163,680,o),
(30,542,o),
(30,334,cs),
(30,126,o),
(163,-12,o),
(352,-12,cs)
);
},
{
closed = 1;
nodes = (
(271,118,o),
(198,177,o),
(198,334,cs),
(198,491,o),
(271,550,o),
(357,550,cs),
(443,550,o),
(516,491,o),
(516,334,cs),
(516,177,o),
(443,118,o),
(357,118,cs)
);
}
);
width = 1028;
}
);
metricLeft = O;
metricRight = E;
unicode = 338;
},
{
glyphname = P;
kernLeft = H;
kernRight = P;
lastChange = "2024-11-01 12:02:53 +0000";
layers = (
{
anchors = (
{
name = bottom;
pos = (280,0);
},
{
name = top;
pos = (280,668);
}
);
layerId = "883DA8B6-3D8E-4908-9E9E-18B044E47F8D";
shapes = (
{
closed = 1;
nodes = (
(138,0,l),
(138,285,l),
(295,285,ls),
(437,285,o),
(528,348,o),
(528,477,cs),
(528,606,o),
(437,668,o),
(295,668,cs),
(82,668,l),
(82,0,l)
);
},
{
closed = 1;
nodes = (
(138,620,l),
(289,620,ls),
(399,620,o),
(471,584,o),
(471,477,cs),
(471,369,o),
(399,333,o),
(289,333,cs),
(138,333,l)
);
}
);
width = 559;
},
{
anchors = (
{
name = bottom;
pos = (336,0);
},
{
name = top;
pos = (336,668);
}
);
layerId = "5C67A8D6-F0A6-408B-B629-E0E82D5C59F6";
shapes = (
{
closed = 1;
nodes = (
(224,0,l),
(224,223,l),
(361,223,ls),
(505,223,o),
(629,289,o),
(629,446,cs),
(629,602,o),
(505,668,o),
(361,668,cs),
(54,668,l),
(54,0,l)
);
},
{
closed = 1;
nodes = (
(224,524,l),
(358,524,ls),
(409,524,o),
(450,501,o),
(450,446,cs),
(450,390,o),
(409,367,o),
(358,367,cs),
(224,367,l)
);
}
);
width = 647;
},
{
anchors = (
{
name = bottom;
pos = (303,0);
},
{
name = top;
pos = (303,668);
}
);
layerId = "78636F1B-F233-4E70-8C3B-7E1F8D8169C5";
shapes = (
{
closed = 1;
nodes = (
(172,0,l),
(172,266,l),
(321,266,ls),
(464,266,o),
(565,328,o),
(565,467,cs),
(565,606,o),
(464,668,o),
(321,668,cs),
(78,668,l),
(78,0,l)
);
},
{
closed = 1;
nodes = (
(172,587,l),
(316,587,ls),
(407,587,o),
(469,556,o),
(469,467,cs),
(469,378,o),
(407,347,o),
(316,347,cs),
(172,347,l)
);
}
);
width = 592;
},
{
anchors = (
{
name = bottom;
pos = (329,0);
},
{
name = top;
pos = (329,668);
}
);
layerId = "77C32F3B-CDAD-439A-A41B-3F592148655B";
shapes = (
{
closed = 1;
nodes = (
(214,0,l),
(214,230,l),
(353,230,ls),
(497,230,o),
(617,295,o),
(617,449,cs),
(617,603,o),
(497,668,o),
(353,668,cs),
(56,668,l),
(56,0,l)
);
},
{
closed = 1;
nodes = (
(214,534,l),
(350,534,ls),
(407,534,o),
(451,510,o),
(451,449,cs),
(451,388,o),
(407,364,o),
(350,364,cs),
(214,364,l)
);
}
);
width = 637;
}
);
metricLeft = H;
unicode = 80;
},
{
glyphname = Thorn;
kernLeft = H;
kernRight = Thorn;
lastChange = "2024-11-01 12:02:53 +0000";
layers = (
{
anchors = (
{
name = bottom;
pos = (261,0);
},
{
name = top;
pos = (261,668);
}
);
layerId = "883DA8B6-3D8E-4908-9E9E-18B044E47F8D";
shapes = (
{
closed = 1;
nodes = (
(138,0,l),
(138,148,l),
(295,148,ls),
(437,148,o),
(528,211,o),
(528,340,cs),
(528,469,o),
(437,531,o),
(295,531,cs),
(138,531,l),
(138,668,l),
(82,668,l),
(82,0,l)
);
},
{
closed = 1;
nodes = (
(138,483,l),
(289,483,ls),
(399,483,o),
(471,447,o),
(471,340,cs),
(471,232,o),
(399,196,o),
(289,196,cs),
(138,196,l)
);
}
);
width = 559;
},
{
anchors = (
{
name = bottom;
pos = (332,0);
},
{
name = top;
pos = (332,668);
}
);
layerId = "5C67A8D6-F0A6-408B-B629-E0E82D5C59F6";
shapes = (
{
closed = 1;
nodes = (
(224,0,l),
(224,119,l),
(361,119,ls),
(505,119,o),
(629,184,o),
(629,341,cs),
(629,498,o),
(505,564,o),
(361,564,cs),
(224,564,l),
(224,668,l),
(54,668,l),
(54,0,l)
);
},
{
closed = 1;
nodes = (
(224,420,l),
(358,420,ls),
(409,420,o),
(450,397,o),
(450,341,cs),
(450,285,o),
(409,263,o),
(358,263,cs),
(224,263,l)
);
}
);
width = 647;
},
{
anchors = (
{
name = bottom;
pos = (290,0);
},
{
name = top;
pos = (290,668);
}
);
layerId = "78636F1B-F233-4E70-8C3B-7E1F8D8169C5";
shapes = (
{
closed = 1;
nodes = (
(172,0,l),
(172,139,l),
(321,139,ls),
(464,139,o),
(565,201,o),
(565,340,cs),
(565,479,o),
(464,541,o),
(321,541,cs),
(172,541,l),
(172,668,l),
(78,668,l),
(78,0,l)
);
},
{
closed = 1;
nodes = (
(172,460,l),
(316,460,ls),
(407,460,o),
(469,429,o),
(469,340,cs),
(469,251,o),
(407,220,o),
(316,220,cs),
(172,220,l)
);
}
);
width = 592;
},
{
anchors = (
{
name = bottom;
pos = (324,0);
},
{
name = top;
pos = (324,668);
}
);
layerId = "77C32F3B-CDAD-439A-A41B-3F592148655B";
shapes = (
{
closed = 1;
nodes = (
(214,0,l),
(214,122,l),
(353,122,ls),
(497,122,o),
(617,187,o),
(617,341,cs),
(617,495,o),
(497,560,o),
(353,560,cs),
(214,560,l),
(214,668,l),
(56,668,l),
(56,0,l)
);
},
{
closed = 1;
nodes = (
(214,426,l),
(350,426,ls),
(407,426,o),
(451,402,o),
(451,341,cs),
(451,280,o),
(407,256,o),
(350,256,cs),
(214,256,l)
);
}
);
width = 637;
}
);
metricLeft = H;
metricRight = P;
unicode = 222;
},
{
glyphname = Q;
kernLeft = O;
kernRight = O;
lastChange = "2024-11-01 12:02:53 +0000";
layers = (
{
layerId = "883DA8B6-3D8E-4908-9E9E-18B044E47F8D";
shapes = (
{
closed = 1;
nodes = (
(427,-12,o),
(497,20,o),
(548,74,c),
(667,-38,l),
(703,-1,l),
(580,115,l),
(618,174,o),
(638,249,o),
(638,334,cs),
(638,532,o),
(526,680,o),
(342,680,cs),
(158,680,o),
(46,532,o),
(46,334,cs),
(46,136,o),
(158,-12,o),
(342,-12,cs)
);
},
{
closed = 1;
nodes = (
(208,36,o),
(103,143,o),
(103,334,cs),
(103,525,o),
(208,632,o),
(342,632,cs),
(476,632,o),
(581,525,o),
(581,334,cs),
(581,261,o),
(566,200,o),
(539,153,c),
(364,318,l),
(328,280,l),
(509,110,l),
(466,62,o),
(408,36,o),
(342,36,cs)
);
}
);
width = 694;
},
{
layerId = "5C67A8D6-F0A6-408B-B629-E0E82D5C59F6";
shapes = (
{
closed = 1;
nodes = (
(457,-12,o),
(527,8,o),
(583,45,c),
(691,-57,l),
(778,36,l),
(673,135,l),
(708,189,o),
(728,257,o),
(728,334,cs),
(728,543,o),
(584,680,o),
(378,680,cs),
(172,680,o),
(28,543,o),
(28,334,cs),
(28,125,o),
(172,-12,o),
(378,-12,cs)
);
},
{
closed = 1;
nodes = (
(286,128,o),
(210,198,o),
(210,334,cs),
(210,470,o),
(286,540,o),
(378,540,cs),
(470,540,o),
(546,470,o),
(546,334,cs),
(546,307,o),
(543,283,o),
(538,262,c),
(418,374,l),
(331,283,l),
(467,154,l),
(441,137,o),
(411,128,o),
(378,128,cs)
);
}
);
width = 766;
},
{
layerId = "78636F1B-F233-4E70-8C3B-7E1F8D8169C5";
shapes = (
{
closed = 1;
nodes = (
(442,-12,o),
(514,17,o),
(567,66,c),
(684,-44,l),
(746,22,l),
(623,138,l),
(653,192,o),
(670,259,o),
(670,334,cs),
(670,536,o),
(549,680,o),
(357,680,cs),
(165,680,o),
(44,536,o),
(44,334,cs),
(44,132,o),
(165,-12,o),
(357,-12,cs)
);
},
{
closed = 1;
nodes = (
(236,67,o),
(140,161,o),
(140,334,cs),
(140,507,o),
(236,601,o),
(357,601,cs),
(478,601,o),
(574,507,o),
(574,334,cs),
(574,284,o),
(566,241,o),
(552,204,c),
(386,360,l),
(324,294,l),
(502,126,l),
(464,87,o),
(413,67,o),
(357,67,cs)
);
}
);
width = 724;
},
{
layerId = "77C32F3B-CDAD-439A-A41B-3F592148655B";
shapes = (
{
closed = 1;
nodes = (
(457,-12,o),
(527,9,o),
(584,47,c),
(692,-55,l),
(775,34,l),
(669,134,l),
(704,189,o),
(724,256,o),
(724,334,cs),
(724,542,o),
(581,680,o),
(377,680,cs),
(173,680,o),
(30,542,o),
(30,334,cs),
(30,126,o),
(173,-12,o),
(377,-12,cs)
);
},
{
closed = 1;
nodes = (
(280,118,o),
(198,192,o),
(198,334,cs),
(198,476,o),
(280,550,o),
(377,550,cs),
(474,550,o),
(556,476,o),
(556,334,cs),
(556,303,o),
(552,275,o),
(545,250,c),
(415,372,l),
(332,285,l),
(476,149,l),
(448,128,o),
(413,118,o),
(377,118,cs)
);
}
);
width = 764;
}
);
metricLeft = O;
unicode = 81;
},
{
glyphname = R;
kernLeft = H;
kernRight = R;
lastChange = "2024-11-01 12:02:53 +0000";
layers = (
{
anchors = (
{
name = bottom;
pos = (285,0);
},
{
name = top;
pos = (265,668);
}
);
layerId = "883DA8B6-3D8E-4908-9E9E-18B044E47F8D";
shapes = (
{
closed = 1;
nodes = (
(138,0,l),
(138,291,l),
(263,291,l),
(476,0,l),
(547,0,l),
(328,294,l),
(328,294,l),
(452,300,o),
(536,358,o),
(536,479,cs),
(536,608,o),
(445,668,o),
(308,668,cs),
(82,668,l),
(82,0,l)
);
},
{
closed = 1;
nodes = (
(138,620,l),
(305,620,ls),
(404,620,o),
(479,580,o),
(479,479,cs),
(479,379,o),
(404,339,o),
(305,339,cs),
(138,339,l)
);
}
);
width = 583;
},
{
anchors = (
{
name = bottom;
pos = (347,0);
},
{
name = top;
pos = (325,668);
}
);
layerId = "5C67A8D6-F0A6-408B-B629-E0E82D5C59F6";
shapes = (
{
closed = 1;
nodes = (
(224,0,l),
(224,245,l),
(292,245,l),
(463,0,l),
(661,0,l),
(474,260,l),
(474,260,l),
(563,285,o),
(627,347,o),
(627,457,cs),
(627,606,o),
(508,668,o),
(370,668,cs),
(54,668,l),
(54,0,l)
);
},
{
closed = 1;
nodes = (
(224,524,l),
(360,524,ls),
(411,524,o),
(448,505,o),
(448,457,cs),
(448,408,o),
(411,389,o),
(360,389,cs),
(224,389,l)
);
}
);
width = 668;
},
{
anchors = (
{
name = bottom;
pos = (309,0);
},
{
name = top;
pos = (296,668);
}
);
layerId = "78636F1B-F233-4E70-8C3B-7E1F8D8169C5";
shapes = (
{
closed = 1;
nodes = (
(172,0,l),
(172,277,l),
(277,277,l),
(474,0,l),
(588,0,l),
(383,283,l),
(383,283,l),
(494,298,o),
(569,357,o),
(569,472,cs),
(569,607,o),
(468,668,o),
(325,668,cs),
(78,668,l),
(78,0,l)
);
},
{
closed = 1;
nodes = (
(172,587,l),
(327,587,ls),
(411,587,o),
(473,557,o),
(473,472,cs),
(473,388,o),
(411,358,o),
(327,358,cs),
(172,358,l)
);
}
);
width = 614;
},
{
anchors = (
{
name = bottom;
pos = (339,0);
},
{
name = top;
pos = (339,668);
}
);
layerId = "77C32F3B-CDAD-439A-A41B-3F592148655B";
shapes = (
{
closed = 1;
nodes = (
(214,0,l),
(214,250,l),
(288,250,l),
(463,0,l),
(648,0,l),
(458,264,l),
(458,264,l),
(550,287,o),
(616,349,o),
(616,459,cs),
(616,606,o),
(500,668,o),
(361,668,cs),
(56,668,l),
(56,0,l)
);
},
{
closed = 1;
nodes = (
(214,534,l),
(353,534,ls),
(409,534,o),
(450,513,o),
(450,459,cs),
(450,405,o),
(409,384,o),
(353,384,cs),
(214,384,l)
);
}
);
width = 658;
}
);
metricLeft = H;
unicode = 82;
},
{
glyphname = S;
kernLeft = S;
kernRight = S;
lastChange = "2024-11-01 12:02:53 +0000";
layers = (
{
anchors = (
{
name = bottom;
pos = (290,0);
},
{
name = top;
pos = (290,668);
}
);
layerId = "883DA8B6-3D8E-4908-9E9E-18B044E47F8D";
shapes = (
{
closed = 1;
nodes = (
(420,-12,o),
(534,62,o),
(534,181,cs),
(534,296,o),
(451,337,o),
(338,365,cs),
(242,389,ls),
(176,405,o),
(120,439,o),
(120,503,cs),
(120,585,o),
(192,632,o),
(290,632,cs),
(350,632,o),
(422,602,o),
(452,545,c),
(507,566,l),
(466,644,o),
(379,680,o),
(289,680,cs),
(159,680,o),
(63,605,o),
(63,503,cs),
(63,405,o),
(134,361,o),
(230,337,cs),
(325,313,ls),
(443,283,o),
(477,245,o),
(477,184,cs),
(477,87,o),
(395,36,o),
(289,36,cs),
(208,36,o),
(126,74,o),
(101,160,c),
(47,140,l),
(78,32,o),
(194,-12,o),
(285,-12,cs)
);
}
);
width = 580;
},
{
anchors = (
{
name = bottom;
pos = (309,0);
},
{
name = top;
pos = (309,668);
}
);
layerId = "5C67A8D6-F0A6-408B-B629-E0E82D5C59F6";
shapes = (
{
closed = 1;
nodes = (
(463,-12,o),
(598,68,o),
(598,213,cs),
(598,330,o),
(514,377,o),
(366,407,cs),
(277,425,ls),
(228,434,o),
(205,456,o),
(205,485,cs),
(205,522,o),
(243,544,o),
(306,544,cs),
(369,544,o),
(412,519,o),
(429,475,c),
(582,531,l),
(540,637,o),
(432,680,o),
(322,680,cs),
(188,680,o),
(35,617,o),
(35,469,cs),
(35,362,o),
(117,302,o),
(239,279,cs),
(318,264,ls),
(392,250,o),
(428,233,o),
(428,191,cs),
(428,139,o),
(374,124,o),
(318,124,cs),
(242,124,o),
(188,160,o),
(174,215,c),
(19,159,l),
(61,52,o),
(161,-12,o),
(314,-12,cs)
);
}
);
width = 618;
},
{
anchors = (
{
name = bottom;
pos = (296,0);
},
{
name = top;
pos = (296,668);
}
);
layerId = "78636F1B-F233-4E70-8C3B-7E1F8D8169C5";
shapes = (
{
closed = 1;
nodes = (
(433,-12,o),
(554,60,o),
(554,187,cs),
(554,305,o),
(473,350,o),
(346,380,cs),
(252,402,ls),
(191,416,o),
(148,444,o),
(148,497,cs),
(148,567,o),
(220,601,o),
(295,601,cs),
(356,601,o),
(418,575,o),
(444,524,c),
(530,555,l),
(489,641,o),
(395,680,o),
(299,680,cs),
(161,680,o),
(54,603,o),
(54,494,cs),
(54,394,o),
(125,342,o),
(233,317,cs),
(323,296,ls),
(430,271,o),
(460,241,o),
(460,186,cs),
(460,106,o),
(385,67,o),
(298,67,cs),
(225,67,o),
(146,103,o),
(124,177,c),
(38,146,l),
(73,38,o),
(184,-12,o),
(294,-12,cs)
);
}
);
width = 592;
},
{
anchors = (
{
name = bottom;
pos = (307,0);
},
{
name = top;
pos = (307,668);
}
);
layerId = "77C32F3B-CDAD-439A-A41B-3F592148655B";
shapes = (
{
closed = 1;
nodes = (
(458,-12,o),
(591,67,o),
(591,209,cs),
(591,337,o),
(491,377,o),
(363,403,cs),
(273,421,ls),
(222,431,o),
(196,454,o),
(196,487,cs),
(196,529,o),
(239,553,o),
(304,553,cs),
(367,553,o),
(413,528,o),
(431,483,c),
(574,535,l),
(532,638,o),
(426,680,o),
(318,680,cs),
(164,680,o),
(38,603,o),
(38,473,cs),
(38,371,o),
(110,310,o),
(238,285,cs),
(319,269,ls),
(398,253,o),
(433,234,o),
(433,190,cs),
(433,134,o),
(376,115,o),
(315,115,cs),
(239,115,o),
(181,151,o),
(166,209,c),
(22,157,l),
(63,50,o),
(165,-12,o),
(311,-12,cs)
);
}
);
width = 614;
}
);
unicode = 83;
},
{
glyphname = Scedilla;
kernLeft = S;
kernRight = S;
lastChange = "2024-11-01 12:02:53 +0000";
layers = (
{
anchors = (
{
name = top;
pos = (290,668);
}
);
layerId = "883DA8B6-3D8E-4908-9E9E-18B044E47F8D";
shapes = (
{
closed = 1;
nodes = (
(345,-177,o),
(369,-127,o),
(369,-99,cs),
(369,-71,o),
(348,-44,o),
(307,-44,cs),
(301,-44,o),
(289,-45,o),
(276,-48,c),
(300,-12,l),
(428,-7,o),
(534,66,o),
(534,181,cs),
(534,296,o),
(451,337,o),
(338,365,cs),
(242,389,ls),
(176,405,o),
(120,439,o),
(120,503,cs),
(120,585,o),
(192,632,o),
(290,632,cs),
(350,632,o),
(422,602,o),
(452,545,c),
(507,566,l),
(466,644,o),
(379,680,o),
(289,680,cs),
(159,680,o),
(63,605,o),
(63,503,cs),
(63,405,o),
(134,361,o),
(230,337,cs),
(325,313,ls),
(443,283,o),
(477,245,o),
(477,184,cs),
(477,87,o),
(395,36,o),
(289,36,cs),
(208,36,o),
(126,74,o),
(101,160,c),
(47,140,l),
(75,41,o),
(175,-4,o),
(262,-11,c),
(235,-55,ls),
(226,-69,o),
(229,-83,o),
(244,-83,cs),
(254,-83,o),
(271,-77,o),
(286,-77,cs),
(317,-77,o),
(327,-88,o),
(327,-108,cs),
(327,-122,o),
(316,-145,o),
(277,-145,cs),
(259,-145,o),
(242,-142,o),
(214,-128,c),
(200,-153,l),
(223,-165,o),
(256,-177,o),
(277,-177,cs)
);
}
);
width = 580;
},
{
anchors = (
{
name = top;
pos = (309,668);
}
);
layerId = "5C67A8D6-F0A6-408B-B629-E0E82D5C59F6";
shapes = (
{
closed = 1;
nodes = (
(362,-188,o),
(431,-170,o),
(431,-108,cs),
(431,-59,o),
(378,-46,o),
(341,-46,cs),
(326,-46,o),
(315,-47,o),
(307,-49,c),
(330,-12,l),
(473,-6,o),
(598,73,o),
(598,213,cs),
(598,330,o),
(514,377,o),
(366,407,cs),
(277,425,ls),
(228,434,o),
(205,456,o),
(205,485,cs),
(205,522,o),
(243,544,o),
(306,544,cs),
(369,544,o),
(412,519,o),
(429,475,c),
(582,531,l),
(540,637,o),
(432,680,o),
(322,680,cs),
(188,680,o),
(35,617,o),
(35,469,cs),
(35,362,o),
(117,302,o),
(239,279,cs),
(318,264,ls),
(392,250,o),
(428,233,o),
(428,191,cs),
(428,139,o),
(374,124,o),
(318,124,cs),
(242,124,o),
(188,160,o),
(174,215,c),
(19,159,l),
(57,62,o),
(143,0,o),
(272,-10,c),
(242,-59,ls),
(232,-75,o),
(243,-96,o),
(267,-90,cs),
(276,-87,o),
(286,-85,o),
(293,-85,cs),
(315,-85,o),
(331,-94,o),
(331,-111,cs),
(331,-131,o),
(310,-136,o),
(288,-136,cs),
(262,-136,o),
(235,-129,o),
(226,-124,c),
(210,-176,l),
(233,-183,o),
(265,-188,o),
(298,-188,cs)
);
}
);
width = 618;
},
{
anchors = (
{
name = top;
pos = (296,668);
}
);
layerId = "78636F1B-F233-4E70-8C3B-7E1F8D8169C5";
shapes = (
{
closed = 1;
nodes = (
(356,-183,o),
(388,-142,o),
(388,-104,cs),
(388,-72,o),
(365,-41,o),
(319,-41,cs),
(310,-41,o),
(300,-43,o),
(289,-45,c),
(309,-12,l),
(442,-7,o),
(554,65,o),
(554,187,cs),
(554,305,o),
(473,350,o),
(346,380,cs),
(252,402,ls),
(191,416,o),
(148,444,o),
(148,497,cs),
(148,567,o),
(220,601,o),
(295,601,cs),
(356,601,o),
(418,575,o),
(444,524,c),
(530,555,l),
(489,641,o),
(395,680,o),
(299,680,cs),
(161,680,o),
(54,603,o),
(54,494,cs),
(54,394,o),
(125,342,o),
(233,317,cs),
(323,296,ls),
(430,271,o),
(460,241,o),
(460,186,cs),
(460,106,o),
(385,67,o),
(298,67,cs),
(225,67,o),
(146,103,o),
(124,177,c),
(38,146,l),
(70,48,o),
(164,-2,o),
(263,-11,c),
(234,-57,ls),
(225,-71,o),
(234,-89,o),
(257,-83,cs),
(269,-80,o),
(281,-79,o),
(290,-79,cs),
(317,-79,o),
(328,-92,o),
(328,-108,cs),
(328,-124,o),
(315,-142,o),
(275,-142,cs),
(259,-142,o),
(240,-138,o),
(217,-128,c),
(203,-163,l),
(237,-177,o),
(266,-183,o),
(291,-183,cs)
);
}
);
width = 592;
},
{
anchors = (
{
name = top;
pos = (307,668);
}
);
layerId = "77C32F3B-CDAD-439A-A41B-3F592148655B";
shapes = (
{
closed = 1;
nodes = (
(361,-187,o),
(424,-165,o),
(424,-107,cs),
(424,-61,o),
(376,-45,o),
(338,-45,cs),
(324,-45,o),
(313,-46,o),
(304,-48,c),
(327,-12,l),
(467,-6,o),
(591,72,o),
(591,209,cs),
(591,337,o),
(491,377,o),
(363,403,cs),
(273,421,ls),
(222,431,o),
(196,454,o),
(196,487,cs),
(196,529,o),
(239,553,o),
(304,553,cs),
(367,553,o),
(413,528,o),
(431,483,c),
(574,535,l),
(532,638,o),
(426,680,o),
(318,680,cs),
(164,680,o),
(38,603,o),
(38,473,cs),
(38,371,o),
(110,310,o),
(238,285,cs),
(319,269,ls),
(398,253,o),
(433,234,o),
(433,190,cs),
(433,134,o),
(376,115,o),
(315,115,cs),
(239,115,o),
(181,151,o),
(166,209,c),
(22,157,l),
(59,60,o),
(146,0,o),
(271,-10,c),
(241,-59,ls),
(231,-75,o),
(248,-95,o),
(266,-89,cs),
(275,-86,o),
(285,-84,o),
(293,-84,cs),
(315,-84,o),
(330,-94,o),
(330,-110,cs),
(330,-130,o),
(310,-137,o),
(286,-137,cs),
(262,-137,o),
(236,-130,o),
(225,-124,c),
(209,-174,l),
(234,-182,o),
(265,-187,o),
(297,-187,cs)
);
}
);
width = 614;
}
);
metricLeft = S;
metricRight = S;
unicode = 350;
},
{
glyphname = Germandbls;
kernLeft = H;
kernRight = Germandbls;
lastChange = "2024-11-01 12:02:53 +0000";
layers = (
{
guides = (
{
angle = 200.6744;
pos = (70,30);
}
);
layerId = "883DA8B6-3D8E-4908-9E9E-18B044E47F8D";
shapes = (
{
closed = 1;
nodes = (
(509,-12,o),
(594,49,o),
(594,169,cs),
(594,296,o),
(497,360,o),
(403,346,c),
(574,595,l),
(574,645,l),
(491,665,o),
(408,680,o),
(334,680,cs),
(189,680,o),
(80,624,o),
(80,447,cs),
(80,0,l),
(136,0,l),
(136,447,ls),
(136,593,o),
(209,632,o),
(334,632,cs),
(391,632,o),
(455,623,o),
(523,608,c),
(341,341,l),
(371,291,l),
(384,296,o),
(401,300,o),
(418,300,cs),
(480,300,o),
(539,260,o),
(539,170,cs),
(539,85,o),
(485,38,o),
(419,38,cs),
(349,38,o),
(316,70,o),
(303,118,c),
(256,100,l),
(273,41,o),
(319,-12,o),
(419,-12,cs)
);
}
);
width = 631;
},
{
layerId = "5C67A8D6-F0A6-408B-B629-E0E82D5C59F6";
shapes = (
{
closed = 1;
nodes = (
(573,-12,o),
(677,68,o),
(677,193,cs),
(677,294,o),
(607,362,o),
(513,376,c),
(627,516,l),
(627,646,l),
(532,669,o),
(448,680,o),
(337,680,cs),
(124,680,o),
(53,592,o),
(53,448,cs),
(53,0,l),
(223,0,l),
(223,410,ls),
(223,498,o),
(271,550,o),
(384,550,cs),
(412,550,o),
(446,547,o),
(485,542,c),
(343,363,l),
(401,265,l),
(414,270,o),
(429,273,o),
(442,273,cs),
(479,273,o),
(511,248,o),
(511,197,cs),
(511,146,o),
(477,120,o),
(447,120,cs),
(420,120,o),
(398,133,o),
(387,158,c),
(253,108,l),
(280,47,o),
(344,-12,o),
(463,-12,cs)
);
}
);
width = 696;
},
{
layerId = "78636F1B-F233-4E70-8C3B-7E1F8D8169C5";
shapes = (
{
closed = 1;
nodes = (
(533,-12,o),
(624,55,o),
(624,176,cs),
(624,270,o),
(564,358,o),
(441,357,c),
(594,570,l),
(594,645,l),
(508,666,o),
(424,680,o),
(339,680,cs),
(173,680,o),
(76,614,o),
(76,447,cs),
(76,0,l),
(170,0,l),
(170,435,ls),
(170,563,o),
(232,606,o),
(353,606,cs),
(402,606,o),
(457,599,o),
(517,587,c),
(346,348,l),
(384,283,l),
(397,288,o),
(414,292,o),
(429,292,cs),
(484,292,o),
(534,256,o),
(534,178,cs),
(534,104,o),
(487,63,o),
(432,63,cs),
(376,63,o),
(346,89,o),
(333,130,c),
(259,103,l),
(279,43,o),
(331,-12,o),
(437,-12,cs)
);
}
);
width = 656;
},
{
layerId = "77C32F3B-CDAD-439A-A41B-3F592148655B";
shapes = (
{
closed = 1;
nodes = (
(565,-12,o),
(667,66,o),
(667,190,cs),
(667,293,o),
(595,362,o),
(500,373,c),
(620,525,l),
(620,646,l),
(526,669,o),
(442,680,o),
(335,680,cs),
(130,680,o),
(55,596,o),
(55,448,cs),
(55,0,l),
(213,0,l),
(213,414,ls),
(213,508,o),
(263,559,o),
(377,559,cs),
(408,559,o),
(446,555,o),
(489,549,c),
(341,361,l),
(396,268,l),
(409,273,o),
(425,276,o),
(438,276,cs),
(478,276,o),
(513,249,o),
(513,194,cs),
(513,139,o),
(477,111,o),
(443,111,cs),
(411,111,o),
(388,126,o),
(377,154,c),
(252,108,l),
(278,47,o),
(339,-12,o),
(457,-12,cs)
);
}
);
width = 688;
}
);
metricLeft = U;
metricRight = B;
unicode = 7838;
},
{
glyphname = T;
kernLeft = T;
kernRight = T;
lastChange = "2024-11-01 12:02:53 +0000";
layers = (
{
anchors = (
{
name = bottom;
pos = (262,0);
},
{
name = center;
pos = (261,334);
},
{
name = top;
pos = (261,668);
}
);
guides = (
{
angle = 270;
pos = (233,310);
},
{
angle = 90;
pos = (289,310);
},
{
angle = 90;
pos = (261,310);
}
);
layerId = "883DA8B6-3D8E-4908-9E9E-18B044E47F8D";
shapes = (
{
closed = 1;
nodes = (
(289,0,l),
(289,620,l),
(514,620,l),
(514,668,l),
(8,668,l),
(8,620,l),
(233,620,l),
(233,0,l)
);
}
);
width = 522;
},
{
anchors = (
{
name = bottom;
pos = (314,0);
},
{
name = center;
pos = (314,334);
},
{
name = top;
pos = (314,668);
}
);
guides = (
{
angle = 270;
pos = (225,310);
},
{
angle = 90;
pos = (403,310);
},
{
angle = 90;
pos = (314,310);
}
);
layerId = "5C67A8D6-F0A6-408B-B629-E0E82D5C59F6";
shapes = (
{
closed = 1;
nodes = (
(399,0,l),
(399,518,l),
(612,518,l),
(612,668,l),
(16,668,l),
(16,518,l),
(229,518,l),
(229,0,l)
);
}
);
width = 628;
},
{
anchors = (
{
name = bottom;
pos = (279,0);
},
{
name = center;
pos = (279,334);
},
{
name = top;
pos = (279,668);
}
);
layerId = "78636F1B-F233-4E70-8C3B-7E1F8D8169C5";
shapes = (
{
closed = 1;
nodes = (
(326,0,l),
(326,587,l),
(548,587,l),
(548,668,l),
(10,668,l),
(10,587,l),
(232,587,l),
(232,0,l)
);
}
);
width = 558;
},
{
anchors = (
{
name = bottom;
pos = (309,0);
},
{
name = center;
pos = (309,334);
},
{
name = top;
pos = (309,668);
}
);
layerId = "77C32F3B-CDAD-439A-A41B-3F592148655B";
shapes = (
{
closed = 1;
nodes = (
(388,0,l),
(388,529,l),
(603,529,l),
(603,668,l),
(15,668,l),
(15,529,l),
(230,529,l),
(230,0,l)
);
}
);
width = 618;
}
);
metricRight = "=|";
unicode = 84;
},
{
glyphname = Tcedilla;
kernLeft = T;
kernRight = T;
lastChange = "2024-11-01 12:02:53 +0000";
layers = (
{
anchors = (
{
name = center;
pos = (261,334);
},
{
name = top;
pos = (261,668);
}
);
layerId = "883DA8B6-3D8E-4908-9E9E-18B044E47F8D";
shapes = (
{
closed = 1;
nodes = (
(242,0,l),
(208,-55,ls),
(199,-69,o),
(202,-83,o),
(217,-83,cs),
(227,-83,o),
(244,-77,o),
(259,-77,cs),
(290,-77,o),
(300,-88,o),
(300,-108,cs),
(300,-122,o),
(289,-145,o),
(250,-145,cs),
(232,-145,o),
(215,-142,o),
(187,-128,c),
(173,-153,l),
(196,-165,o),
(229,-177,o),
(250,-177,cs),
(318,-177,o),
(342,-127,o),
(342,-99,cs),
(342,-71,o),
(321,-44,o),
(280,-44,cs),
(274,-44,o),
(262,-45,o),
(249,-48,c),
(280,0,l),
(289,0,l),
(289,620,l),
(514,620,l),
(514,668,l),
(8,668,l),
(8,620,l),
(233,620,l),
(233,0,l)
);
}
);
width = 522;
},
{
anchors = (
{
name = center;
pos = (314,334);
},
{
name = top;
pos = (314,668);
}
);
layerId = "5C67A8D6-F0A6-408B-B629-E0E82D5C59F6";
shapes = (
{
closed = 1;
nodes = (
(285,0,l),
(249,-59,ls),
(239,-75,o),
(250,-96,o),
(274,-90,cs),
(283,-87,o),
(293,-85,o),
(300,-85,cs),
(322,-85,o),
(338,-94,o),
(338,-111,cs),
(338,-131,o),
(317,-136,o),
(295,-136,cs),
(269,-136,o),
(242,-129,o),
(233,-124,c),
(217,-176,l),
(240,-183,o),
(272,-188,o),
(305,-188,cs),
(369,-188,o),
(438,-170,o),
(438,-108,cs),
(438,-59,o),
(385,-46,o),
(348,-46,cs),
(333,-46,o),
(322,-47,o),
(314,-49,c),
(344,0,l),
(399,0,l),
(399,518,l),
(612,518,l),
(612,668,l),
(16,668,l),
(16,518,l),
(229,518,l),
(229,0,l)
);
}
);
width = 628;
},
{
anchors = (
{
name = center;
pos = (279,334);
},
{
name = top;
pos = (279,668);
}
);
layerId = "78636F1B-F233-4E70-8C3B-7E1F8D8169C5";
shapes = (
{
closed = 1;
nodes = (
(255,0,l),
(220,-57,ls),
(211,-71,o),
(220,-89,o),
(243,-83,cs),
(255,-80,o),
(267,-79,o),
(276,-79,cs),
(303,-79,o),
(314,-92,o),
(314,-108,cs),
(314,-124,o),
(301,-142,o),
(261,-142,cs),
(245,-142,o),
(226,-138,o),
(203,-128,c),
(189,-163,l),
(223,-177,o),
(252,-183,o),
(277,-183,cs),
(342,-183,o),
(374,-142,o),
(374,-104,cs),
(374,-72,o),
(351,-41,o),
(305,-41,cs),
(296,-41,o),
(286,-43,o),
(275,-45,c),
(303,0,l),
(326,0,l),
(326,587,l),
(548,587,l),
(548,668,l),
(10,668,l),
(10,587,l),
(232,587,l),
(232,0,l)
);
}
);
width = 558;
},
{
anchors = (
{
name = center;
pos = (309,334);
},
{
name = top;
pos = (309,668);
}
);
layerId = "77C32F3B-CDAD-439A-A41B-3F592148655B";
shapes = (
{
closed = 1;
nodes = (
(282,0,l),
(245,-59,ls),
(235,-75,o),
(252,-95,o),
(270,-89,cs),
(279,-86,o),
(289,-84,o),
(297,-84,cs),
(319,-84,o),
(334,-94,o),
(334,-110,cs),
(334,-130,o),
(314,-137,o),
(290,-137,cs),
(266,-137,o),
(240,-130,o),
(229,-124,c),
(213,-174,l),
(238,-182,o),
(269,-187,o),
(301,-187,cs),
(365,-187,o),
(428,-165,o),
(428,-107,cs),
(428,-61,o),
(380,-45,o),
(342,-45,cs),
(328,-45,o),
(317,-46,o),
(308,-48,c),
(338,0,l),
(388,0,l),
(388,529,l),
(603,529,l),
(603,668,l),
(15,668,l),
(15,529,l),
(230,529,l),
(230,0,l)
);
}
);
width = 618;
}
);
unicode = 354;
},
{
glyphname = U;
kernLeft = U;
kernRight = U;
lastChange = "2024-11-01 12:02:53 +0000";
layers = (
{
anchors = (
{
name = bottom;
pos = (335,0);
},
{
name = ogonek;
pos = (502,10);
},
{
name = top;
pos = (336,668);
},
{
name = topright;
pos = (666,668);
}
);
layerId = "883DA8B6-3D8E-4908-9E9E-18B044E47F8D";
shapes = (
{
closed = 1;
nodes = (
(514,-12,o),
(592,83,o),
(592,272,cs),
(592,668,l),
(536,668,l),
(536,268,ls),
(536,114,o),
(474,36,o),
(335,36,cs),
(196,36,o),
(136,114,o),
(136,268,cs),
(136,668,l),
(80,668,l),
(80,272,ls),
(80,83,o),
(156,-12,o),
(335,-12,cs)
);
}
);
width = 672;
},
{
anchors = (
{
name = bottom;
pos = (345,0);
},
{
name = ogonek;
pos = (559,10);
},
{
name = top;
pos = (344,668);
},
{
name = topright;
pos = (653,668);
}
);
layerId = "5C67A8D6-F0A6-408B-B629-E0E82D5C59F6";
shapes = (
{
closed = 1;
nodes = (
(554,-12,o),
(635,86,o),
(635,294,cs),
(635,668,l),
(465,668,l),
(465,274,ls),
(465,162,o),
(433,126,o),
(346,126,cs),
(259,126,o),
(223,162,o),
(223,274,cs),
(223,668,l),
(53,668,l),
(53,294,ls),
(53,86,o),
(133,-12,o),
(345,-12,cs)
);
}
);
width = 688;
},
{
anchors = (
{
name = bottom;
pos = (345,0);
},
{
name = ogonek;
pos = (530,10);
},
{
name = top;
pos = (345,668);
},
{
name = topright;
pos = (669,668);
}
);
layerId = "78636F1B-F233-4E70-8C3B-7E1F8D8169C5";
shapes = (
{
closed = 1;
nodes = (
(540,-12,o),
(614,84,o),
(614,279,cs),
(614,668,l),
(520,668,l),
(520,272,ls),
(520,140,o),
(473,69,o),
(345,69,cs),
(217,69,o),
(170,140,o),
(170,272,cs),
(170,668,l),
(76,668,l),
(76,279,ls),
(76,84,o),
(151,-12,o),
(345,-12,cs)
);
}
);
width = 690;
},
{
anchors = (
{
name = bottom;
pos = (345,0);
},
{
name = ogonek;
pos = (553,10);
},
{
name = top;
pos = (344,668);
},
{
name = topright;
pos = (656,668);
}
);
layerId = "77C32F3B-CDAD-439A-A41B-3F592148655B";
shapes = (
{
closed = 1;
nodes = (
(550,-12,o),
(630,86,o),
(630,292,cs),
(630,668,l),
(472,668,l),
(472,274,ls),
(472,159,o),
(437,117,o),
(344,117,cs),
(250,117,o),
(213,159,o),
(213,274,cs),
(213,668,l),
(55,668,l),
(55,292,ls),
(55,86,o),
(134,-12,o),
(343,-12,cs)
);
}
);
width = 685;
}
);
metricLeft = "=H*0.98";
metricRight = "=H*0.98";
unicode = 85;
},
{
glyphname = Uogonek;
kernLeft = U;
kernRight = U;
lastChange = "2024-11-01 12:02:53 +0000";
layers = (
{
anchors = (
{
name = bottom;
pos = (335,0);
},
{
name = top;
pos = (336,668);
},
{
name = topright;
pos = (666,668);
}
);
layerId = "883DA8B6-3D8E-4908-9E9E-18B044E47F8D";
shapes = (
{
closed = 1;
nodes = (
(470,-168,o),
(482,-167,o),
(502,-159,c),
(502,-120,l),
(490,-126,o),
(478,-127,o),
(470,-127,cs),
(439,-127,o),
(417,-108,o),
(417,-78,cs),
(417,-42,o),
(441,-1,o),
(482,20,cs),
(555,58,o),
(592,144,o),
(592,272,cs),
(592,668,l),
(536,668,l),
(536,268,ls),
(536,114,o),
(474,36,o),
(335,36,cs),
(196,36,o),
(136,114,o),
(136,268,cs),
(136,668,l),
(80,668,l),
(80,266,ls),
(80,-36,o),
(304,-20,o),
(411,-5,c),
(387,-30,o),
(372,-62,o),
(372,-94,cs),
(372,-140,o),
(407,-168,o),
(454,-168,cs)
);
}
);
width = 672;
},
{
anchors = (
{
name = bottom;
pos = (345,0);
},
{
name = top;
pos = (344,668);
},
{
name = topright;
pos = (653,668);
}
);
layerId = "5C67A8D6-F0A6-408B-B629-E0E82D5C59F6";
shapes = (
{
closed = 1;
nodes = (
(503,-174,o),
(545,-169,o),
(559,-165,c),
(559,-86,l),
(552,-87,o),
(529,-95,o),
(508,-95,cs),
(487,-95,o),
(462,-88,o),
(462,-56,cs),
(462,-20,o),
(492,6,o),
(535,34,cs),
(599,76,o),
(635,161,o),
(635,294,cs),
(635,668,l),
(465,668,l),
(465,274,ls),
(465,162,o),
(433,126,o),
(346,126,cs),
(259,126,o),
(223,162,o),
(223,274,cs),
(223,668,l),
(53,668,l),
(53,294,ls),
(53,74,o),
(143,-12,o),
(345,-12,c),
(333,-29,o),
(326,-49,o),
(326,-72,cs),
(326,-126,o),
(360,-174,o),
(477,-174,cs)
);
}
);
width = 688;
},
{
anchors = (
{
name = bottom;
pos = (345,0);
},
{
name = top;
pos = (345,668);
},
{
name = topright;
pos = (669,668);
}
);
layerId = "78636F1B-F233-4E70-8C3B-7E1F8D8169C5";
shapes = (
{
closed = 1;
nodes = (
(486,-173,o),
(507,-169,o),
(530,-161,c),
(530,-107,l),
(517,-113,o),
(504,-115,o),
(492,-115,cs),
(464,-115,o),
(443,-101,o),
(443,-71,cs),
(443,-32,o),
(471,3,o),
(505,22,cs),
(580,65,o),
(614,149,o),
(614,279,cs),
(614,668,l),
(520,668,l),
(520,272,ls),
(520,140,o),
(473,69,o),
(345,69,cs),
(217,69,o),
(170,140,o),
(170,272,cs),
(170,668,l),
(76,668,l),
(76,279,ls),
(76,20,o),
(219,-26,o),
(404,-9,c),
(387,-29,o),
(373,-57,o),
(373,-91,cs),
(373,-134,o),
(407,-173,o),
(467,-173,cs)
);
}
);
width = 690;
},
{
anchors = (
{
name = bottom;
pos = (345,0);
},
{
name = top;
pos = (344,668);
},
{
name = topright;
pos = (656,668);
}
);
layerId = "77C32F3B-CDAD-439A-A41B-3F592148655B";
shapes = (
{
closed = 1;
nodes = (
(498,-174,o),
(537,-169,o),
(552,-164,c),
(552,-89,l),
(544,-91,o),
(523,-98,o),
(503,-98,cs),
(481,-98,o),
(457,-90,o),
(457,-58,cs),
(457,-23,o),
(486,6,o),
(520,27,cs),
(595,72,o),
(630,158,o),
(630,292,cs),
(630,668,l),
(472,668,l),
(472,274,ls),
(472,159,o),
(437,117,o),
(344,117,cs),
(250,117,o),
(213,159,o),
(213,274,cs),
(213,668,l),
(55,668,l),
(55,292,ls),
(55,71,o),
(146,-12,o),
(351,-12,c),
(339,-29,o),
(331,-50,o),
(331,-75,cs),
(331,-127,o),
(365,-174,o),
(473,-174,cs)
);
}
);
width = 685;
}
);
metricLeft = U;
metricRight = U;
unicode = 370;
},
{
glyphname = V;
kernLeft = V;
kernRight = V;
lastChange = "2024-11-01 12:02:53 +0000";
layers = (
{
anchors = (
{
name = bottom;
pos = (283,0);
},
{
name = top;
pos = (283,668);
}
);
layerId = "883DA8B6-3D8E-4908-9E9E-18B044E47F8D";
shapes = (
{
closed = 1;
nodes = (
(311,0,l),
(549,668,l),
(492,668,l),
(282,66,l),
(74,668,l),
(16,668,l),
(252,0,l)
);
}
);
width = 565;
},
{
anchors = (
{
name = bottom;
pos = (334,0);
},
{
name = top;
pos = (334,668);
}
);
layerId = "5C67A8D6-F0A6-408B-B629-E0E82D5C59F6";
shapes = (
{
closed = 1;
nodes = (
(432,0,l),
(659,668,l),
(482,668,l),
(333,190,l),
(185,668,l),
(10,668,l),
(235,0,l)
);
}
);
width = 669;
},
{
anchors = (
{
name = bottom;
pos = (297,0);
},
{
name = top;
pos = (297,668);
}
);
layerId = "78636F1B-F233-4E70-8C3B-7E1F8D8169C5";
shapes = (
{
closed = 1;
nodes = (
(351,0,l),
(581,668,l),
(478,668,l),
(296,110,l),
(115,668,l),
(12,668,l),
(241,0,l)
);
}
);
width = 593;
},
{
anchors = (
{
name = bottom;
pos = (328,0);
},
{
name = top;
pos = (328,668);
}
);
layerId = "77C32F3B-CDAD-439A-A41B-3F592148655B";
shapes = (
{
closed = 1;
nodes = (
(419,0,l),
(646,668,l),
(481,668,l),
(327,177,l),
(174,668,l),
(10,668,l),
(236,0,l)
);
}
);
width = 656;
}
);
metricRight = "=|";
unicode = 86;
},
{
glyphname = W;
kernLeft = W;
kernRight = W;
lastChange = "2024-11-01 12:02:53 +0000";
layers = (
{
anchors = (
{
name = bottom;
pos = (429,0);
},
{
name = top;
pos = (429,668);
}
);
layerId = "883DA8B6-3D8E-4908-9E9E-18B044E47F8D";
shapes = (
{
closed = 1;
nodes = (
(269,0,l),
(428,576,l),
(586,0,l),
(653,0,l),
(833,668,l),
(776,668,l),
(620,64,l),
(458,668,l),
(400,668,l),
(236,64,l),
(82,668,l),
(24,668,l),
(202,0,l)
);
}
);
width = 857;
},
{
anchors = (
{
name = bottom;
pos = (451,0);
},
{
name = top;
pos = (450,668);
}
);
layerId = "5C67A8D6-F0A6-408B-B629-E0E82D5C59F6";
shapes = (
{
closed = 1;
nodes = (
(354,0,l),
(450,455,l),
(547,0,l),
(726,0,l),
(886,668,l),
(718,668,l),
(632,222,l),
(537,668,l),
(363,668,l),
(269,222,l),
(183,668,l),
(15,668,l),
(175,0,l)
);
}
);
width = 901;
},
{
anchors = (
{
name = bottom;
pos = (428,0);
},
{
name = top;
pos = (428,668);
}
);
layerId = "78636F1B-F233-4E70-8C3B-7E1F8D8169C5";
shapes = (
{
closed = 1;
nodes = (
(299,0,l),
(428,552,l),
(557,0,l),
(671,0,l),
(838,668,l),
(735,668,l),
(605,116,l),
(483,668,l),
(373,668,l),
(251,116,l),
(121,668,l),
(18,668,l),
(186,0,l)
);
}
);
width = 856;
},
{
anchors = (
{
name = bottom;
pos = (447,0);
},
{
name = top;
pos = (447,668);
}
);
layerId = "77C32F3B-CDAD-439A-A41B-3F592148655B";
shapes = (
{
closed = 1;
nodes = (
(345,0,l),
(446,470,l),
(548,0,l),
(717,0,l),
(878,668,l),
(720,668,l),
(627,205,l),
(528,668,l),
(364,668,l),
(266,205,l),
(173,668,l),
(15,668,l),
(176,0,l)
);
}
);
width = 893;
}
);
metricLeft = "=V*1.5";
metricRight = "=V*1.5";
unicode = 87;
},
{
glyphname = X;
kernLeft = X;
kernRight = X;
lastChange = "2024-11-01 12:02:53 +0000";
layers = (
{
anchors = (
{
name = bottom;
pos = (295,0);
},
{
name = top;
pos = (295,668);
}
);
layerId = "883DA8B6-3D8E-4908-9E9E-18B044E47F8D";
shapes = (
{
closed = 1;
nodes = (
(81,0,l),
(295,302,l),
(509,0,l),
(576,0,l),
(331,345,l),
(562,668,l),
(494,668,l),
(294,387,l),
(94,668,l),
(28,668,l),
(259,345,l),
(14,0,l)
);
}
);
width = 590;
},
{
anchors = (
{
name = bottom;
pos = (357,0);
},
{
name = top;
pos = (357,668);
}
);
layerId = "5C67A8D6-F0A6-408B-B629-E0E82D5C59F6";
shapes = (
{
closed = 1;
nodes = (
(214,0,l),
(356,201,l),
(499,0,l),
(703,0,l),
(458,343,l),
(689,668,l),
(486,668,l),
(356,486,l),
(227,668,l),
(24,668,l),
(255,343,l),
(10,0,l)
);
}
);
width = 713;
},
{
anchors = (
{
name = bottom;
pos = (312,0);
},
{
name = top;
pos = (312,668);
}
);
layerId = "78636F1B-F233-4E70-8C3B-7E1F8D8169C5";
shapes = (
{
closed = 1;
nodes = (
(123,0,l),
(311,265,l),
(500,0,l),
(613,0,l),
(368,344,l),
(599,668,l),
(486,668,l),
(311,423,l),
(136,668,l),
(24,668,l),
(255,344,l),
(10,0,l)
);
}
);
width = 623;
},
{
anchors = (
{
name = bottom;
pos = (350,0);
},
{
name = top;
pos = (350,668);
}
);
layerId = "77C32F3B-CDAD-439A-A41B-3F592148655B";
shapes = (
{
closed = 1;
nodes = (
(200,0,l),
(349,211,l),
(499,0,l),
(689,0,l),
(444,343,l),
(675,668,l),
(486,668,l),
(349,476,l),
(213,668,l),
(24,668,l),
(255,343,l),
(10,0,l)
);
}
);
width = 699;
}
);
metricRight = "=|";
unicode = 88;
},
{
glyphname = Y;
kernLeft = Y;
kernRight = Y;
lastChange = "2024-11-01 12:02:53 +0000";
layers = (
{
anchors = (
{
name = bottom;
pos = (264,0);
},
{
name = top;
pos = (264,668);
},
{
name = topleft;
pos = (10,668);
}
);
guides = (
{
angle = 90;
pos = (264,564);
}
);
layerId = "883DA8B6-3D8E-4908-9E9E-18B044E47F8D";
shapes = (
{
closed = 1;
nodes = (
(292,0,l),
(292,268,l),
(526,668,l),
(461,668,l),
(264,325,l),
(66,668,l),
(0,668,l),
(236,268,l),
(236,0,l)
);
}
);
width = 526;
},
{
anchors = (
{
name = bottom;
pos = (343,0);
},
{
name = top;
pos = (342,668);
},
{
name = topleft;
pos = (10,668);
}
);
guides = (
{
angle = 90;
pos = (341,284);
}
);
layerId = "5C67A8D6-F0A6-408B-B629-E0E82D5C59F6";
shapes = (
{
closed = 1;
nodes = (
(427,0,l),
(427,262,l),
(684,668,l),
(484,668,l),
(341,423,l),
(199,668,l),
(0,668,l),
(257,262,l),
(257,0,l)
);
}
);
width = 684;
},
{
anchors = (
{
name = bottom;
pos = (288,0);
},
{
name = top;
pos = (288,668);
},
{
name = topleft;
pos = (10,668);
}
);
layerId = "78636F1B-F233-4E70-8C3B-7E1F8D8169C5";
shapes = (
{
closed = 1;
nodes = (
(335,0,l),
(335,259,l),
(575,668,l),
(472,668,l),
(288,345,l),
(103,668,l),
(0,668,l),
(241,259,l),
(241,0,l)
);
}
);
width = 575;
},
{
anchors = (
{
name = bottom;
pos = (334,0);
},
{
name = top;
pos = (334,668);
},
{
name = topleft;
pos = (10,668);
}
);
layerId = "77C32F3B-CDAD-439A-A41B-3F592148655B";
shapes = (
{
closed = 1;
nodes = (
(413,0,l),
(413,261,l),
(667,668,l),
(482,668,l),
(333,411,l),
(184,668,l),
(0,668,l),
(255,260,l),
(255,0,l)
);
}
);
width = 667;
}
);
metricLeft = "=0";
metricRight = "=0";
unicode = 89;
},
{
glyphname = Z;
kernLeft = Z;
kernRight = Z;
lastChange = "2024-11-01 12:02:53 +0000";
layers = (
{
anchors = (
{
name = bottom;
pos = (300,0);
},
{
name = center;
pos = (300,334);
},
{
name = top;
pos = (304,668);
}
);
layerId = "883DA8B6-3D8E-4908-9E9E-18B044E47F8D";
shapes = (
{
closed = 1;
nodes = (
(549,0,l),
(549,50,l),
(111,50,l),
(534,608,l),
(534,668,l),
(65,668,l),
(65,618,l),
(475,618,l),
(50,60,l),
(50,0,l)
);
}
);
width = 600;
},
{
anchors = (
{
name = bottom;
pos = (312,0);
},
{
name = center;
pos = (312,334);
},
{
name = top;
pos = (312,668);
}
);
layerId = "5C67A8D6-F0A6-408B-B629-E0E82D5C59F6";
shapes = (
{
closed = 1;
nodes = (
(594,0,l),
(594,150,l),
(256,150,l),
(579,540,l),
(579,668,l),
(45,668,l),
(45,518,l),
(356,518,l),
(30,128,l),
(30,0,l)
);
}
);
width = 624;
},
{
anchors = (
{
name = bottom;
pos = (304,0);
},
{
name = center;
pos = (304,334);
},
{
name = top;
pos = (304,668);
}
);
layerId = "78636F1B-F233-4E70-8C3B-7E1F8D8169C5";
shapes = (
{
closed = 1;
nodes = (
(563,0,l),
(563,81,l),
(156,81,l),
(548,587,l),
(548,668,l),
(59,668,l),
(59,587,l),
(438,587,l),
(44,81,l),
(44,0,l)
);
}
);
width = 607;
},
{
anchors = (
{
name = bottom;
pos = (311,0);
},
{
name = center;
pos = (311,334);
},
{
name = top;
pos = (311,668);
}
);
layerId = "77C32F3B-CDAD-439A-A41B-3F592148655B";
shapes = (
{
closed = 1;
nodes = (
(589,0,l),
(589,139,l),
(240,139,l),
(574,547,l),
(574,668,l),
(47,668,l),
(47,529,l),
(369,529,l),
(32,121,l),
(32,0,l)
);
}
);
width = 621;
}
);
unicode = 90;
},
{
glyphname = a;
kernLeft = a;
kernRight = a;
lastChange = "2024-11-01 12:02:53 +0000";
layers = (
{
anchors = (
{
name = bottom;
pos = (246,0);
},
{
name = ogonek;
pos = (442,10);
},
{
name = top;
pos = (246,496);
}
);
layerId = "883DA8B6-3D8E-4908-9E9E-18B044E47F8D";
shapes = (
{
closed = 1;
nodes = (
(303,-12,o),
(357,35,o),
(378,81,c),
(398,0,l),
(442,0,l),
(432,44,o),
(424,100,o),
(424,194,cs),
(424,314,ls),
(424,439,o),
(367,506,o),
(245,506,cs),
(163,506,o),
(90,465,o),
(64,385,c),
(120,372,l),
(132,422,o),
(177,460,o),
(246,460,cs),
(333,460,o),
(371,405,o),
(371,318,cs),
(371,305,l),
(138,288,o),
(34,235,o),
(34,122,cs),
(34,35,o),
(107,-12,o),
(204,-12,cs)
);
},
{
closed = 1;
nodes = (
(135,35,o),
(89,71,o),
(89,125,cs),
(89,204,o),
(175,247,o),
(371,261,c),
(371,195,ls),
(371,78,o),
(293,35,o),
(207,35,cs)
);
}
);
width = 504;
},
{
anchors = (
{
name = bottom;
pos = (280,0);
},
{
name = ogonek;
pos = (528,10);
},
{
name = top;
pos = (280,496);
}
);
layerId = "5C67A8D6-F0A6-408B-B629-E0E82D5C59F6";
shapes = (
{
closed = 1;
nodes = (
(262,-12,o),
(320,4,o),
(356,59,c),
(373,0,l),
(528,0,l),
(518,38,o),
(511,114,o),
(511,185,cs),
(511,312,ls),
(511,450,o),
(425,511,o),
(279,511,cs),
(162,511,o),
(81,459,o),
(48,394,c),
(188,346,l),
(198,379,o),
(232,400,o),
(270,400,cs),
(321,400,o),
(352,381,o),
(352,328,cs),
(352,314,l),
(147,303,o),
(20,254,o),
(20,134,cs),
(20,45,o),
(93,-12,o),
(196,-12,cs)
);
},
{
closed = 1;
nodes = (
(219,99,o),
(193,118,o),
(193,148,cs),
(193,184,o),
(232,210,o),
(352,217,c),
(352,204,ls),
(352,122,o),
(313,99,o),
(254,99,cs)
);
}
);
width = 561;
},
{
anchors = (
{
name = bottom;
pos = (258,0);
},
{
name = ogonek;
pos = (470,10);
},
{
name = top;
pos = (258,496);
}
);
layerId = "78636F1B-F233-4E70-8C3B-7E1F8D8169C5";
shapes = (
{
closed = 1;
nodes = (
(291,-12,o),
(345,18,o),
(373,68,c),
(393,0,l),
(470,0,l),
(461,47,o),
(452,104,o),
(452,187,cs),
(452,303,ls),
(452,439,o),
(392,504,o),
(255,504,cs),
(166,504,o),
(92,460,o),
(65,384,c),
(146,360,l),
(157,408,o),
(197,437,o),
(258,437,cs),
(336,437,o),
(372,390,o),
(372,319,cs),
(372,310,l),
(159,290,o),
(31,247,o),
(31,129,cs),
(31,39,o),
(109,-12,o),
(204,-12,cs)
);
},
{
closed = 1;
nodes = (
(161,55,o),
(124,85,o),
(124,131,cs),
(124,200,o),
(214,230,o),
(372,243,c),
(372,204,ls),
(372,92,o),
(303,55,o),
(223,55,cs)
);
}
);
width = 525;
},
{
anchors = (
{
name = bottom;
pos = (278,0);
},
{
name = ogonek;
pos = (519,10);
},
{
name = top;
pos = (278,496);
}
);
layerId = "77C32F3B-CDAD-439A-A41B-3F592148655B";
shapes = (
{
closed = 1;
nodes = (
(265,-12,o),
(323,8,o),
(360,60,c),
(378,0,l),
(519,0,l),
(509,43,o),
(502,129,o),
(502,194,cs),
(502,303,ls),
(502,453,o),
(421,510,o),
(277,510,cs),
(166,510,o),
(87,460,o),
(55,394,c),
(183,348,l),
(193,388,o),
(227,407,o),
(269,407,cs),
(325,407,o),
(357,383,o),
(357,327,cs),
(357,311,l),
(156,297,o),
(23,251,o),
(23,134,cs),
(23,44,o),
(100,-12,o),
(194,-12,cs)
);
},
{
closed = 1;
nodes = (
(210,92,o),
(180,113,o),
(180,145,cs),
(180,194,o),
(245,213,o),
(357,221,c),
(357,204,ls),
(357,117,o),
(313,92,o),
(251,92,cs)
);
}
);
width = 558;
}
);
unicode = 97;
},
{
glyphname = aogonek;
kernLeft = a;
kernRight = a;
lastChange = "2024-11-01 12:02:53 +0000";
layers = (
{
anchors = (
{
name = bottom;
pos = (246,0);
},
{
name = top;
pos = (246,496);
}
);
layerId = "883DA8B6-3D8E-4908-9E9E-18B044E47F8D";
shapes = (
{
closed = 1;
nodes = (
(410,-168,o),
(422,-167,o),
(442,-159,c),
(442,-120,l),
(430,-125,o),
(418,-127,o),
(409,-127,cs),
(379,-127,o),
(357,-114,o),
(357,-84,cs),
(357,-50,o),
(389,-17,o),
(442,0,c),
(432,44,o),
(424,100,o),
(424,194,cs),
(424,314,ls),
(424,439,o),
(367,506,o),
(245,506,cs),
(163,506,o),
(90,465,o),
(64,385,c),
(120,372,l),
(132,422,o),
(177,460,o),
(246,460,cs),
(333,460,o),
(371,405,o),
(371,318,cs),
(371,305,l),
(138,288,o),
(34,235,o),
(34,122,cs),
(34,35,o),
(107,-12,o),
(204,-12,cs),
(303,-12,o),
(357,35,o),
(378,81,c),
(395,11,l),
(340,-16,o),
(312,-48,o),
(312,-94,cs),
(312,-140,o),
(347,-168,o),
(394,-168,cs)
);
},
{
closed = 1;
nodes = (
(135,35,o),
(89,71,o),
(89,125,cs),
(89,204,o),
(175,247,o),
(371,261,c),
(371,195,ls),
(371,78,o),
(293,35,o),
(207,35,cs)
);
}
);
width = 504;
},
{
anchors = (
{
name = bottom;
pos = (280,0);
},
{
name = top;
pos = (280,496);
}
);
layerId = "5C67A8D6-F0A6-408B-B629-E0E82D5C59F6";
shapes = (
{
closed = 1;
nodes = (
(472,-176,o),
(514,-171,o),
(528,-167,c),
(528,-86,l),
(515,-90,o),
(495,-95,o),
(477,-95,cs),
(456,-95,o),
(431,-88,o),
(431,-65,cs),
(431,-41,o),
(459,-13,o),
(528,0,c),
(518,38,o),
(511,114,o),
(511,185,cs),
(511,312,ls),
(511,450,o),
(425,511,o),
(279,511,cs),
(162,511,o),
(81,459,o),
(48,394,c),
(188,346,l),
(198,379,o),
(232,400,o),
(270,400,cs),
(321,400,o),
(352,381,o),
(352,328,cs),
(352,314,l),
(147,303,o),
(20,254,o),
(20,134,cs),
(20,45,o),
(93,-12,o),
(196,-12,cs),
(262,-12,o),
(320,4,o),
(356,59,c),
(370,9,l),
(333,-8,o),
(295,-35,o),
(295,-84,cs),
(295,-121,o),
(325,-176,o),
(446,-176,cs)
);
},
{
closed = 1;
nodes = (
(219,99,o),
(193,118,o),
(193,148,cs),
(193,184,o),
(232,210,o),
(352,217,c),
(352,204,ls),
(352,122,o),
(313,99,o),
(254,99,cs)
);
}
);
width = 561;
},
{
anchors = (
{
name = bottom;
pos = (258,0);
},
{
name = top;
pos = (258,496);
}
);
layerId = "78636F1B-F233-4E70-8C3B-7E1F8D8169C5";
shapes = (
{
closed = 1;
nodes = (
(426,-173,o),
(447,-169,o),
(470,-161,c),
(470,-107,l),
(457,-113,o),
(444,-115,o),
(432,-115,cs),
(404,-115,o),
(383,-102,o),
(383,-74,cs),
(383,-47,o),
(402,-24,o),
(470,0,c),
(461,47,o),
(452,104,o),
(452,187,cs),
(452,303,ls),
(452,439,o),
(392,504,o),
(255,504,cs),
(166,504,o),
(92,460,o),
(65,384,c),
(146,360,l),
(157,408,o),
(197,437,o),
(258,437,cs),
(336,437,o),
(372,390,o),
(372,319,cs),
(372,310,l),
(159,290,o),
(31,247,o),
(31,129,cs),
(31,39,o),
(109,-12,o),
(204,-12,cs),
(291,-12,o),
(345,18,o),
(373,68,c),
(391,8,l),
(341,-15,o),
(313,-46,o),
(313,-91,cs),
(313,-134,o),
(347,-173,o),
(407,-173,cs)
);
},
{
closed = 1;
nodes = (
(161,55,o),
(124,85,o),
(124,131,cs),
(124,200,o),
(214,230,o),
(372,243,c),
(372,204,ls),
(372,92,o),
(303,55,o),
(223,55,cs)
);
}
);
width = 525;
},
{
anchors = (
{
name = bottom;
pos = (278,0);
},
{
name = top;
pos = (278,496);
}
);
layerId = "77C32F3B-CDAD-439A-A41B-3F592148655B";
shapes = (
{
closed = 1;
nodes = (
(465,-174,o),
(504,-169,o),
(519,-164,c),
(519,-89,l),
(510,-92,o),
(490,-98,o),
(470,-98,cs),
(448,-98,o),
(424,-92,o),
(424,-68,cs),
(424,-44,o),
(454,-13,o),
(519,0,c),
(509,43,o),
(502,129,o),
(502,194,cs),
(502,303,ls),
(502,453,o),
(421,510,o),
(277,510,cs),
(166,510,o),
(87,460,o),
(55,394,c),
(183,348,l),
(193,388,o),
(227,407,o),
(269,407,cs),
(325,407,o),
(357,383,o),
(357,327,cs),
(357,311,l),
(156,297,o),
(23,251,o),
(23,134,cs),
(23,44,o),
(100,-12,o),
(194,-12,cs),
(265,-12,o),
(323,8,o),
(360,60,c),
(375,9,l),
(338,-9,o),
(298,-39,o),
(298,-85,cs),
(298,-123,o),
(332,-174,o),
(440,-174,cs)
);
},
{
closed = 1;
nodes = (
(210,92,o),
(180,113,o),
(180,145,cs),
(180,194,o),
(245,213,o),
(357,221,c),
(357,204,ls),
(357,117,o),
(313,92,o),
(251,92,cs)
);
}
);
width = 558;
}
);
metricLeft = a;
metricRight = a;
unicode = 261;
},
{
glyphname = ae;
kernLeft = a;
kernRight = e;
lastChange = "2024-11-01 12:02:53 +0000";
layers = (
{
anchors = (
{
name = bottom;
pos = (426,0);
},
{
name = top;
pos = (426,496);
}
);
layerId = "883DA8B6-3D8E-4908-9E9E-18B044E47F8D";
shapes = (
{
closed = 1;
nodes = (
(300,-12,o),
(373,28,o),
(403,112,c),
(439,37,o),
(506,-12,o),
(598,-12,cs),
(695,-12,o),
(751,32,o),
(784,81,c),
(730,100,l),
(705,64,o),
(664,36,o),
(603,36,cs),
(533,36,o),
(425,82,o),
(424,244,c),
(811,244,l),
(820,373,o),
(743,506,o),
(596,506,cs),
(517,506,o),
(451,466,o),
(412,398,c),
(387,468,o),
(327,506,o),
(241,506,cs),
(159,506,o),
(88,465,o),
(62,385,c),
(118,372,l),
(130,422,o),
(173,460,o),
(242,460,cs),
(329,460,o),
(372,405,o),
(372,318,cs),
(372,289,l),
(143,282,o),
(34,237,o),
(34,122,cs),
(34,35,o),
(107,-12,o),
(205,-12,cs)
);
},
{
closed = 1;
nodes = (
(135,34,o),
(89,70,o),
(89,125,cs),
(89,208,o),
(178,242,o),
(372,244,c),
(372,195,ls),
(372,77,o),
(294,34,o),
(208,34,cs)
);
},
{
closed = 1;
nodes = (
(442,414,o),
(520,458,o),
(596,458,cs),
(700,458,o),
(753,364,o),
(754,289,c),
(427,289,l)
);
}
);
width = 852;
},
{
anchors = (
{
name = bottom;
pos = (441,0);
},
{
name = top;
pos = (441,496);
}
);
layerId = "5C67A8D6-F0A6-408B-B629-E0E82D5C59F6";
shapes = (
{
closed = 1;
nodes = (
(309,-12,o),
(372,22,o),
(407,68,c),
(452,16,o),
(522,-12,o),
(611,-12,cs),
(690,-12,o),
(777,22,o),
(832,101,c),
(703,149,l),
(685,128,o),
(652,114,o),
(606,114,cs),
(548,114,o),
(508,144,o),
(497,207,c),
(863,207,l),
(873,388,o),
(768,511,o),
(604,511,cs),
(543,511,o),
(487,492,o),
(442,456,c),
(406,495,o),
(350,511,o),
(279,511,cs),
(164,511,o),
(84,460,o),
(51,396,c),
(188,346,l),
(198,384,o),
(231,401,o),
(269,401,cs),
(319,401,o),
(351,382,o),
(351,328,cs),
(351,303,l),
(129,302,o),
(20,244,o),
(20,135,cs),
(20,45,o),
(105,-12,o),
(209,-12,cs)
);
},
{
closed = 1;
nodes = (
(214,100,o),
(189,119,o),
(189,147,cs),
(189,186,o),
(217,208,o),
(350,208,c),
(350,203,ls),
(350,122,o),
(310,100,o),
(252,100,cs)
);
},
{
closed = 1;
nodes = (
(512,365,o),
(553,390,o),
(609,390,cs),
(662,390,o),
(710,364,o),
(712,301,c),
(498,301,l)
);
}
);
width = 883;
},
{
anchors = (
{
name = bottom;
pos = (437,0);
},
{
name = top;
pos = (437,496);
}
);
layerId = "78636F1B-F233-4E70-8C3B-7E1F8D8169C5";
shapes = (
{
closed = 1;
nodes = (
(294,-12,o),
(371,14,o),
(413,92,c),
(451,28,o),
(517,-12,o),
(607,-12,cs),
(700,-12,o),
(768,29,o),
(804,87,c),
(723,111,l),
(700,81,o),
(663,62,o),
(608,62,cs),
(544,62,o),
(466,94,o),
(456,225,c),
(836,225,l),
(846,367,o),
(763,504,o),
(605,504,cs),
(533,504,o),
(469,473,o),
(427,420,c),
(399,476,o),
(344,504,o),
(257,504,cs),
(168,504,o),
(94,460,o),
(67,384,c),
(148,360,l),
(159,408,o),
(199,437,o),
(260,437,cs),
(338,437,o),
(374,390,o),
(374,319,cs),
(374,292,l),
(162,292,o),
(31,243,o),
(31,131,cs),
(31,40,o),
(113,-12,o),
(213,-12,cs)
);
},
{
closed = 1;
nodes = (
(159,55,o),
(124,86,o),
(124,133,cs),
(124,198,o),
(217,225,o),
(374,225,c),
(374,212,ls),
(374,91,o),
(305,55,o),
(227,55,cs)
);
},
{
closed = 1;
nodes = (
(470,393,o),
(531,432,o),
(605,432,cs),
(693,432,o),
(746,362,o),
(747,292,c),
(457,292,l)
);
}
);
width = 866;
},
{
anchors = (
{
name = bottom;
pos = (442,0);
},
{
name = top;
pos = (442,496);
}
);
layerId = "77C32F3B-CDAD-439A-A41B-3F592148655B";
shapes = (
{
closed = 1;
nodes = (
(310,-12,o),
(374,22,o),
(410,71,c),
(454,18,o),
(523,-12,o),
(612,-12,cs),
(693,-12,o),
(777,23,o),
(829,99,c),
(708,143,l),
(689,121,o),
(655,106,o),
(608,106,cs),
(559,106,o),
(505,129,o),
(491,210,c),
(860,210,l),
(870,385,o),
(769,510,o),
(606,510,cs),
(544,510,o),
(486,489,o),
(442,452,c),
(406,493,o),
(351,510,o),
(277,510,cs),
(166,510,o),
(87,460,o),
(55,394,c),
(183,348,l),
(193,388,o),
(227,407,o),
(269,407,cs),
(324,407,o),
(356,383,o),
(356,327,cs),
(356,301,l),
(136,300,o),
(23,244,o),
(23,134,cs),
(23,44,o),
(108,-12,o),
(211,-12,cs)
);
},
{
closed = 1;
nodes = (
(207,93,o),
(180,114,o),
(180,145,cs),
(180,188,o),
(219,211,o),
(356,211,c),
(356,208,ls),
(356,118,o),
(312,93,o),
(250,93,cs)
);
},
{
closed = 1;
nodes = (
(508,377,o),
(562,397,o),
(610,397,cs),
(669,397,o),
(717,364,o),
(719,300,c),
(492,300,l)
);
}
);
width = 881;
}
);
metricLeft = a;
metricRight = e;
unicode = 230;
},
{
glyphname = b;
kernLeft = h;
kernRight = o;
lastChange = "2024-11-01 12:02:53 +0000";
layers = (
{
anchors = (
{
name = bottom;
pos = (276,0);
},
{
name = center;
pos = (276,248);
},
{
name = top;
pos = (276,496);
}
);
layerId = "883DA8B6-3D8E-4908-9E9E-18B044E47F8D";
shapes = (
{
closed = 1;
nodes = (
(398,-12,o),
(505,70,o),
(505,243,cs),
(505,416,o),
(411,506,o),
(293,506,cs),
(211,506,o),
(152,458,o),
(130,405,c),
(130,708,l),
(76,708,l),
(76,0,l),
(116,0,l),
(129,83,l),
(156,34,o),
(202,-12,o),
(294,-12,cs)
);
},
{
closed = 1;
nodes = (
(189,36,o),
(130,118,o),
(130,244,cs),
(130,374,o),
(188,458,o),
(286,458,cs),
(388,458,o),
(450,379,o),
(450,244,cs),
(450,111,o),
(389,36,o),
(287,36,cs)
);
}
);
width = 545;
},
{
anchors = (
{
name = bottom;
pos = (306,0);
},
{
name = center;
pos = (306,248);
},
{
name = top;
pos = (306,496);
}
);
layerId = "5C67A8D6-F0A6-408B-B629-E0E82D5C59F6";
shapes = (
{
closed = 1;
nodes = (
(496,-12,o),
(585,91,o),
(585,253,cs),
(585,415,o),
(496,511,o),
(365,511,cs),
(317,511,o),
(249,485,o),
(216,430,c),
(216,708,l),
(51,708,l),
(51,0,l),
(198,0,l),
(216,66,l),
(249,10,o),
(317,-12,o),
(365,-12,cs)
);
},
{
closed = 1;
nodes = (
(257,115,o),
(208,149,o),
(208,250,cs),
(208,347,o),
(257,385,o),
(312,385,cs),
(367,385,o),
(415,339,o),
(415,253,cs),
(415,166,o),
(367,115,o),
(312,115,cs)
);
}
);
width = 613;
},
{
anchors = (
{
name = bottom;
pos = (285,0);
},
{
name = center;
pos = (285,248);
},
{
name = top;
pos = (285,496);
}
);
layerId = "78636F1B-F233-4E70-8C3B-7E1F8D8169C5";
shapes = (
{
closed = 1;
nodes = (
(430,-12,o),
(530,82,o),
(530,246,cs),
(530,409,o),
(430,504,o),
(317,504,cs),
(239,504,o),
(186,470,o),
(156,418,c),
(156,708,l),
(72,708,l),
(72,0,l),
(134,0,l),
(156,75,l),
(186,22,o),
(239,-12,o),
(317,-12,cs)
);
},
{
closed = 1;
nodes = (
(210,60,o),
(154,128,o),
(154,246,cs),
(154,364,o),
(210,432,o),
(295,432,cs),
(380,432,o),
(436,364,o),
(436,246,cs),
(436,128,o),
(380,60,o),
(295,60,cs)
);
}
);
width = 566;
},
{
anchors = (
{
name = bottom;
pos = (301,0);
},
{
name = center;
pos = (301,248);
},
{
name = top;
pos = (301,496);
}
);
layerId = "77C32F3B-CDAD-439A-A41B-3F592148655B";
shapes = (
{
closed = 1;
nodes = (
(484,-12,o),
(575,90,o),
(575,252,cs),
(575,414,o),
(484,510,o),
(356,510,cs),
(303,510,o),
(237,483,o),
(205,428,c),
(205,708,l),
(53,708,l),
(53,0,l),
(186,0,l),
(205,67,l),
(237,12,o),
(303,-12,o),
(356,-12,cs)
);
},
{
closed = 1;
nodes = (
(248,106,o),
(198,146,o),
(198,249,cs),
(198,350,o),
(248,392,o),
(308,392,cs),
(367,392,o),
(417,343,o),
(417,252,cs),
(417,160,o),
(367,106,o),
(308,106,cs)
);
}
);
width = 603;
}
);
metricLeft = n;
metricRight = o;
unicode = 98;
},
{
glyphname = c;
kernLeft = o;
kernRight = c;
lastChange = "2024-11-01 12:02:53 +0000";
layers = (
{
anchors = (
{
name = bottom;
pos = (259,0);
},
{
name = top;
pos = (261,496);
}
);
layerId = "883DA8B6-3D8E-4908-9E9E-18B044E47F8D";
shapes = (
{
closed = 1;
nodes = (
(356,-12,o),
(415,44,o),
(444,94,c),
(393,113,l),
(369,66,o),
(319,36,o),
(259,36,cs),
(174,36,o),
(95,103,o),
(95,245,cs),
(95,391,o),
(175,458,o),
(261,458,cs),
(319,458,o),
(367,430,o),
(392,380,c),
(440,398,l),
(416,443,o),
(362,506,o),
(265,506,cs),
(121,506,o),
(40,387,o),
(40,243,cs),
(40,97,o),
(129,-12,o),
(259,-12,cs)
);
}
);
width = 469;
},
{
anchors = (
{
name = bottom;
pos = (286,0);
},
{
name = top;
pos = (297,496);
}
);
layerId = "5C67A8D6-F0A6-408B-B629-E0E82D5C59F6";
shapes = (
{
closed = 1;
nodes = (
(363,-12,o),
(459,15,o),
(512,110,c),
(380,158,l),
(363,130,o),
(336,114,o),
(296,114,cs),
(246,114,o),
(195,146,o),
(195,251,cs),
(195,352,o),
(245,385,o),
(296,385,cs),
(331,385,o),
(364,371,o),
(379,328,c),
(515,378,l),
(466,483,o),
(368,511,o),
(284,511,cs),
(132,511,o),
(28,409,o),
(28,252,cs),
(28,94,o),
(118,-12,o),
(286,-12,cs)
);
}
);
width = 523;
},
{
anchors = (
{
name = bottom;
pos = (267,0);
},
{
name = top;
pos = (272,496);
}
);
layerId = "78636F1B-F233-4E70-8C3B-7E1F8D8169C5";
shapes = (
{
closed = 1;
nodes = (
(355,-12,o),
(428,35,o),
(465,99,c),
(388,127,l),
(366,90,o),
(324,62,o),
(270,62,cs),
(196,62,o),
(127,122,o),
(127,247,cs),
(127,372,o),
(195,430,o),
(270,430,cs),
(321,430,o),
(364,404,o),
(386,364,c),
(463,392,l),
(431,453,o),
(365,504,o),
(276,504,cs),
(129,504,o),
(36,394,o),
(36,246,cs),
(36,96,o),
(125,-12,o),
(267,-12,cs)
);
}
);
width = 485;
},
{
anchors = (
{
name = bottom;
pos = (282,0);
},
{
name = top;
pos = (292,496);
}
);
layerId = "77C32F3B-CDAD-439A-A41B-3F592148655B";
shapes = (
{
closed = 1;
nodes = (
(361,-12,o),
(453,18,o),
(504,108,c),
(380,153,l),
(363,124,o),
(333,106,o),
(291,106,cs),
(237,106,o),
(183,142,o),
(183,250,cs),
(183,355,o),
(236,392,o),
(291,392,cs),
(329,392,o),
(363,376,o),
(379,334,c),
(506,380,l),
(460,478,o),
(367,510,o),
(282,510,cs),
(131,510,o),
(28,407,o),
(28,251,cs),
(28,94,o),
(118,-12,o),
(282,-12,cs)
);
}
);
width = 516;
}
);
metricLeft = o;
unicode = 99;
},
{
glyphname = ccedilla;
kernLeft = o;
kernRight = c;
lastChange = "2024-11-01 12:02:53 +0000";
layers = (
{
anchors = (
{
name = top;
pos = (261,496);
}
);
layerId = "883DA8B6-3D8E-4908-9E9E-18B044E47F8D";
shapes = (
{
closed = 1;
nodes = (
(314,-177,o),
(338,-127,o),
(338,-99,cs),
(338,-71,o),
(317,-44,o),
(276,-44,cs),
(270,-44,o),
(258,-45,o),
(245,-48,c),
(268,-12,l),
(360,-8,o),
(416,46,o),
(444,94,c),
(393,113,l),
(369,66,o),
(319,36,o),
(259,36,cs),
(174,36,o),
(95,103,o),
(95,245,cs),
(95,391,o),
(175,458,o),
(261,458,cs),
(319,458,o),
(367,430,o),
(392,380,c),
(440,398,l),
(416,443,o),
(362,506,o),
(265,506,cs),
(121,506,o),
(40,387,o),
(40,243,cs),
(40,108,o),
(117,4,o),
(231,-10,c),
(204,-55,ls),
(195,-69,o),
(198,-83,o),
(213,-83,cs),
(223,-83,o),
(240,-77,o),
(255,-77,cs),
(286,-77,o),
(296,-88,o),
(296,-108,cs),
(296,-122,o),
(285,-145,o),
(246,-145,cs),
(228,-145,o),
(211,-142,o),
(183,-128,c),
(169,-153,l),
(192,-165,o),
(225,-177,o),
(246,-177,cs)
);
}
);
width = 469;
},
{
anchors = (
{
name = top;
pos = (297,496);
}
);
layerId = "5C67A8D6-F0A6-408B-B629-E0E82D5C59F6";
shapes = (
{
closed = 1;
nodes = (
(339,-188,o),
(408,-170,o),
(408,-108,cs),
(408,-59,o),
(355,-46,o),
(318,-46,cs),
(303,-46,o),
(292,-47,o),
(284,-49,c),
(307,-11,l),
(380,-7,o),
(464,24,o),
(512,110,c),
(380,158,l),
(363,130,o),
(336,114,o),
(296,114,cs),
(246,114,o),
(195,146,o),
(195,251,cs),
(195,352,o),
(245,385,o),
(296,385,cs),
(331,385,o),
(364,371,o),
(379,328,c),
(515,378,l),
(466,483,o),
(368,511,o),
(284,511,cs),
(132,511,o),
(28,409,o),
(28,252,cs),
(28,106,o),
(105,4,o),
(249,-10,c),
(219,-59,ls),
(209,-75,o),
(220,-96,o),
(244,-90,cs),
(253,-87,o),
(263,-85,o),
(270,-85,cs),
(292,-85,o),
(308,-94,o),
(308,-111,cs),
(308,-131,o),
(287,-136,o),
(265,-136,cs),
(239,-136,o),
(212,-129,o),
(203,-124,c),
(187,-176,l),
(210,-183,o),
(242,-188,o),
(275,-188,cs)
);
}
);
width = 523;
},
{
anchors = (
{
name = top;
pos = (272,496);
}
);
layerId = "78636F1B-F233-4E70-8C3B-7E1F8D8169C5";
shapes = (
{
closed = 1;
nodes = (
(327,-183,o),
(359,-142,o),
(359,-104,cs),
(359,-72,o),
(336,-41,o),
(290,-41,cs),
(281,-41,o),
(271,-43,o),
(260,-45,c),
(280,-12,l),
(362,-7,o),
(430,38,o),
(465,99,c),
(388,127,l),
(366,90,o),
(324,62,o),
(270,62,cs),
(196,62,o),
(127,122,o),
(127,247,cs),
(127,372,o),
(195,430,o),
(270,430,cs),
(321,430,o),
(364,404,o),
(386,364,c),
(463,392,l),
(431,453,o),
(365,504,o),
(276,504,cs),
(129,504,o),
(36,394,o),
(36,246,cs),
(36,108,o),
(111,5,o),
(234,-10,c),
(205,-57,ls),
(196,-71,o),
(205,-89,o),
(228,-83,cs),
(240,-80,o),
(252,-79,o),
(261,-79,cs),
(288,-79,o),
(299,-92,o),
(299,-108,cs),
(299,-124,o),
(286,-142,o),
(246,-142,cs),
(230,-142,o),
(211,-138,o),
(188,-128,c),
(174,-163,l),
(208,-177,o),
(237,-183,o),
(262,-183,cs)
);
}
);
width = 485;
},
{
anchors = (
{
name = top;
pos = (292,496);
}
);
layerId = "77C32F3B-CDAD-439A-A41B-3F592148655B";
shapes = (
{
closed = 1;
nodes = (
(336,-187,o),
(399,-165,o),
(399,-107,cs),
(399,-61,o),
(351,-45,o),
(313,-45,cs),
(299,-45,o),
(288,-46,o),
(279,-48,c),
(302,-11,l),
(376,-7,o),
(457,25,o),
(504,108,c),
(380,153,l),
(363,124,o),
(333,106,o),
(291,106,cs),
(237,106,o),
(183,142,o),
(183,250,cs),
(183,355,o),
(236,392,o),
(291,392,cs),
(329,392,o),
(363,376,o),
(379,334,c),
(506,380,l),
(460,478,o),
(367,510,o),
(282,510,cs),
(131,510,o),
(28,407,o),
(28,251,cs),
(28,106,o),
(105,4,o),
(246,-10,c),
(216,-59,ls),
(206,-75,o),
(223,-95,o),
(241,-89,cs),
(250,-86,o),
(260,-84,o),
(268,-84,cs),
(290,-84,o),
(305,-94,o),
(305,-110,cs),
(305,-130,o),
(285,-137,o),
(261,-137,cs),
(237,-137,o),
(211,-130,o),
(200,-124,c),
(184,-174,l),
(209,-182,o),
(240,-187,o),
(272,-187,cs)
);
}
);
width = 516;
}
);
unicode = 231;
},
{
glyphname = d;
kernLeft = o;
kernRight = d;
lastChange = "2024-11-01 12:02:53 +0000";
layers = (
{
anchors = (
{
name = bottom;
pos = (267,0);
},
{
name = center;
pos = (401,581);
},
{
name = top;
pos = (267,796);
},
{
name = topright;
pos = (515,498);
}
);
layerId = "883DA8B6-3D8E-4908-9E9E-18B044E47F8D";
shapes = (
{
closed = 1;
nodes = (
(337,-12,o),
(388,29,o),
(414,80,c),
(437,0,l),
(487,0,l),
(469,94,o),
(470,159,o),
(470,183,cs),
(470,708,l),
(416,708,l),
(416,409,l),
(388,461,o),
(340,506,o),
(249,506,cs),
(131,506,o),
(40,409,o),
(40,243,cs),
(40,75,o),
(141,-12,o),
(249,-12,cs)
);
},
{
closed = 1;
nodes = (
(156,36,o),
(95,111,o),
(95,243,cs),
(95,378,o),
(155,458,o),
(257,458,cs),
(354,458,o),
(416,374,o),
(416,244,cs),
(416,118,o),
(356,36,o),
(257,36,cs)
);
}
);
width = 549;
},
{
anchors = (
{
name = bottom;
pos = (307,0);
},
{
name = center;
pos = (450,584);
},
{
name = top;
pos = (307,796);
},
{
name = topright;
pos = (577,496);
}
);
layerId = "5C67A8D6-F0A6-408B-B629-E0E82D5C59F6";
shapes = (
{
closed = 1;
nodes = (
(297,-12,o),
(357,8,o),
(402,63,c),
(421,0,l),
(579,0,l),
(565,70,o),
(562,142,o),
(562,195,cs),
(562,708,l),
(397,708,l),
(397,430,l),
(364,486,o),
(297,511,o),
(248,511,cs),
(118,511,o),
(28,415,o),
(28,253,cs),
(28,92,o),
(117,-12,o),
(248,-12,cs)
);
},
{
closed = 1;
nodes = (
(246,115,o),
(198,166,o),
(198,253,cs),
(198,340,o),
(246,385,o),
(302,385,cs),
(356,385,o),
(405,348,o),
(405,250,cs),
(405,149,o),
(356,115,o),
(302,115,cs)
);
}
);
width = 612;
},
{
anchors = (
{
name = bottom;
pos = (279,0);
},
{
name = center;
pos = (416,582);
},
{
name = top;
pos = (279,796);
},
{
name = topright;
pos = (534,497);
}
);
layerId = "78636F1B-F233-4E70-8C3B-7E1F8D8169C5";
shapes = (
{
closed = 1;
nodes = (
(327,-12,o),
(383,22,o),
(410,75,c),
(432,0,l),
(511,0,l),
(495,87,o),
(494,154,o),
(494,187,cs),
(494,708,l),
(410,708,l),
(410,418,l),
(380,470,o),
(327,504,o),
(249,504,cs),
(136,504,o),
(36,409,o),
(36,246,cs),
(36,82,o),
(136,-12,o),
(249,-12,cs)
);
},
{
closed = 1;
nodes = (
(186,60,o),
(130,128,o),
(130,246,cs),
(130,364,o),
(186,432,o),
(271,432,cs),
(356,432,o),
(412,364,o),
(412,246,cs),
(412,128,o),
(356,60,o),
(271,60,cs)
);
}
);
width = 564;
},
{
anchors = (
{
name = bottom;
pos = (302,0);
},
{
name = center;
pos = (451,584);
},
{
name = top;
pos = (302,796);
},
{
name = topright;
pos = (570,496);
}
);
layerId = "77C32F3B-CDAD-439A-A41B-3F592148655B";
shapes = (
{
closed = 1;
nodes = (
(300,-12,o),
(357,9,o),
(403,63,c),
(422,0,l),
(567,0,l),
(553,73,o),
(550,144,o),
(550,194,cs),
(550,708,l),
(398,708,l),
(398,428,l),
(366,483,o),
(301,510,o),
(247,510,cs),
(119,510,o),
(28,414,o),
(28,252,cs),
(28,90,o),
(119,-12,o),
(247,-12,cs)
);
},
{
closed = 1;
nodes = (
(236,106,o),
(186,160,o),
(186,252,cs),
(186,343,o),
(236,392,o),
(296,392,cs),
(355,392,o),
(405,350,o),
(405,249,cs),
(405,146,o),
(355,106,o),
(296,106,cs)
);
}
);
width = 603;
}
);
metricLeft = o;
unicode = 100;
},
{
glyphname = dcroat;
kernLeft = o;
kernRight = d;
lastChange = "2024-11-01 12:02:53 +0000";
layers = (
{
layerId = "883DA8B6-3D8E-4908-9E9E-18B044E47F8D";
shapes = (
{
closed = 1;
nodes = (
(337,-12,o),
(388,29,o),
(414,80,c),
(437,0,l),
(487,0,l),
(469,94,o),
(470,159,o),
(470,183,cs),
(470,561,l),
(545,561,l),
(545,601,l),
(470,601,l),
(470,708,l),
(416,708,l),
(416,601,l),
(257,601,l),
(257,561,l),
(416,561,l),
(416,409,l),
(388,461,o),
(340,506,o),
(249,506,cs),
(131,506,o),
(40,409,o),
(40,243,cs),
(40,75,o),
(141,-12,o),
(249,-12,cs)
);
},
{
closed = 1;
nodes = (
(156,36,o),
(95,111,o),
(95,243,cs),
(95,378,o),
(155,458,o),
(257,458,cs),
(354,458,o),
(416,374,o),
(416,244,cs),
(416,118,o),
(356,36,o),
(257,36,cs)
);
}
);
width = 549;
},
{
layerId = "5C67A8D6-F0A6-408B-B629-E0E82D5C59F6";
shapes = (
{
closed = 1;
nodes = (
(297,-12,o),
(357,8,o),
(402,63,c),
(421,0,l),
(579,0,l),
(565,70,o),
(562,142,o),
(562,195,cs),
(562,544,l),
(637,544,l),
(637,624,l),
(562,624,l),
(562,708,l),
(397,708,l),
(397,624,l),
(261,624,l),
(261,544,l),
(397,544,l),
(397,430,l),
(364,486,o),
(297,511,o),
(248,511,cs),
(118,511,o),
(28,415,o),
(28,253,cs),
(28,92,o),
(117,-12,o),
(248,-12,cs)
);
},
{
closed = 1;
nodes = (
(246,115,o),
(198,166,o),
(198,253,cs),
(198,340,o),
(246,385,o),
(302,385,cs),
(356,385,o),
(405,348,o),
(405,250,cs),
(405,149,o),
(356,115,o),
(302,115,cs)
);
}
);
width = 612;
},
{
layerId = "78636F1B-F233-4E70-8C3B-7E1F8D8169C5";
shapes = (
{
closed = 1;
nodes = (
(327,-12,o),
(383,22,o),
(410,75,c),
(432,0,l),
(511,0,l),
(495,87,o),
(494,154,o),
(494,187,cs),
(494,548,l),
(580,548,l),
(580,615,l),
(494,615,l),
(494,708,l),
(410,708,l),
(410,615,l),
(251,615,l),
(251,548,l),
(410,548,l),
(410,418,l),
(380,470,o),
(327,504,o),
(249,504,cs),
(136,504,o),
(36,409,o),
(36,246,cs),
(36,82,o),
(136,-12,o),
(249,-12,cs)
);
},
{
closed = 1;
nodes = (
(186,60,o),
(130,128,o),
(130,246,cs),
(130,364,o),
(186,432,o),
(271,432,cs),
(356,432,o),
(412,364,o),
(412,246,cs),
(412,128,o),
(356,60,o),
(271,60,cs)
);
}
);
width = 564;
},
{
layerId = "77C32F3B-CDAD-439A-A41B-3F592148655B";
shapes = (
{
closed = 1;
nodes = (
(300,-12,o),
(357,9,o),
(403,63,c),
(422,0,l),
(567,0,l),
(553,73,o),
(550,144,o),
(550,194,cs),
(550,545,l),
(635,545,l),
(635,623,l),
(550,623,l),
(550,708,l),
(398,708,l),
(398,623,l),
(266,623,l),
(266,545,l),
(398,545,l),
(398,428,l),
(366,483,o),
(301,510,o),
(247,510,cs),
(119,510,o),
(28,414,o),
(28,252,cs),
(28,90,o),
(119,-12,o),
(247,-12,cs)
);
},
{
closed = 1;
nodes = (
(236,106,o),
(186,160,o),
(186,252,cs),
(186,343,o),
(236,392,o),
(296,392,cs),
(355,392,o),
(405,350,o),
(405,249,cs),
(405,146,o),
(355,106,o),
(296,106,cs)
);
}
);
width = 603;
}
);
metricLeft = d;
unicode = 273;
},
{
glyphname = eth;
kernLeft = o;
kernRight = eth;
lastChange = "2024-11-01 12:02:53 +0000";
layers = (
{
anchors = (
{
name = bottom;
pos = (269,0);
},
{
name = top;
pos = (269,796);
}
);
layerId = "883DA8B6-3D8E-4908-9E9E-18B044E47F8D";
shapes = (
{
closed = 1;
nodes = (
(435,-12,o),
(486,147,o),
(486,311,cs),
(486,450,o),
(464,566,o),
(393,640,c),
(430,678,l),
(402,705,l),
(361,665,l),
(305,697,o),
(238,708,o),
(171,708,c),
(171,663,l),
(234,663,o),
(291,651,o),
(326,629,c),
(250,553,l),
(277,525,l),
(358,604,l),
(402,559,o),
(435,482,o),
(437,325,c),
(414,387,o),
(349,441,o),
(256,441,cs),
(131,441,o),
(40,348,o),
(40,212,cs),
(40,100,o),
(119,-12,o),
(257,-12,cs)
);
},
{
closed = 1;
nodes = (
(157,36,o),
(94,109,o),
(94,212,cs),
(94,320,o),
(161,394,o),
(256,394,cs),
(356,394,o),
(422,318,o),
(422,212,cs),
(422,109,o),
(353,36,o),
(257,36,cs)
);
}
);
width = 545;
},
{
anchors = (
{
name = bottom;
pos = (301,0);
},
{
name = top;
pos = (301,796);
}
);
layerId = "5C67A8D6-F0A6-408B-B629-E0E82D5C59F6";
shapes = (
{
closed = 1;
nodes = (
(483,-12,o),
(567,131,o),
(567,321,cs),
(567,477,o),
(507,593,o),
(435,646,c),
(484,694,l),
(434,744,l),
(376,686,l),
(323,717,o),
(256,735,o),
(167,735,c),
(167,604,l),
(207,604,o),
(244,597,o),
(275,584,c),
(225,534,l),
(275,485,l),
(336,547,l),
(374,514,o),
(396,468,o),
(396,413,c),
(361,438,o),
(321,453,o),
(259,453,cs),
(139,453,o),
(28,356,o),
(28,220,cs),
(28,75,o),
(141,-12,o),
(295,-12,cs)
);
},
{
closed = 1;
nodes = (
(233,109,o),
(196,153,o),
(196,221,cs),
(196,286,o),
(233,332,o),
(295,332,cs),
(354,332,o),
(395,289,o),
(395,221,cs),
(395,153,o),
(355,109,o),
(295,109,cs)
);
}
);
width = 599;
},
{
anchors = (
{
name = bottom;
pos = (282,0);
},
{
name = top;
pos = (282,796);
}
);
layerId = "78636F1B-F233-4E70-8C3B-7E1F8D8169C5";
shapes = (
{
closed = 1;
nodes = (
(461,-12,o),
(515,138,o),
(515,316,cs),
(515,450,o),
(482,569,o),
(411,633,c),
(451,673,l),
(415,709,l),
(369,663,l),
(314,696,o),
(247,708,o),
(173,708,c),
(173,631,l),
(229,631,o),
(275,624,o),
(311,605,c),
(245,539,l),
(281,503,l),
(354,576,l),
(396,535,o),
(422,473,o),
(428,353,c),
(397,405,o),
(340,445,o),
(252,445,cs),
(127,445,o),
(36,352,o),
(36,218,cs),
(36,94,o),
(128,-12,o),
(271,-12,cs)
);
},
{
closed = 1;
nodes = (
(183,59,o),
(126,123,o),
(126,215,cs),
(126,307,o),
(183,371,o),
(271,371,cs),
(360,371,o),
(417,307,o),
(417,215,cs),
(417,123,o),
(360,59,o),
(271,59,cs)
);
}
);
width = 565;
},
{
anchors = (
{
name = bottom;
pos = (297,0);
},
{
name = top;
pos = (297,796);
}
);
layerId = "77C32F3B-CDAD-439A-A41B-3F592148655B";
shapes = (
{
closed = 1;
nodes = (
(479,-12,o),
(558,133,o),
(558,318,cs),
(558,468,o),
(502,585,o),
(430,639,c),
(478,686,l),
(430,734,l),
(374,678,l),
(321,709,o),
(254,726,o),
(167,726,c),
(167,604,l),
(210,604,o),
(248,597,o),
(280,583,c),
(227,530,l),
(275,483,l),
(338,547,l),
(377,513,o),
(399,464,o),
(400,403,c),
(366,433,o),
(323,452,o),
(257,452,cs),
(136,452,o),
(28,355,o),
(28,220,cs),
(28,78,o),
(138,-12,o),
(290,-12,cs)
);
},
{
closed = 1;
nodes = (
(224,101,o),
(184,148,o),
(184,220,cs),
(184,289,o),
(224,338,o),
(290,338,cs),
(354,338,o),
(398,292,o),
(398,220,cs),
(398,148,o),
(355,101,o),
(290,101,c)
);
}
);
width = 593;
}
);
metricLeft = d;
unicode = 240;
},
{
glyphname = e;
kernLeft = o;
kernRight = e;
lastChange = "2024-11-01 12:02:53 +0000";
layers = (
{
anchors = (
{
name = bottom;
pos = (258,0);
},
{
name = ogonek;
pos = (411,10);
},
{
name = top;
pos = (271,496);
}
);
layerId = "883DA8B6-3D8E-4908-9E9E-18B044E47F8D";
shapes = (
{
closed = 1;
nodes = (
(365,-12,o),
(421,32,o),
(454,81,c),
(400,100,l),
(375,64,o),
(334,36,o),
(273,36,cs),
(203,36,o),
(96,82,o),
(95,244,c),
(481,244,l),
(490,373,o),
(413,506,o),
(266,506,cs),
(137,506,o),
(40,404,o),
(40,245,cs),
(40,102,o),
(125,-12,o),
(268,-12,cs)
);
},
{
closed = 1;
nodes = (
(112,414,o),
(190,458,o),
(266,458,cs),
(370,458,o),
(423,364,o),
(424,289,c),
(97,289,l)
);
}
);
width = 522;
},
{
anchors = (
{
name = bottom;
pos = (292,0);
},
{
name = ogonek;
pos = (482,10);
},
{
name = top;
pos = (305,496);
}
);
layerId = "5C67A8D6-F0A6-408B-B629-E0E82D5C59F6";
shapes = (
{
closed = 1;
nodes = (
(384,-12,o),
(471,22,o),
(526,101,c),
(397,149,l),
(379,128,o),
(345,114,o),
(300,114,cs),
(247,114,o),
(203,144,o),
(188,205,c),
(556,205,l),
(570,388,o),
(462,511,o),
(298,511,cs),
(151,511,o),
(28,410,o),
(28,252,cs),
(28,84,o),
(143,-12,o),
(305,-12,cs)
);
},
{
closed = 1;
nodes = (
(201,365,o),
(248,390,o),
(303,390,cs),
(357,390,o),
(400,363,o),
(406,301,c),
(187,301,l)
);
}
);
width = 576;
},
{
anchors = (
{
name = bottom;
pos = (268,0);
},
{
name = ogonek;
pos = (435,10);
},
{
name = top;
pos = (281,496);
}
);
layerId = "78636F1B-F233-4E70-8C3B-7E1F8D8169C5";
shapes = (
{
closed = 1;
nodes = (
(372,-12,o),
(440,29,o),
(476,87,c),
(395,111,l),
(372,81,o),
(335,62,o),
(279,62,cs),
(222,62,o),
(135,94,o),
(124,225,c),
(508,225,l),
(518,367,o),
(435,504,o),
(277,504,cs),
(141,504,o),
(36,404,o),
(36,247,cs),
(36,101,o),
(123,-12,o),
(279,-12,cs)
);
},
{
closed = 1;
nodes = (
(139,398,o),
(210,432,o),
(277,432,cs),
(365,432,o),
(418,362,o),
(419,292,c),
(125,292,l)
);
}
);
width = 538;
},
{
anchors = (
{
name = bottom;
pos = (287,0);
},
{
name = ogonek;
pos = (475,10);
},
{
name = top;
pos = (300,496);
}
);
layerId = "77C32F3B-CDAD-439A-A41B-3F592148655B";
shapes = (
{
closed = 1;
nodes = (
(381,-12,o),
(465,23,o),
(517,99,c),
(396,143,l),
(377,121,o),
(343,106,o),
(296,106,cs),
(242,106,o),
(192,137,o),
(177,208,c),
(548,208,l),
(561,385,o),
(457,510,o),
(294,510,cs),
(149,510,o),
(28,409,o),
(28,251,cs),
(28,87,o),
(139,-12,o),
(300,-12,cs)
);
},
{
closed = 1;
nodes = (
(191,371,o),
(241,397,o),
(298,397,cs),
(357,397,o),
(402,363,o),
(407,300,c),
(176,300,l)
);
}
);
width = 569;
}
);
metricLeft = o;
unicode = 101;
},
{
glyphname = eogonek;
kernLeft = o;
kernRight = e;
lastChange = "2024-11-01 12:02:53 +0000";
layers = (
{
anchors = (
{
name = bottom;
pos = (258,0);
},
{
name = top;
pos = (271,496);
}
);
guides = (
{
angle = 90;
pos = (454,174);
},
{
angle = 90;
pos = (411,174);
}
);
layerId = "883DA8B6-3D8E-4908-9E9E-18B044E47F8D";
shapes = (
{
closed = 1;
nodes = (
(379,-168,o),
(391,-167,o),
(411,-159,c),
(411,-120,l),
(399,-126,o),
(387,-127,o),
(379,-127,cs),
(348,-127,o),
(326,-108,o),
(326,-78,cs),
(326,-44,o),
(342,-11,o),
(386,17,cs),
(413,34,o),
(437,54,o),
(454,81,c),
(400,100,l),
(375,64,o),
(334,36,o),
(273,36,cs),
(203,36,o),
(96,82,o),
(95,244,c),
(481,244,l),
(490,373,o),
(413,506,o),
(266,506,cs),
(137,506,o),
(40,404,o),
(40,245,cs),
(40,74,o),
(155,-35,o),
(318,-8,c),
(295,-32,o),
(281,-63,o),
(281,-94,cs),
(281,-140,o),
(316,-168,o),
(363,-168,cs)
);
},
{
closed = 1;
nodes = (
(112,414,o),
(190,458,o),
(266,458,cs),
(370,458,o),
(423,364,o),
(424,289,c),
(97,289,l)
);
}
);
width = 522;
},
{
anchors = (
{
name = bottom;
pos = (292,0);
},
{
name = top;
pos = (305,496);
}
);
layerId = "5C67A8D6-F0A6-408B-B629-E0E82D5C59F6";
shapes = (
{
closed = 1;
nodes = (
(426,-174,o),
(468,-169,o),
(482,-165,c),
(482,-86,l),
(475,-87,o),
(452,-95,o),
(431,-95,cs),
(410,-95,o),
(385,-88,o),
(385,-56,cs),
(385,-21,o),
(414,6,o),
(445,26,cs),
(475,46,o),
(503,69,o),
(526,101,c),
(397,149,l),
(379,128,o),
(345,114,o),
(300,114,cs),
(247,114,o),
(203,144,o),
(188,205,c),
(556,205,l),
(570,388,o),
(462,511,o),
(298,511,cs),
(151,511,o),
(28,410,o),
(28,252,cs),
(28,97,o),
(126,3,o),
(269,-10,c),
(257,-27,o),
(249,-48,o),
(249,-72,cs),
(249,-126,o),
(283,-174,o),
(400,-174,cs)
);
},
{
closed = 1;
nodes = (
(201,365,o),
(248,390,o),
(303,390,cs),
(357,390,o),
(400,363,o),
(406,301,c),
(187,301,l)
);
}
);
width = 576;
},
{
anchors = (
{
name = bottom;
pos = (268,0);
},
{
name = top;
pos = (281,496);
}
);
layerId = "78636F1B-F233-4E70-8C3B-7E1F8D8169C5";
shapes = (
{
closed = 1;
nodes = (
(391,-173,o),
(412,-169,o),
(435,-161,c),
(435,-107,l),
(422,-113,o),
(409,-115,o),
(397,-115,cs),
(369,-115,o),
(348,-101,o),
(348,-71,cs),
(348,-32,o),
(375,0,o),
(404,18,cs),
(434,37,o),
(459,60,o),
(476,87,c),
(395,111,l),
(372,81,o),
(335,62,o),
(279,62,cs),
(222,62,o),
(135,94,o),
(124,225,c),
(508,225,l),
(518,367,o),
(435,504,o),
(277,504,cs),
(141,504,o),
(36,404,o),
(36,247,cs),
(36,81,o),
(144,-24,o),
(308,-11,c),
(291,-31,o),
(278,-58,o),
(278,-91,cs),
(278,-134,o),
(312,-173,o),
(372,-173,cs)
);
},
{
closed = 1;
nodes = (
(139,398,o),
(210,432,o),
(277,432,cs),
(365,432,o),
(418,362,o),
(419,292,c),
(125,292,l)
);
}
);
width = 538;
},
{
anchors = (
{
name = bottom;
pos = (287,0);
},
{
name = top;
pos = (300,496);
}
);
layerId = "77C32F3B-CDAD-439A-A41B-3F592148655B";
shapes = (
{
closed = 1;
nodes = (
(420,-174,o),
(459,-169,o),
(474,-164,c),
(474,-89,l),
(466,-91,o),
(445,-98,o),
(425,-98,cs),
(403,-98,o),
(379,-90,o),
(379,-58,cs),
(379,-22,o),
(410,5,o),
(440,26,cs),
(470,44,o),
(496,68,o),
(517,99,c),
(396,143,l),
(377,121,o),
(343,106,o),
(296,106,cs),
(242,106,o),
(192,137,o),
(177,208,c),
(548,208,l),
(561,385,o),
(457,510,o),
(294,510,cs),
(149,510,o),
(28,409,o),
(28,251,cs),
(28,96,o),
(127,-1,o),
(274,-11,c),
(261,-28,o),
(253,-50,o),
(253,-75,cs),
(253,-127,o),
(287,-174,o),
(395,-174,cs)
);
},
{
closed = 1;
nodes = (
(191,371,o),
(241,397,o),
(298,397,cs),
(357,397,o),
(402,363,o),
(407,300,c),
(176,300,l)
);
}
);
width = 569;
}
);
metricLeft = e;
metricRight = e;
unicode = 281;
},
{
glyphname = f;
kernLeft = f;
kernRight = f;
lastChange = "2024-11-01 12:02:53 +0000";
layers = (
{
anchors = (
{
name = bottom;
pos = (143,0);
},
{
name = top;
pos = (143,796);
}
);
layerId = "883DA8B6-3D8E-4908-9E9E-18B044E47F8D";
shapes = (
{
closed = 1;
nodes = (
(156,0,l),
(156,452,l),
(256,452,l),
(256,496,l),
(156,496,l),
(156,608,ls),
(156,659,o),
(169,668,o),
(207,668,cs),
(256,668,l),
(256,716,l),
(211,716,ls),
(123,716,o),
(102,693,o),
(102,598,cs),
(102,496,l),
(17,496,l),
(17,452,l),
(102,452,l),
(102,0,l)
);
}
);
width = 286;
},
{
anchors = (
{
name = bottom;
pos = (195,0);
},
{
name = top;
pos = (195,796);
}
);
layerId = "5C67A8D6-F0A6-408B-B629-E0E82D5C59F6";
shapes = (
{
closed = 1;
nodes = (
(256,0,l),
(256,371,l),
(365,371,l),
(365,496,l),
(256,496,l),
(256,547,ls),
(256,583,o),
(269,589,o),
(325,589,cs),
(365,589,l),
(365,718,l),
(293,718,ls),
(154,718,o),
(91,685,o),
(91,564,cs),
(91,496,l),
(9,496,l),
(9,371,l),
(91,371,l),
(91,0,l)
);
}
);
width = 389;
},
{
anchors = (
{
name = bottom;
pos = (156,0);
},
{
name = top;
pos = (156,796);
}
);
layerId = "78636F1B-F233-4E70-8C3B-7E1F8D8169C5";
shapes = (
{
closed = 1;
nodes = (
(183,0,l),
(183,429,l),
(286,429,l),
(286,496,l),
(183,496,l),
(183,583,ls),
(183,634,o),
(191,647,o),
(234,647,cs),
(286,647,l),
(286,718,l),
(232,718,ls),
(121,718,o),
(99,684,o),
(99,582,cs),
(99,496,l),
(15,496,l),
(15,429,l),
(99,429,l),
(99,0,l)
);
}
);
width = 314;
},
{
anchors = (
{
name = bottom;
pos = (189,0);
},
{
name = top;
pos = (189,796);
}
);
layerId = "77C32F3B-CDAD-439A-A41B-3F592148655B";
shapes = (
{
closed = 1;
nodes = (
(244,0,l),
(244,380,l),
(352,380,l),
(352,496,l),
(244,496,l),
(244,553,ls),
(244,591,o),
(256,598,o),
(310,598,cs),
(352,598,l),
(352,718,l),
(283,718,ls),
(149,718,o),
(92,685,o),
(92,567,cs),
(92,496,l),
(10,496,l),
(10,380,l),
(92,380,l),
(92,0,l)
);
}
);
width = 377;
}
);
unicode = 102;
},
{
glyphname = g;
kernLeft = g;
kernRight = g;
lastChange = "2024-11-01 12:02:53 +0000";
layers = (
{
anchors = (
{
name = bottom;
pos = (265,-251);
},
{
name = top;
pos = (265,496);
}
);
layerId = "883DA8B6-3D8E-4908-9E9E-18B044E47F8D";
shapes = (
{
closed = 1;
nodes = (
(382,-186,o),
(461,-117,o),
(461,-4,cs),
(461,496,l),
(421,496,l),
(407,413,l),
(379,464,o),
(338,506,o),
(254,506,cs),
(127,506,o),
(40,407,o),
(40,248,cs),
(40,82,o),
(141,4,o),
(252,4,cs),
(340,4,o),
(385,52,o),
(407,98,c),
(407,0,ls),
(407,-95,o),
(348,-137,o),
(263,-137,cs),
(192,-137,o),
(146,-108,o),
(133,-57,c),
(78,-72,l),
(98,-152,o),
(180,-186,o),
(261,-186,cs)
);
},
{
closed = 1;
nodes = (
(162,52,o),
(95,123,o),
(95,249,cs),
(95,378,o),
(161,458,o),
(255,458,cs),
(338,458,o),
(407,394,o),
(407,252,cs),
(407,111,o),
(339,52,o),
(256,52,cs)
);
}
);
width = 535;
},
{
anchors = (
{
name = bottom;
pos = (309,-251);
},
{
name = top;
pos = (309,496);
}
);
layerId = "5C67A8D6-F0A6-408B-B629-E0E82D5C59F6";
shapes = (
{
closed = 1;
nodes = (
(459,-205,o),
(563,-136,o),
(563,42,cs),
(563,496,l),
(419,496,l),
(399,430,l),
(360,484,o),
(296,512,o),
(236,512,cs),
(135,512,o),
(28,435,o),
(28,260,cs),
(28,110,o),
(135,20,o),
(242,20,cs),
(294,20,o),
(354,43,o),
(399,96,c),
(399,9,ls),
(399,-62,o),
(350,-82,o),
(306,-82,cs),
(254,-82,o),
(225,-62,o),
(206,-34,c),
(77,-93,l),
(126,-180,o),
(221,-205,o),
(303,-205,cs)
);
},
{
closed = 1;
nodes = (
(247,147,o),
(198,186,o),
(198,269,cs),
(198,351,o),
(247,385,o),
(302,385,cs),
(358,385,o),
(406,356,o),
(406,264,cs),
(406,173,o),
(358,147,o),
(302,147,cs)
);
}
);
width = 610;
},
{
anchors = (
{
name = bottom;
pos = (278,-251);
},
{
name = top;
pos = (278,496);
}
);
layerId = "78636F1B-F233-4E70-8C3B-7E1F8D8169C5";
shapes = (
{
closed = 1;
nodes = (
(402,-192,o),
(488,-125,o),
(488,8,cs),
(488,496,l),
(427,496,l),
(404,418,l),
(373,470,o),
(325,504,o),
(246,504,cs),
(136,504,o),
(36,415,o),
(36,256,cs),
(36,97,o),
(136,9,o),
(246,9,cs),
(325,9,o),
(373,42,o),
(404,94,c),
(404,9,ls),
(404,-85,o),
(351,-119,o),
(278,-119,cs),
(219,-119,o),
(175,-95,o),
(160,-51,c),
(78,-76,l),
(104,-159,o),
(191,-192,o),
(272,-192,cs)
);
},
{
closed = 1;
nodes = (
(185,79,o),
(127,143,o),
(127,256,cs),
(127,369,o),
(185,432,o),
(267,432,cs),
(342,432,o),
(407,382,o),
(407,256,cs),
(407,130,o),
(342,79,o),
(267,79,cs)
);
}
);
width = 558;
},
{
anchors = (
{
name = bottom;
pos = (303,-251);
},
{
name = top;
pos = (303,496);
}
);
layerId = "77C32F3B-CDAD-439A-A41B-3F592148655B";
shapes = (
{
closed = 1;
nodes = (
(449,-203,o),
(550,-134,o),
(550,37,cs),
(550,496,l),
(419,496,l),
(399,428,l),
(361,482,o),
(300,511,o),
(237,511,cs),
(134,511,o),
(28,432,o),
(28,259,cs),
(28,108,o),
(134,18,o),
(242,18,cs),
(298,18,o),
(356,43,o),
(399,96,c),
(399,9,ls),
(399,-66,o),
(349,-88,o),
(301,-88,cs),
(248,-88,o),
(216,-67,o),
(198,-37,c),
(76,-90,l),
(122,-177,o),
(215,-203,o),
(297,-203,cs)
);
},
{
closed = 1;
nodes = (
(236,136,o),
(186,179,o),
(186,267,cs),
(186,354,o),
(236,392,o),
(296,392,cs),
(355,392,o),
(405,360,o),
(405,263,cs),
(405,166,o),
(355,136,o),
(296,136,cs)
);
}
);
width = 601;
}
);
metricLeft = o;
metricRight = n;
unicode = 103;
},
{
glyphname = h;
kernLeft = h;
kernRight = h;
lastChange = "2024-11-01 12:02:53 +0000";
layers = (
{
anchors = (
{
name = bottom;
pos = (262,0);
},
{
name = center;
pos = (145,581);
},
{
name = top;
pos = (262,796);
}
);
layerId = "883DA8B6-3D8E-4908-9E9E-18B044E47F8D";
shapes = (
{
closed = 1;
nodes = (
(130,0,l),
(130,276,ls),
(130,390,o),
(194,457,o),
(285,457,cs),
(377,457,o),
(408,394,o),
(408,310,cs),
(408,0,l),
(462,0,l),
(462,327,ls),
(462,427,o),
(412,505,o),
(291,505,cs),
(203,505,o),
(154,456,o),
(130,419,c),
(130,708,l),
(76,708,l),
(76,0,l)
);
}
);
width = 536;
},
{
anchors = (
{
name = bottom;
pos = (294,0);
},
{
name = center;
pos = (165,584);
},
{
name = top;
pos = (294,796);
}
);
layerId = "5C67A8D6-F0A6-408B-B629-E0E82D5C59F6";
shapes = (
{
closed = 1;
nodes = (
(216,0,l),
(216,252,ls),
(216,339,o),
(241,385,o),
(302,385,cs),
(351,385,o),
(373,353,o),
(373,283,cs),
(373,0,l),
(538,0,l),
(538,318,ls),
(538,443,o),
(490,511,o),
(369,511,cs),
(294,511,o),
(237,467,o),
(216,432,c),
(216,708,l),
(51,708,l),
(51,0,l)
);
}
);
width = 585;
},
{
anchors = (
{
name = bottom;
pos = (275,0);
},
{
name = center;
pos = (151,582);
},
{
name = top;
pos = (275,796);
}
);
layerId = "78636F1B-F233-4E70-8C3B-7E1F8D8169C5";
shapes = (
{
closed = 1;
nodes = (
(156,0,l),
(156,269,ls),
(156,375,o),
(206,432,o),
(287,432,cs),
(383,432,o),
(396,365,o),
(396,289,cs),
(396,0,l),
(480,0,l),
(480,314,ls),
(480,427,o),
(436,504,o),
(316,504,cs),
(232,504,o),
(184,468,o),
(156,421,c),
(156,708,l),
(72,708,l),
(72,0,l)
);
}
);
width = 550;
},
{
anchors = (
{
name = bottom;
pos = (289,0);
},
{
name = center;
pos = (153,584);
},
{
name = top;
pos = (289,796);
}
);
layerId = "77C32F3B-CDAD-439A-A41B-3F592148655B";
shapes = (
{
closed = 1;
nodes = (
(205,0,l),
(205,255,ls),
(205,345,o),
(233,392,o),
(297,392,cs),
(370,392,o),
(373,334,o),
(373,264,cs),
(373,0,l),
(525,0,l),
(525,302,ls),
(525,436,o),
(486,510,o),
(358,510,cs),
(282,510,o),
(227,467,o),
(205,430,c),
(205,708,l),
(53,708,l),
(53,0,l)
);
}
);
width = 576;
}
);
metricLeft = n;
metricRight = n;
unicode = 104;
},
{
glyphname = hbar;
kernLeft = h;
kernRight = h;
lastChange = "2024-11-01 12:02:53 +0000";
layers = (
{
layerId = "883DA8B6-3D8E-4908-9E9E-18B044E47F8D";
shapes = (
{
closed = 1;
nodes = (
(130,0,l),
(130,276,ls),
(130,390,o),
(194,457,o),
(285,457,cs),
(377,457,o),
(408,394,o),
(408,310,cs),
(408,0,l),
(462,0,l),
(462,327,ls),
(462,427,o),
(412,505,o),
(291,505,cs),
(203,505,o),
(154,456,o),
(130,419,c),
(130,561,l),
(289,561,l),
(289,601,l),
(130,601,l),
(130,708,l),
(76,708,l),
(76,601,l),
(1,601,l),
(1,561,l),
(76,561,l),
(76,0,l)
);
}
);
width = 536;
},
{
layerId = "5C67A8D6-F0A6-408B-B629-E0E82D5C59F6";
shapes = (
{
closed = 1;
nodes = (
(216,0,l),
(216,252,ls),
(216,339,o),
(241,385,o),
(302,385,cs),
(351,385,o),
(373,353,o),
(373,283,cs),
(373,0,l),
(538,0,l),
(538,318,ls),
(538,443,o),
(490,511,o),
(369,511,cs),
(294,511,o),
(237,467,o),
(216,432,c),
(216,544,l),
(352,544,l),
(352,624,l),
(216,624,l),
(216,708,l),
(51,708,l),
(51,624,l),
(-24,624,l),
(-24,544,l),
(51,544,l),
(51,0,l)
);
}
);
width = 585;
},
{
layerId = "78636F1B-F233-4E70-8C3B-7E1F8D8169C5";
shapes = (
{
closed = 1;
nodes = (
(156,0,l),
(156,269,ls),
(156,375,o),
(206,432,o),
(287,432,cs),
(383,432,o),
(396,365,o),
(396,289,cs),
(396,0,l),
(480,0,l),
(480,314,ls),
(480,427,o),
(436,504,o),
(316,504,cs),
(232,504,o),
(184,468,o),
(156,421,c),
(156,548,l),
(315,548,l),
(315,615,l),
(156,615,l),
(156,708,l),
(72,708,l),
(72,615,l),
(-14,615,l),
(-14,548,l),
(72,548,l),
(72,0,l)
);
}
);
width = 550;
},
{
layerId = "77C32F3B-CDAD-439A-A41B-3F592148655B";
shapes = (
{
closed = 1;
nodes = (
(205,0,l),
(205,255,ls),
(205,345,o),
(233,392,o),
(297,392,cs),
(370,392,o),
(373,334,o),
(373,264,cs),
(373,0,l),
(525,0,l),
(525,302,ls),
(525,436,o),
(486,510,o),
(358,510,cs),
(282,510,o),
(227,467,o),
(205,430,c),
(205,545,l),
(337,545,l),
(337,623,l),
(205,623,l),
(205,708,l),
(53,708,l),
(53,623,l),
(-32,623,l),
(-32,545,l),
(53,545,l),
(53,0,l)
);
}
);
width = 576;
}
);
metricRight = h;
unicode = 295;
},
{
glyphname = idotless;
kernLeft = i;
kernRight = i;
lastChange = "2024-11-01 12:02:53 +0000";
layers = (
{
anchors = (
{
name = bottom;
pos = (110,0);
},
{
name = ogonek;
pos = (143,10);
},
{
name = top;
pos = (105,496);
}
);
layerId = "883DA8B6-3D8E-4908-9E9E-18B044E47F8D";
shapes = (
{
closed = 1;
nodes = (
(143,0,l),
(143,496,l),
(28,496,l),
(28,452,l),
(89,452,l),
(89,0,l)
);
}
);
width = 221;
},
{
anchors = (
{
name = bottom;
pos = (140,0);
},
{
name = ogonek;
pos = (273,10);
},
{
name = top;
pos = (181,496);
}
);
layerId = "5C67A8D6-F0A6-408B-B629-E0E82D5C59F6";
shapes = (
{
closed = 1;
nodes = (
(273,0,l),
(273,496,l),
(21,496,l),
(21,372,l),
(107,372,l),
(107,0,l)
);
}
);
width = 326;
},
{
anchors = (
{
name = bottom;
pos = (119,0);
},
{
name = ogonek;
pos = (178,10);
},
{
name = top;
pos = (128,496);
}
);
layerId = "78636F1B-F233-4E70-8C3B-7E1F8D8169C5";
shapes = (
{
closed = 1;
nodes = (
(178,0,l),
(178,496,l),
(25,496,l),
(25,429,l),
(94,429,l),
(94,0,l)
);
}
);
width = 252;
},
{
anchors = (
{
name = bottom;
pos = (136,0);
},
{
name = ogonek;
pos = (256,10);
},
{
name = top;
pos = (172,496);
}
);
layerId = "77C32F3B-CDAD-439A-A41B-3F592148655B";
shapes = (
{
closed = 1;
nodes = (
(256,0,l),
(256,496,l),
(20,496,l),
(20,381,l),
(103,381,l),
(103,0,l)
);
}
);
width = 311;
}
);
metricRight = "=|n+2";
unicode = 305;
},
{
glyphname = iogonek;
kernLeft = i;
kernRight = i;
lastChange = "2024-11-01 12:02:53 +0000";
layers = (
{
anchors = (
{
name = bottom;
pos = (110,0);
},
{
name = top;
pos = (105,693);
}
);
layerId = "883DA8B6-3D8E-4908-9E9E-18B044E47F8D";
shapes = (
{
closed = 1;
nodes = (
(130,601,o),
(151,622,o),
(151,647,cs),
(151,672,o),
(130,693,o),
(105,693,cs),
(80,693,o),
(59,672,o),
(59,647,cs),
(59,622,o),
(80,601,o),
(105,601,cs)
);
},
{
closed = 1;
nodes = (
(111,-168,o),
(123,-167,o),
(143,-159,c),
(143,-120,l),
(131,-125,o),
(119,-127,o),
(110,-127,cs),
(80,-127,o),
(58,-114,o),
(58,-84,cs),
(58,-50,o),
(90,-17,o),
(143,0,c),
(143,496,l),
(28,496,l),
(28,452,l),
(89,452,l),
(89,8,l),
(39,-19,o),
(13,-50,o),
(13,-94,cs),
(13,-140,o),
(48,-168,o),
(95,-168,cs)
);
}
);
width = 221;
},
{
anchors = (
{
name = bottom;
pos = (140,0);
},
{
name = top;
pos = (181,766);
}
);
layerId = "5C67A8D6-F0A6-408B-B629-E0E82D5C59F6";
shapes = (
{
closed = 1;
nodes = (
(234,576,o),
(276,618,o),
(276,671,cs),
(276,724,o),
(234,766,o),
(181,766,cs),
(128,766,o),
(86,724,o),
(86,671,cs),
(86,618,o),
(128,576,o),
(181,576,cs)
);
},
{
closed = 1;
nodes = (
(217,-176,o),
(259,-171,o),
(273,-167,c),
(273,-86,l),
(260,-90,o),
(240,-95,o),
(222,-95,cs),
(201,-95,o),
(176,-88,o),
(176,-65,cs),
(176,-41,o),
(204,-13,o),
(273,0,c),
(273,496,l),
(21,496,l),
(21,372,l),
(107,372,l),
(107,5,l),
(73,-12,o),
(40,-39,o),
(40,-84,cs),
(40,-121,o),
(70,-176,o),
(191,-176,cs)
);
}
);
width = 326;
},
{
anchors = (
{
name = bottom;
pos = (119,0);
},
{
name = top;
pos = (128,714);
}
);
layerId = "78636F1B-F233-4E70-8C3B-7E1F8D8169C5";
shapes = (
{
closed = 1;
nodes = (
(162,590,o),
(190,618,o),
(190,652,cs),
(190,686,o),
(162,714,o),
(128,714,cs),
(94,714,o),
(66,686,o),
(66,652,cs),
(66,618,o),
(94,590,o),
(128,590,cs)
);
},
{
closed = 1;
nodes = (
(134,-173,o),
(155,-169,o),
(178,-161,c),
(178,-107,l),
(165,-113,o),
(152,-115,o),
(140,-115,cs),
(112,-115,o),
(91,-102,o),
(91,-74,cs),
(91,-47,o),
(110,-24,o),
(178,0,c),
(178,496,l),
(25,496,l),
(25,429,l),
(94,429,l),
(94,6,l),
(47,-17,o),
(21,-47,o),
(21,-91,cs),
(21,-134,o),
(55,-173,o),
(115,-173,cs)
);
}
);
width = 252;
},
{
anchors = (
{
name = bottom;
pos = (136,0);
},
{
name = top;
pos = (172,758);
}
);
layerId = "77C32F3B-CDAD-439A-A41B-3F592148655B";
shapes = (
{
closed = 1;
nodes = (
(222,578,o),
(262,618,o),
(262,668,cs),
(262,718,o),
(222,758,o),
(172,758,cs),
(122,758,o),
(82,718,o),
(82,668,cs),
(82,618,o),
(122,578,o),
(172,578,cs)
);
},
{
closed = 1;
nodes = (
(202,-174,o),
(241,-169,o),
(256,-164,c),
(256,-89,l),
(247,-92,o),
(227,-98,o),
(207,-98,cs),
(185,-98,o),
(161,-92,o),
(161,-68,cs),
(161,-44,o),
(191,-13,o),
(256,0,c),
(256,496,l),
(20,496,l),
(20,381,l),
(103,381,l),
(103,5,l),
(69,-14,o),
(35,-43,o),
(35,-85,cs),
(35,-123,o),
(69,-174,o),
(177,-174,cs)
);
}
);
width = 311;
}
);
unicode = 303;
},
{
glyphname = jdotless;
kernLeft = j;
kernRight = j;
lastChange = "2024-11-01 12:02:53 +0000";
layers = (
{
anchors = (
{
name = bottom;
pos = (98,-251);
},
{
name = top;
pos = (109,496);
}
);
layerId = "883DA8B6-3D8E-4908-9E9E-18B044E47F8D";
shapes = (
{
closed = 1;
nodes = (
(-10,-162,ls),
(122,-162,o),
(136,-124,o),
(136,-10,cs),
(136,496,l),
(82,496,l),
(82,-11,ls),
(82,-96,o),
(73,-114,o),
(-10,-114,cs),
(-51,-114,l),
(-51,-162,l)
);
}
);
width = 214;
},
{
anchors = (
{
name = bottom;
pos = (131,-251);
},
{
name = top;
pos = (131,496);
}
);
layerId = "5C67A8D6-F0A6-408B-B629-E0E82D5C59F6";
shapes = (
{
closed = 1;
nodes = (
(16,-162,ls),
(127,-162,o),
(213,-132,o),
(213,-14,cs),
(213,496,l),
(48,496,l),
(48,12,ls),
(48,-22,o),
(33,-33,o),
(-15,-33,cs),
(-72,-33,l),
(-72,-162,l)
);
}
);
width = 266;
},
{
anchors = (
{
name = bottom;
pos = (124,-251);
},
{
name = top;
pos = (129,496);
}
);
layerId = "78636F1B-F233-4E70-8C3B-7E1F8D8169C5";
shapes = (
{
closed = 1;
nodes = (
(-1,-162,ls),
(130,-162,o),
(171,-124,o),
(171,-1,cs),
(171,496,l),
(87,496,l),
(87,4,ls),
(87,-73,o),
(72,-88,o),
(-9,-88,cs),
(-61,-88,l),
(-61,-162,l)
);
}
);
width = 245;
},
{
anchors = (
{
name = bottom;
pos = (130,-251);
},
{
name = top;
pos = (131,496);
}
);
layerId = "77C32F3B-CDAD-439A-A41B-3F592148655B";
shapes = (
{
closed = 1;
nodes = (
(14,-162,ls),
(128,-162,o),
(207,-131,o),
(207,-12,cs),
(207,496,l),
(55,496,l),
(55,11,ls),
(55,-30,o),
(40,-42,o),
(-14,-42,cs),
(-70,-42,l),
(-70,-162,l)
);
}
);
width = 262;
}
);
metricRight = "=|n+2";
unicode = 567;
},
{
glyphname = k;
kernLeft = h;
kernRight = k;
lastChange = "2024-11-01 12:02:53 +0000";
layers = (
{
anchors = (
{
name = bottom;
pos = (226,0);
},
{
name = top;
pos = (226,796);
}
);
layerId = "883DA8B6-3D8E-4908-9E9E-18B044E47F8D";
shapes = (
{
closed = 1;
nodes = (
(130,0,l),
(130,188,l),
(190,253,l),
(375,0,l),
(441,0,l),
(226,293,l),
(412,496,l),
(345,496,l),
(130,255,l),
(130,708,l),
(76,708,l),
(76,0,l)
);
}
);
width = 451;
},
{
anchors = (
{
name = bottom;
pos = (296,0);
},
{
name = top;
pos = (296,796);
}
);
layerId = "5C67A8D6-F0A6-408B-B629-E0E82D5C59F6";
shapes = (
{
closed = 1;
nodes = (
(216,0,l),
(216,117,l),
(267,171,l),
(389,0,l),
(584,0,l),
(376,287,l),
(571,496,l),
(376,496,l),
(216,315,l),
(216,708,l),
(51,708,l),
(51,0,l)
);
}
);
width = 587;
},
{
anchors = (
{
name = bottom;
pos = (247,0);
},
{
name = top;
pos = (247,796);
}
);
layerId = "78636F1B-F233-4E70-8C3B-7E1F8D8169C5";
shapes = (
{
closed = 1;
nodes = (
(156,0,l),
(156,166,l),
(214,229,l),
(379,0,l),
(482,0,l),
(270,291,l),
(457,496,l),
(356,496,l),
(156,273,l),
(156,708,l),
(72,708,l),
(72,0,l)
);
}
);
width = 492;
},
{
anchors = (
{
name = bottom;
pos = (287,0);
},
{
name = top;
pos = (287,796);
}
);
layerId = "77C32F3B-CDAD-439A-A41B-3F592148655B";
shapes = (
{
closed = 1;
nodes = (
(205,0,l),
(205,125,l),
(257,181,l),
(386,0,l),
(566,0,l),
(358,289,l),
(551,496,l),
(371,496,l),
(205,308,l),
(205,708,l),
(53,708,l),
(53,0,l)
);
}
);
width = 570;
}
);
metricLeft = n;
unicode = 107;
},
{
glyphname = l;
kernLeft = l;
kernRight = l;
lastChange = "2024-11-01 12:02:53 +0000";
layers = (
{
anchors = (
{
name = bottom;
pos = (125,0);
},
{
name = center;
pos = (100,317);
},
{
name = top;
pos = (98,796);
},
{
name = topright;
pos = (171,499);
}
);
layerId = "883DA8B6-3D8E-4908-9E9E-18B044E47F8D";
shapes = (
{
closed = 1;
nodes = (
(212,0,l),
(212,46,l),
(176,46,ls),
(138,46,o),
(126,58,o),
(126,96,cs),
(126,708,l),
(72,708,l),
(72,95,ls),
(72,24,o),
(93,0,o),
(171,0,cs)
);
}
);
width = 234;
},
{
anchors = (
{
name = bottom;
pos = (177,0);
},
{
name = center;
pos = (164,374);
},
{
name = top;
pos = (167,796);
},
{
name = topright;
pos = (229,497);
}
);
layerId = "5C67A8D6-F0A6-408B-B629-E0E82D5C59F6";
shapes = (
{
closed = 1;
nodes = (
(327,0,l),
(327,132,l),
(280,132,ls),
(224,132,o),
(214,142,o),
(214,197,cs),
(214,708,l),
(48,708,l),
(48,145,ls),
(48,23,o),
(93,0,o),
(220,0,cs)
);
}
);
width = 347;
},
{
anchors = (
{
name = bottom;
pos = (125,0);
},
{
name = center;
pos = (118,335);
},
{
name = top;
pos = (118,796);
},
{
name = topright;
pos = (192,498);
}
);
layerId = "78636F1B-F233-4E70-8C3B-7E1F8D8169C5";
shapes = (
{
closed = 1;
nodes = (
(242,0,l),
(242,74,l),
(208,74,ls),
(159,74,o),
(152,85,o),
(152,128,cs),
(152,708,l),
(68,708,l),
(68,118,ls),
(68,24,o),
(94,0,o),
(187,0,cs)
);
}
);
width = 262;
},
{
anchors = (
{
name = bottom;
pos = (162,0);
},
{
name = center;
pos = (154,368);
},
{
name = top;
pos = (157,796);
},
{
name = topright;
pos = (222,497);
}
);
layerId = "77C32F3B-CDAD-439A-A41B-3F592148655B";
shapes = (
{
closed = 1;
nodes = (
(311,0,l),
(311,124,l),
(268,124,ls),
(217,124,o),
(202,133,o),
(202,180,cs),
(202,708,l),
(50,708,l),
(50,140,ls),
(50,23,o),
(92,0,o),
(214,0,cs)
);
}
);
width = 331;
}
);
metricLeft = "=n*0.95";
unicode = 108;
},
{
glyphname = lslash;
kernLeft = l;
kernRight = l;
lastChange = "2024-11-01 12:02:53 +0000";
layers = (
{
layerId = "883DA8B6-3D8E-4908-9E9E-18B044E47F8D";
shapes = (
{
closed = 1;
nodes = (
(232,0,l),
(232,46,l),
(196,46,ls),
(158,46,o),
(146,58,o),
(146,96,cs),
(146,310,l),
(230,365,l),
(230,413,l),
(146,358,l),
(146,708,l),
(92,708,l),
(92,323,l),
(28,281,l),
(28,233,l),
(92,275,l),
(92,95,ls),
(92,24,o),
(113,0,o),
(191,0,cs)
);
}
);
width = 274;
},
{
layerId = "5C67A8D6-F0A6-408B-B629-E0E82D5C59F6";
shapes = (
{
closed = 1;
nodes = (
(347,0,l),
(347,132,l),
(300,132,ls),
(244,132,o),
(234,142,o),
(234,197,cs),
(234,339,l),
(339,396,l),
(339,519,l),
(234,462,l),
(234,708,l),
(68,708,l),
(68,373,l),
(29,352,l),
(29,229,l),
(68,250,l),
(68,145,ls),
(68,23,o),
(113,0,o),
(240,0,cs)
);
}
);
width = 375;
},
{
layerId = "78636F1B-F233-4E70-8C3B-7E1F8D8169C5";
shapes = (
{
closed = 1;
nodes = (
(262,0,l),
(262,74,l),
(228,74,ls),
(179,74,o),
(172,85,o),
(172,128,cs),
(172,320,l),
(258,372,l),
(258,443,l),
(172,391,l),
(172,708,l),
(88,708,l),
(88,340,l),
(27,303,l),
(27,232,l),
(88,269,l),
(88,118,ls),
(88,24,o),
(114,0,o),
(207,0,cs)
);
}
);
width = 296;
},
{
layerId = "77C32F3B-CDAD-439A-A41B-3F592148655B";
shapes = (
{
closed = 1;
nodes = (
(331,0,l),
(331,124,l),
(286,124,ls),
(231,124,o),
(222,134,o),
(222,187,cs),
(222,336,l),
(322,391,l),
(322,506,l),
(222,451,l),
(222,708,l),
(70,708,l),
(70,368,l),
(26,344,l),
(26,229,l),
(70,253,l),
(70,140,ls),
(70,23,o),
(112,0,o),
(234,0,cs)
);
}
);
width = 360;
}
);
unicode = 322;
},
{
glyphname = m;
kernLeft = n;
kernRight = h;
lastChange = "2024-11-01 12:02:53 +0000";
layers = (
{
anchors = (
{
name = bottom;
pos = (405,0);
},
{
name = top;
pos = (405,496);
}
);
layerId = "883DA8B6-3D8E-4908-9E9E-18B044E47F8D";
shapes = (
{
closed = 1;
nodes = (
(130,0,l),
(130,276,ls),
(130,391,o),
(199,457,o),
(277,457,cs),
(362,457,o),
(388,394,o),
(388,310,cs),
(388,0,l),
(442,0,l),
(442,276,ls),
(442,394,o),
(502,457,o),
(587,457,cs),
(672,457,o),
(700,394,o),
(700,310,cs),
(700,0,l),
(754,0,l),
(754,327,ls),
(754,427,o),
(708,505,o),
(593,505,cs),
(516,505,o),
(462,468,o),
(428,410,c),
(407,466,o),
(362,505,o),
(281,505,cs),
(203,505,o),
(148,454,o),
(128,416,c),
(116,496,l),
(76,496,l),
(76,0,l)
);
}
);
width = 828;
},
{
anchors = (
{
name = bottom;
pos = (451,0);
},
{
name = top;
pos = (451,496);
}
);
layerId = "5C67A8D6-F0A6-408B-B629-E0E82D5C59F6";
shapes = (
{
closed = 1;
nodes = (
(216,0,l),
(216,257,ls),
(216,339,o),
(239,385,o),
(301,385,cs),
(368,385,o),
(369,328,o),
(369,259,cs),
(369,0,l),
(534,0,l),
(534,261,ls),
(534,344,o),
(556,385,o),
(616,385,cs),
(685,385,o),
(687,328,o),
(687,259,cs),
(687,0,l),
(852,0,l),
(852,300,ls),
(852,438,o),
(813,511,o),
(684,511,cs),
(614,511,o),
(551,483,o),
(513,429,c),
(490,483,o),
(446,511,o),
(366,511,cs),
(292,511,o),
(237,467,o),
(216,432,c),
(198,496,l),
(51,496,l),
(51,0,l)
);
}
);
width = 899;
},
{
anchors = (
{
name = bottom;
pos = (423,0);
},
{
name = top;
pos = (423,496);
}
);
layerId = "78636F1B-F233-4E70-8C3B-7E1F8D8169C5";
shapes = (
{
closed = 1;
nodes = (
(156,0,l),
(156,269,ls),
(156,375,o),
(204,432,o),
(276,432,cs),
(367,432,o),
(382,365,o),
(382,289,cs),
(382,0,l),
(466,0,l),
(466,269,ls),
(466,375,o),
(513,432,o),
(585,432,cs),
(677,432,o),
(691,365,o),
(691,289,cs),
(691,0,l),
(775,0,l),
(775,314,ls),
(775,427,o),
(730,504,o),
(615,504,cs),
(546,504,o),
(488,478,o),
(448,417,c),
(426,471,o),
(381,504,o),
(305,504,cs),
(231,504,o),
(184,468,o),
(156,421,c),
(134,496,l),
(72,496,l),
(72,0,l)
);
}
);
width = 845;
},
{
anchors = (
{
name = bottom;
pos = (446,0);
},
{
name = top;
pos = (446,496);
}
);
layerId = "77C32F3B-CDAD-439A-A41B-3F592148655B";
shapes = (
{
closed = 1;
nodes = (
(205,0,l),
(205,259,ls),
(205,345,o),
(232,392,o),
(295,392,cs),
(366,392,o),
(369,334,o),
(369,264,cs),
(369,0,l),
(522,0,l),
(522,262,ls),
(522,349,o),
(548,392,o),
(610,392,cs),
(683,392,o),
(687,334,o),
(687,264,cs),
(687,0,l),
(839,0,l),
(839,302,ls),
(839,436,o),
(799,510,o),
(672,510,cs),
(602,510,o),
(540,482,o),
(502,427,c),
(479,481,o),
(434,510,o),
(355,510,cs),
(281,510,o),
(227,467,o),
(205,430,c),
(186,496,l),
(53,496,l),
(53,0,l)
);
}
);
width = 890;
}
);
metricLeft = n;
metricRight = n;
unicode = 109;
},
{
glyphname = n;
kernLeft = n;
kernRight = h;
lastChange = "2024-11-01 12:02:53 +0000";
layers = (
{
anchors = (
{
name = bottom;
pos = (268,0);
},
{
name = top;
pos = (268,496);
}
);
layerId = "883DA8B6-3D8E-4908-9E9E-18B044E47F8D";
shapes = (
{
closed = 1;
nodes = (
(130,0,l),
(130,273,ls),
(130,391,o),
(194,457,o),
(285,457,cs),
(377,457,o),
(408,394,o),
(408,310,cs),
(408,0,l),
(462,0,l),
(462,327,ls),
(462,427,o),
(412,505,o),
(291,505,cs),
(203,505,o),
(151,454,o),
(128,416,c),
(116,496,l),
(76,496,l),
(76,0,l)
);
}
);
width = 536;
},
{
anchors = (
{
name = bottom;
pos = (294,0);
},
{
name = top;
pos = (294,496);
}
);
layerId = "5C67A8D6-F0A6-408B-B629-E0E82D5C59F6";
shapes = (
{
closed = 1;
nodes = (
(216,0,l),
(216,252,ls),
(216,339,o),
(241,385,o),
(302,385,cs),
(351,385,o),
(373,353,o),
(373,283,cs),
(373,0,l),
(538,0,l),
(538,317,ls),
(538,443,o),
(490,511,o),
(369,511,cs),
(294,511,o),
(237,466,o),
(216,432,c),
(198,496,l),
(51,496,l),
(51,0,l)
);
}
);
width = 585;
},
{
anchors = (
{
name = bottom;
pos = (275,0);
},
{
name = top;
pos = (275,496);
}
);
layerId = "78636F1B-F233-4E70-8C3B-7E1F8D8169C5";
shapes = (
{
closed = 1;
nodes = (
(156,0,l),
(156,269,ls),
(156,375,o),
(206,432,o),
(287,432,cs),
(383,432,o),
(396,365,o),
(396,289,cs),
(396,0,l),
(480,0,l),
(480,314,ls),
(480,427,o),
(436,504,o),
(316,504,cs),
(232,504,o),
(184,468,o),
(156,421,c),
(134,496,l),
(72,496,l),
(72,0,l)
);
}
);
width = 550;
},
{
anchors = (
{
name = bottom;
pos = (289,0);
},
{
name = top;
pos = (289,496);
}
);
layerId = "77C32F3B-CDAD-439A-A41B-3F592148655B";
shapes = (
{
closed = 1;
nodes = (
(205,0,l),
(205,255,ls),
(205,345,o),
(233,392,o),
(297,392,cs),
(370,392,o),
(373,334,o),
(373,264,cs),
(373,0,l),
(525,0,l),
(525,302,ls),
(525,436,o),
(486,510,o),
(358,510,cs),
(282,510,o),
(227,467,o),
(205,430,c),
(186,496,l),
(53,496,l),
(53,0,l)
);
}
);
width = 576;
}
);
unicode = 110;
},
{
glyphname = o;
kernLeft = o;
kernRight = o;
lastChange = "2024-11-01 12:02:53 +0000";
layers = (
{
anchors = (
{
name = bottom;
pos = (264,0);
},
{
name = center;
pos = (264,248);
},
{
name = ogonek;
pos = (481,10);
},
{
name = top;
pos = (264,496);
},
{
name = topright;
pos = (515,496);
}
);
layerId = "883DA8B6-3D8E-4908-9E9E-18B044E47F8D";
shapes = (
{
closed = 1;
nodes = (
(368,-12,o),
(488,66,o),
(488,247,cs),
(488,428,o),
(368,506,o),
(264,506,cs),
(160,506,o),
(40,428,o),
(40,247,cs),
(40,66,o),
(160,-12,o),
(264,-12,cs)
);
},
{
closed = 1;
nodes = (
(178,36,o),
(95,102,o),
(95,247,cs),
(95,392,o),
(178,458,o),
(264,458,cs),
(350,458,o),
(433,392,o),
(433,247,cs),
(433,102,o),
(350,36,o),
(264,36,cs)
);
}
);
width = 528;
},
{
anchors = (
{
name = bottom;
pos = (295,0);
},
{
name = center;
pos = (295,248);
},
{
name = ogonek;
pos = (526,10);
},
{
name = top;
pos = (295,496);
},
{
name = topright;
pos = (563,496);
}
);
layerId = "5C67A8D6-F0A6-408B-B629-E0E82D5C59F6";
shapes = (
{
closed = 1;
nodes = (
(435,-12,o),
(562,72,o),
(562,251,cs),
(562,430,o),
(435,511,o),
(295,511,cs),
(155,511,o),
(28,430,o),
(28,251,cs),
(28,72,o),
(155,-12,o),
(295,-12,cs)
);
},
{
closed = 1;
nodes = (
(236,114,o),
(196,160,o),
(196,251,cs),
(196,342,o),
(238,385,o),
(295,385,cs),
(352,385,o),
(394,342,o),
(394,251,cs),
(394,160,o),
(354,114,o),
(295,114,cs)
);
}
);
width = 590;
},
{
anchors = (
{
name = bottom;
pos = (274,0);
},
{
name = center;
pos = (274,248);
},
{
name = ogonek;
pos = (495,10);
},
{
name = top;
pos = (274,496);
},
{
name = topright;
pos = (530,496);
}
);
layerId = "78636F1B-F233-4E70-8C3B-7E1F8D8169C5";
shapes = (
{
closed = 1;
nodes = (
(388,-12,o),
(512,67,o),
(512,246,cs),
(512,425,o),
(388,504,o),
(274,504,cs),
(160,504,o),
(36,425,o),
(36,246,cs),
(36,67,o),
(160,-12,o),
(274,-12,cs)
);
},
{
closed = 1;
nodes = (
(199,62,o),
(126,118,o),
(126,246,cs),
(126,374,o),
(199,430,o),
(274,430,cs),
(349,430,o),
(422,374,o),
(422,246,cs),
(422,118,o),
(349,62,o),
(274,62,cs)
);
}
);
width = 548;
},
{
anchors = (
{
name = bottom;
pos = (291,0);
},
{
name = center;
pos = (291,248);
},
{
name = ogonek;
pos = (520,10);
},
{
name = top;
pos = (291,496);
},
{
name = topright;
pos = (557,496);
}
);
layerId = "77C32F3B-CDAD-439A-A41B-3F592148655B";
shapes = (
{
closed = 1;
nodes = (
(429,-12,o),
(554,69,o),
(554,249,cs),
(554,429,o),
(429,510,o),
(291,510,cs),
(153,510,o),
(28,429,o),
(28,249,cs),
(28,69,o),
(153,-12,o),
(291,-12,cs)
);
},
{
closed = 1;
nodes = (
(231,106,o),
(183,143,o),
(183,249,cs),
(183,355,o),
(231,392,o),
(291,392,cs),
(351,392,o),
(399,355,o),
(399,249,cs),
(399,143,o),
(351,106,o),
(291,106,cs)
);
}
);
width = 582;
}
);
metricRight = "=|";
unicode = 111;
},
{
glyphname = oslash;
kernLeft = o;
kernRight = o;
lastChange = "2024-11-01 12:02:53 +0000";
layers = (
{
anchors = (
{
name = bottom;
pos = (264,0);
},
{
name = center;
pos = (264,248);
},
{
name = top;
pos = (264,496);
},
{
name = topright;
pos = (515,496);
}
);
layerId = "883DA8B6-3D8E-4908-9E9E-18B044E47F8D";
shapes = (
{
closed = 1;
nodes = (
(368,-12,o),
(488,66,o),
(488,247,cs),
(488,322,o),
(467,380,o),
(436,421,c),
(479,472,l),
(450,497,l),
(410,449,l),
(367,488,o),
(314,506,o),
(264,506,cs),
(160,506,o),
(40,428,o),
(40,247,cs),
(40,173,o),
(60,115,o),
(91,74,c),
(49,24,l),
(78,-1,l),
(117,45,l),
(160,6,o),
(214,-12,o),
(264,-12,cs)
);
},
{
closed = 1;
nodes = (
(222,36,o),
(181,52,o),
(150,84,c),
(401,380,l),
(421,347,o),
(433,303,o),
(433,247,cs),
(433,102,o),
(350,36,o),
(264,36,cs)
);
},
{
closed = 1;
nodes = (
(95,392,o),
(178,458,o),
(264,458,cs),
(305,458,o),
(346,443,o),
(377,411,c),
(126,115,l),
(107,148,o),
(95,192,o),
(95,247,cs)
);
}
);
width = 528;
},
{
anchors = (
{
name = bottom;
pos = (295,0);
},
{
name = center;
pos = (295,248);
},
{
name = top;
pos = (295,496);
},
{
name = topright;
pos = (563,496);
}
);
layerId = "5C67A8D6-F0A6-408B-B629-E0E82D5C59F6";
shapes = (
{
closed = 1;
nodes = (
(435,-12,o),
(562,72,o),
(562,251,cs),
(562,327,o),
(539,386,o),
(501,428,c),
(542,475,l),
(483,526,l),
(440,476,l),
(397,500,o),
(347,511,o),
(295,511,cs),
(155,511,o),
(28,430,o),
(28,251,cs),
(28,174,o),
(52,114,o),
(90,72,c),
(46,21,l),
(105,-30,l),
(151,23,l),
(193,-1,o),
(243,-12,o),
(295,-12,cs)
);
},
{
closed = 1;
nodes = (
(275,114,o),
(258,119,o),
(243,129,c),
(389,299,l),
(392,285,o),
(394,269,o),
(394,251,cs),
(394,160,o),
(354,114,o),
(295,114,cs)
);
},
{
closed = 1;
nodes = (
(196,342,o),
(238,385,o),
(295,385,cs),
(315,385,o),
(333,380,o),
(348,369,c),
(201,200,l),
(198,215,o),
(196,232,o),
(196,251,cs)
);
}
);
width = 590;
},
{
anchors = (
{
name = bottom;
pos = (274,0);
},
{
name = center;
pos = (274,248);
},
{
name = top;
pos = (274,496);
},
{
name = topright;
pos = (530,496);
}
);
guides = (
{
angle = 90;
pos = (36,246);
},
{
angle = 90;
pos = (49,246);
},
{
angle = 90;
pos = (499,246);
},
{
angle = 90;
pos = (512,246);
}
);
layerId = "78636F1B-F233-4E70-8C3B-7E1F8D8169C5";
shapes = (
{
closed = 1;
nodes = (
(388,-12,o),
(512,67,o),
(512,246,cs),
(512,322,o),
(490,380,o),
(455,422,c),
(499,473,l),
(461,506,l),
(419,456,l),
(376,489,o),
(324,504,o),
(274,504,cs),
(160,504,o),
(36,425,o),
(36,246,cs),
(36,171,o),
(58,114,o),
(91,72,c),
(49,23,l),
(87,-10,l),
(127,37,l),
(170,4,o),
(223,-12,o),
(274,-12,cs)
);
},
{
closed = 1;
nodes = (
(240,62,o),
(206,74,o),
(179,98,c),
(398,355,l),
(413,327,o),
(422,291,o),
(422,246,cs),
(422,118,o),
(349,62,o),
(274,62,cs)
);
},
{
closed = 1;
nodes = (
(126,374,o),
(199,430,o),
(274,430,cs),
(307,430,o),
(340,419,o),
(367,395,c),
(149,140,l),
(134,167,o),
(126,202,o),
(126,246,cs)
);
}
);
width = 548;
},
{
anchors = (
{
name = bottom;
pos = (291,0);
},
{
name = center;
pos = (291,248);
},
{
name = top;
pos = (291,496);
},
{
name = topright;
pos = (557,496);
}
);
guides = (
{
angle = 90;
pos = (28,250);
},
{
angle = 90;
pos = (46,250);
},
{
angle = 90;
pos = (536,250);
},
{
angle = 90;
pos = (554,250);
}
);
layerId = "77C32F3B-CDAD-439A-A41B-3F592148655B";
shapes = (
{
closed = 1;
nodes = (
(429,-12,o),
(554,69,o),
(554,249,cs),
(554,326,o),
(531,385,o),
(494,427,c),
(536,475,l),
(480,523,l),
(437,474,l),
(395,498,o),
(344,510,o),
(291,510,cs),
(153,510,o),
(28,429,o),
(28,249,cs),
(28,172,o),
(51,112,o),
(89,70,c),
(46,21,l),
(102,-27,l),
(146,24,l),
(188,0,o),
(239,-12,o),
(291,-12,cs)
);
},
{
closed = 1;
nodes = (
(269,106,o),
(248,111,o),
(231,123,c),
(392,309,l),
(397,292,o),
(399,272,o),
(399,249,cs),
(399,143,o),
(351,106,o),
(291,106,cs)
);
},
{
closed = 1;
nodes = (
(183,355,o),
(231,392,o),
(291,392,cs),
(314,392,o),
(334,387,o),
(352,375,c),
(190,187,l),
(185,205,o),
(183,225,o),
(183,249,cs)
);
}
);
width = 582;
}
);
metricLeft = o;
metricRight = o;
unicode = 248;
},
{
glyphname = oe;
kernLeft = o;
kernRight = e;
lastChange = "2024-11-01 12:02:53 +0000";
layers = (
{
anchors = (
{
name = bottom;
pos = (458,0);
},
{
name = top;
pos = (458,496);
}
);
layerId = "883DA8B6-3D8E-4908-9E9E-18B044E47F8D";
shapes = (
{
closed = 1;
nodes = (
(758,-12,o),
(814,32,o),
(847,81,c),
(793,100,l),
(768,64,o),
(727,36,o),
(666,36,cs),
(596,36,o),
(489,82,o),
(488,244,c),
(874,244,l),
(883,373,o),
(806,506,o),
(659,506,cs),
(570,506,o),
(497,456,o),
(461,371,c),
(422,464,o),
(339,506,o),
(264,506,cs),
(160,506,o),
(40,428,o),
(40,247,cs),
(40,66,o),
(160,-12,o),
(264,-12,cs),
(338,-12,o),
(421,29,o),
(461,122,c),
(495,42,o),
(565,-12,o),
(661,-12,cs)
);
},
{
closed = 1;
nodes = (
(178,36,o),
(95,102,o),
(95,247,cs),
(95,392,o),
(178,458,o),
(264,458,cs),
(350,458,o),
(433,392,o),
(433,247,cs),
(433,102,o),
(350,36,o),
(264,36,cs)
);
},
{
closed = 1;
nodes = (
(505,414,o),
(583,458,o),
(659,458,cs),
(763,458,o),
(816,364,o),
(817,289,c),
(490,289,l)
);
}
);
width = 915;
},
{
anchors = (
{
name = bottom;
pos = (584,0);
},
{
name = top;
pos = (584,496);
}
);
layerId = "5C67A8D6-F0A6-408B-B629-E0E82D5C59F6";
shapes = (
{
closed = 1;
nodes = (
(750,-12,o),
(837,22,o),
(892,101,c),
(763,149,l),
(745,128,o),
(711,114,o),
(666,114,cs),
(613,114,o),
(569,144,o),
(554,205,c),
(922,205,l),
(936,388,o),
(828,511,o),
(664,511,cs),
(592,511,o),
(527,485,o),
(479,439,c),
(432,488,o),
(365,511,o),
(295,511,cs),
(155,511,o),
(28,430,o),
(28,251,cs),
(28,72,o),
(155,-12,o),
(295,-12,cs),
(364,-12,o),
(430,11,o),
(477,59,c),
(524,13,o),
(592,-12,o),
(671,-12,cs)
);
},
{
closed = 1;
nodes = (
(236,114,o),
(196,160,o),
(196,251,cs),
(196,342,o),
(238,385,o),
(295,385,cs),
(352,385,o),
(394,342,o),
(394,251,cs),
(394,160,o),
(354,114,o),
(295,114,cs)
);
},
{
closed = 1;
nodes = (
(567,365,o),
(614,390,o),
(669,390,cs),
(723,390,o),
(766,363,o),
(772,301,c),
(553,301,l)
);
}
);
width = 942;
},
{
anchors = (
{
name = bottom;
pos = (462,0);
},
{
name = top;
pos = (462,496);
}
);
layerId = "78636F1B-F233-4E70-8C3B-7E1F8D8169C5";
shapes = (
{
closed = 1;
nodes = (
(758,-12,o),
(826,29,o),
(862,87,c),
(781,111,l),
(758,81,o),
(721,62,o),
(665,62,cs),
(608,62,o),
(521,94,o),
(510,225,c),
(894,225,l),
(904,367,o),
(821,504,o),
(663,504,cs),
(581,504,o),
(510,466,o),
(468,401,c),
(423,471,o),
(348,504,o),
(274,504,cs),
(160,504,o),
(36,425,o),
(36,246,cs),
(36,67,o),
(160,-12,o),
(274,-12,cs),
(348,-12,o),
(423,20,o),
(467,91,c),
(507,28,o),
(574,-12,o),
(665,-12,cs)
);
},
{
closed = 1;
nodes = (
(199,62,o),
(126,118,o),
(126,246,cs),
(126,374,o),
(199,430,o),
(274,430,cs),
(349,430,o),
(422,374,o),
(422,246,cs),
(422,118,o),
(349,62,o),
(274,62,cs)
);
},
{
closed = 1;
nodes = (
(525,398,o),
(596,432,o),
(663,432,cs),
(751,432,o),
(804,362,o),
(805,292,c),
(511,292,l)
);
}
);
width = 924;
},
{
anchors = (
{
name = bottom;
pos = (470,0);
},
{
name = top;
pos = (470,496);
}
);
layerId = "77C32F3B-CDAD-439A-A41B-3F592148655B";
shapes = (
{
closed = 1;
nodes = (
(751,-12,o),
(835,23,o),
(887,99,c),
(766,143,l),
(747,121,o),
(713,106,o),
(666,106,cs),
(612,106,o),
(562,137,o),
(547,208,c),
(918,208,l),
(931,385,o),
(827,510,o),
(664,510,cs),
(590,510,o),
(524,482,o),
(477,433,c),
(430,485,o),
(362,510,o),
(291,510,cs),
(153,510,o),
(28,429,o),
(28,250,cs),
(28,71,o),
(153,-12,o),
(291,-12,cs),
(361,-12,o),
(428,13,o),
(475,64,c),
(521,15,o),
(589,-12,o),
(670,-12,cs)
);
},
{
closed = 1;
nodes = (
(229,106,o),
(183,146,o),
(183,250,cs),
(183,355,o),
(231,392,o),
(291,392,cs),
(350,392,o),
(398,355,o),
(398,250,cs),
(398,146,o),
(352,106,o),
(291,106,cs)
);
},
{
closed = 1;
nodes = (
(561,371,o),
(611,397,o),
(668,397,cs),
(727,397,o),
(772,363,o),
(777,300,c),
(546,300,l)
);
}
);
width = 939;
}
);
metricLeft = o;
metricRight = e;
unicode = 339;
},
{
glyphname = p;
kernLeft = p;
kernRight = o;
lastChange = "2024-11-01 12:02:53 +0000";
layers = (
{
anchors = (
{
name = bottom;
pos = (273,0);
},
{
name = top;
pos = (273,496);
}
);
layerId = "883DA8B6-3D8E-4908-9E9E-18B044E47F8D";
shapes = (
{
closed = 1;
nodes = (
(130,-162,l),
(130,84,l),
(152,33,o),
(212,-12,o),
(294,-12,cs),
(412,-12,o),
(505,78,o),
(505,251,cs),
(505,424,o),
(403,506,o),
(295,506,cs),
(203,506,o),
(155,459,o),
(131,412,c),
(116,496,l),
(76,496,l),
(76,-162,l)
);
},
{
closed = 1;
nodes = (
(194,36,o),
(130,120,o),
(130,250,cs),
(130,376,o),
(189,458,o),
(287,458,cs),
(389,458,o),
(450,383,o),
(450,250,cs),
(450,115,o),
(394,36,o),
(292,36,cs)
);
}
);
width = 545;
},
{
anchors = (
{
name = bottom;
pos = (306,0);
},
{
name = top;
pos = (306,496);
}
);
layerId = "5C67A8D6-F0A6-408B-B629-E0E82D5C59F6";
shapes = (
{
closed = 1;
nodes = (
(216,-162,l),
(216,70,l),
(249,15,o),
(317,-12,o),
(365,-12,cs),
(496,-12,o),
(585,85,o),
(585,248,cs),
(585,409,o),
(496,511,o),
(365,511,cs),
(317,511,o),
(249,485,o),
(216,430,c),
(197,496,l),
(51,496,l),
(51,-162,l)
);
},
{
closed = 1;
nodes = (
(257,115,o),
(208,153,o),
(208,252,cs),
(208,351,o),
(257,385,o),
(312,385,cs),
(367,385,o),
(415,334,o),
(415,248,cs),
(415,160,o),
(367,115,o),
(312,115,cs)
);
}
);
width = 613;
},
{
anchors = (
{
name = bottom;
pos = (285,0);
},
{
name = top;
pos = (285,496);
}
);
layerId = "78636F1B-F233-4E70-8C3B-7E1F8D8169C5";
shapes = (
{
closed = 1;
nodes = (
(156,-162,l),
(156,75,l),
(186,22,o),
(239,-12,o),
(317,-12,cs),
(430,-12,o),
(530,83,o),
(530,246,cs),
(530,410,o),
(430,504,o),
(317,504,cs),
(239,504,o),
(186,470,o),
(156,418,c),
(133,496,l),
(72,496,l),
(72,-162,l)
);
},
{
closed = 1;
nodes = (
(210,60,o),
(154,128,o),
(154,246,cs),
(154,364,o),
(210,432,o),
(295,432,cs),
(380,432,o),
(436,364,o),
(436,246,cs),
(436,128,o),
(380,60,o),
(295,60,cs)
);
}
);
width = 566;
},
{
anchors = (
{
name = bottom;
pos = (301,0);
},
{
name = top;
pos = (301,496);
}
);
layerId = "77C32F3B-CDAD-439A-A41B-3F592148655B";
shapes = (
{
closed = 1;
nodes = (
(205,-162,l),
(205,71,l),
(237,16,o),
(303,-12,o),
(356,-12,cs),
(484,-12,o),
(575,85,o),
(575,248,cs),
(575,409,o),
(484,510,o),
(356,510,cs),
(303,510,o),
(237,483,o),
(205,428,c),
(185,496,l),
(53,496,l),
(53,-162,l)
);
},
{
closed = 1;
nodes = (
(248,106,o),
(198,149,o),
(198,251,cs),
(198,353,o),
(248,392,o),
(308,392,cs),
(367,392,o),
(417,339,o),
(417,248,cs),
(417,155,o),
(367,106,o),
(308,106,cs)
);
}
);
width = 603;
}
);
metricLeft = n;
metricRight = o;
unicode = 112;
},
{
glyphname = thorn;
kernLeft = p;
kernRight = o;
lastChange = "2024-11-01 12:02:53 +0000";
layers = (
{
anchors = (
{
name = bottom;
pos = (271,0);
},
{
name = top;
pos = (271,496);
}
);
layerId = "883DA8B6-3D8E-4908-9E9E-18B044E47F8D";
shapes = (
{
closed = 1;
nodes = (
(130,-162,l),
(130,84,l),
(152,32,o),
(212,-12,o),
(294,-12,cs),
(412,-12,o),
(506,78,o),
(506,251,cs),
(506,424,o),
(403,506,o),
(295,506,cs),
(203,506,o),
(157,459,o),
(130,410,c),
(130,708,l),
(76,708,l),
(76,-162,l)
);
},
{
closed = 1;
nodes = (
(195,36,o),
(129,120,o),
(129,250,cs),
(129,376,o),
(189,458,o),
(287,458,cs),
(389,458,o),
(451,383,o),
(451,250,cs),
(451,115,o),
(394,36,o),
(291,36,cs)
);
}
);
width = 546;
},
{
anchors = (
{
name = bottom;
pos = (306,0);
},
{
name = top;
pos = (306,496);
}
);
layerId = "5C67A8D6-F0A6-408B-B629-E0E82D5C59F6";
shapes = (
{
closed = 1;
nodes = (
(216,-162,l),
(216,69,l),
(249,15,o),
(317,-12,o),
(365,-12,cs),
(496,-12,o),
(585,85,o),
(585,247,cs),
(585,407,o),
(496,511,o),
(365,511,cs),
(317,511,o),
(249,484,o),
(216,430,c),
(216,708,l),
(51,708,l),
(51,-162,l)
);
},
{
closed = 1;
nodes = (
(257,115,o),
(208,152,o),
(208,252,cs),
(208,350,o),
(257,384,o),
(312,384,cs),
(367,384,o),
(415,333,o),
(415,247,cs),
(415,160,o),
(367,115,o),
(312,115,cs)
);
}
);
width = 613;
},
{
anchors = (
{
name = bottom;
pos = (285,0);
},
{
name = top;
pos = (285,496);
}
);
layerId = "78636F1B-F233-4E70-8C3B-7E1F8D8169C5";
shapes = (
{
closed = 1;
nodes = (
(156,-162,l),
(156,75,l),
(186,22,o),
(239,-12,o),
(317,-12,cs),
(430,-12,o),
(530,83,o),
(530,246,cs),
(530,410,o),
(430,504,o),
(317,504,cs),
(239,504,o),
(186,470,o),
(156,418,c),
(156,709,l),
(72,709,l),
(72,-162,l)
);
},
{
closed = 1;
nodes = (
(210,60,o),
(154,129,o),
(154,246,cs),
(154,364,o),
(210,432,o),
(295,432,cs),
(380,432,o),
(436,364,o),
(436,246,cs),
(436,128,o),
(380,60,o),
(295,60,cs)
);
}
);
width = 566;
},
{
anchors = (
{
name = bottom;
pos = (301,0);
},
{
name = top;
pos = (301,496);
}
);
layerId = "77C32F3B-CDAD-439A-A41B-3F592148655B";
shapes = (
{
closed = 1;
nodes = (
(205,-162,l),
(205,70,l),
(237,16,o),
(303,-12,o),
(356,-12,cs),
(484,-12,o),
(575,85,o),
(575,247,cs),
(575,408,o),
(484,510,o),
(356,510,cs),
(303,510,o),
(237,482,o),
(205,428,c),
(205,708,l),
(53,708,l),
(53,-162,l)
);
},
{
closed = 1;
nodes = (
(248,106,o),
(198,148,o),
(198,251,cs),
(198,352,o),
(248,392,o),
(308,392,cs),
(367,392,o),
(417,338,o),
(417,247,cs),
(417,155,o),
(367,106,o),
(308,106,cs)
);
}
);
width = 603;
}
);
metricLeft = p;
metricRight = p;
unicode = 254;
},
{
glyphname = q;
kernLeft = o;
kernRight = q;
lastChange = "2024-11-01 12:02:53 +0000";
layers = (
{
anchors = (
{
name = bottom;
pos = (270,0);
},
{
name = top;
pos = (270,496);
}
);
layerId = "883DA8B6-3D8E-4908-9E9E-18B044E47F8D";
shapes = (
{
closed = 1;
nodes = (
(552,-174,o),
(572,-169,o),
(593,-160,c),
(593,-112,l),
(574,-122,o),
(554,-126,o),
(534,-126,cs),
(489,-126,o),
(470,-104,o),
(470,-55,cs),
(470,496,l),
(430,496,l),
(415,411,l),
(389,460,o),
(343,506,o),
(251,506,cs),
(146,506,o),
(40,424,o),
(40,251,cs),
(40,78,o),
(134,-12,o),
(252,-12,cs),
(334,-12,o),
(391,30,o),
(416,86,c),
(416,-56,ls),
(416,-147,o),
(462,-174,o),
(528,-174,cs)
);
},
{
closed = 1;
nodes = (
(153,36,o),
(95,115,o),
(95,250,cs),
(95,383,o),
(157,458,o),
(259,458,cs),
(357,458,o),
(416,376,o),
(416,250,cs),
(416,118,o),
(355,36,o),
(255,36,cs)
);
}
);
width = 552;
},
{
anchors = (
{
name = bottom;
pos = (310,0);
},
{
name = top;
pos = (310,496);
}
);
layerId = "5C67A8D6-F0A6-408B-B629-E0E82D5C59F6";
shapes = (
{
closed = 1;
nodes = (
(624,-174,o),
(665,-163,o),
(685,-156,c),
(685,-20,l),
(658,-27,o),
(642,-30,o),
(620,-30,cs),
(563,-30,o),
(562,4,o),
(562,44,cs),
(562,496,l),
(416,496,l),
(397,430,l),
(364,485,o),
(297,511,o),
(248,511,cs),
(117,511,o),
(28,409,o),
(28,248,cs),
(28,85,o),
(117,-12,o),
(248,-12,cs),
(297,-12,o),
(364,15,o),
(397,69,c),
(397,-6,ls),
(397,-144,o),
(487,-174,o),
(572,-174,cs)
);
},
{
closed = 1;
nodes = (
(247,115,o),
(198,160,o),
(198,248,cs),
(198,334,o),
(247,385,o),
(302,385,cs),
(356,385,o),
(405,351,o),
(405,252,cs),
(405,153,o),
(356,115,o),
(302,115,cs)
);
}
);
width = 612;
},
{
anchors = (
{
name = bottom;
pos = (286,0);
},
{
name = top;
pos = (286,496);
}
);
layerId = "78636F1B-F233-4E70-8C3B-7E1F8D8169C5";
shapes = (
{
closed = 1;
nodes = (
(576,-173,o),
(599,-169,o),
(624,-160,c),
(624,-82,l),
(602,-92,o),
(584,-94,o),
(564,-94,cs),
(513,-94,o),
(494,-70,o),
(494,-24,cs),
(494,496,l),
(433,496,l),
(410,418,l),
(380,470,o),
(327,504,o),
(249,504,cs),
(136,504,o),
(36,409,o),
(36,246,cs),
(36,82,o),
(136,-12,o),
(249,-12,cs),
(327,-12,o),
(383,22,o),
(410,75,c),
(410,-30,ls),
(410,-142,o),
(474,-173,o),
(544,-173,cs)
);
},
{
closed = 1;
nodes = (
(186,60,o),
(130,128,o),
(130,246,cs),
(130,364,o),
(186,432,o),
(271,432,cs),
(356,432,o),
(412,364,o),
(412,246,cs),
(412,128,o),
(356,60,o),
(271,60,cs)
);
}
);
width = 574;
},
{
anchors = (
{
name = bottom;
pos = (305,0);
},
{
name = top;
pos = (305,496);
}
);
layerId = "77C32F3B-CDAD-439A-A41B-3F592148655B";
shapes = (
{
closed = 1;
nodes = (
(619,-172,o),
(654,-164,o),
(675,-156,c),
(675,-26,l),
(649,-33,o),
(632,-35,o),
(611,-35,cs),
(555,-35,o),
(550,-3,o),
(550,38,cs),
(550,496,l),
(418,496,l),
(398,428,l),
(366,483,o),
(301,510,o),
(247,510,cs),
(119,510,o),
(28,409,o),
(28,248,cs),
(28,85,o),
(119,-12,o),
(247,-12,cs),
(301,-12,o),
(366,16,o),
(398,70,c),
(398,-10,ls),
(398,-142,o),
(487,-172,o),
(570,-172,cs)
);
},
{
closed = 1;
nodes = (
(236,106,o),
(186,155,o),
(186,248,cs),
(186,339,o),
(236,392,o),
(296,392,cs),
(355,392,o),
(405,353,o),
(405,251,cs),
(405,149,o),
(355,106,o),
(296,106,cs)
);
}
);
width = 605;
}
);
metricLeft = o;
unicode = 113;
},
{
glyphname = r;
kernLeft = n;
kernRight = r;
lastChange = "2024-11-01 12:02:53 +0000";
layers = (
{
anchors = (
{
name = bottom;
pos = (157,0);
},
{
name = top;
pos = (192,496);
}
);
layerId = "883DA8B6-3D8E-4908-9E9E-18B044E47F8D";
shapes = (
{
closed = 1;
nodes = (
(130,0,l),
(130,228,ls),
(130,360,o),
(173,446,o),
(309,449,c),
(309,501,l),
(221,505,o),
(157,449,o),
(132,402,c),
(116,496,l),
(76,496,l),
(76,0,l)
);
}
);
width = 325;
},
{
anchors = (
{
name = bottom;
pos = (194,0);
},
{
name = top;
pos = (216,496);
}
);
layerId = "5C67A8D6-F0A6-408B-B629-E0E82D5C59F6";
shapes = (
{
closed = 1;
nodes = (
(216,0,l),
(216,233,ls),
(216,333,o),
(287,363,o),
(384,347,c),
(384,511,l),
(310,516,o),
(236,489,o),
(209,405,c),
(182,496,l),
(51,496,l),
(51,0,l)
);
}
);
width = 406;
},
{
anchors = (
{
name = bottom;
pos = (172,0);
},
{
name = top;
pos = (203,496);
}
);
layerId = "78636F1B-F233-4E70-8C3B-7E1F8D8169C5";
shapes = (
{
closed = 1;
nodes = (
(156,0,l),
(156,213,ls),
(156,345,o),
(201,417,o),
(337,417,c),
(337,504,l),
(254,504,o),
(195,464,o),
(160,404,c),
(133,496,l),
(72,496,l),
(72,0,l)
);
}
);
width = 349;
},
{
anchors = (
{
name = bottom;
pos = (189,0);
},
{
name = top;
pos = (212,496);
}
);
layerId = "77C32F3B-CDAD-439A-A41B-3F592148655B";
shapes = (
{
closed = 1;
nodes = (
(205,0,l),
(205,250,ls),
(205,340,o),
(257,371,o),
(360,358,c),
(360,510,l),
(284,514,o),
(231,485,o),
(200,405,c),
(173,496,l),
(53,496,l),
(53,0,l)
);
}
);
width = 382;
}
);
metricLeft = n;
unicode = 114;
},
{
glyphname = s;
kernLeft = s;
kernRight = s;
lastChange = "2024-11-01 12:02:53 +0000";
layers = (
{
anchors = (
{
name = bottom;
pos = (231,0);
},
{
name = top;
pos = (221,496);
}
);
layerId = "883DA8B6-3D8E-4908-9E9E-18B044E47F8D";
shapes = (
{
closed = 1;
nodes = (
(334,-12,o),
(410,50,o),
(410,136,cs),
(410,229,o),
(349,256,o),
(246,280,cs),
(203,290,ls),
(131,307,o),
(101,331,o),
(101,373,cs),
(101,421,o),
(151,458,o),
(219,458,cs),
(269,458,o),
(325,434,o),
(343,387,c),
(394,407,l),
(367,470,o),
(297,506,o),
(221,506,cs),
(119,506,o),
(49,446,o),
(49,370,cs),
(49,290,o),
(103,262,o),
(189,242,cs),
(232,232,ls),
(318,212,o),
(358,189,o),
(358,132,cs),
(358,75,o),
(306,36,o),
(231,36,cs),
(166,36,o),
(107,71,o),
(89,132,c),
(36,112,l),
(67,25,o),
(161,-12,o),
(230,-12,cs)
);
}
);
width = 447;
},
{
anchors = (
{
name = bottom;
pos = (265,0);
},
{
name = top;
pos = (269,496);
}
);
layerId = "5C67A8D6-F0A6-408B-B629-E0E82D5C59F6";
shapes = (
{
closed = 1;
nodes = (
(404,-13,o),
(513,43,o),
(513,158,cs),
(513,242,o),
(465,282,o),
(339,304,cs),
(244,321,ls),
(201,328,o),
(189,338,o),
(189,356,cs),
(189,378,o),
(211,395,o),
(265,395,cs),
(314,395,o),
(346,378,o),
(360,343,c),
(498,394,l),
(458,480,o),
(365,511,o),
(267,511,cs),
(135,511,o),
(32,448,o),
(32,347,cs),
(32,268,o),
(97,218,o),
(197,201,cs),
(287,185,ls),
(343,176,o),
(356,162,o),
(356,147,cs),
(356,118,o),
(313,104,o),
(270,104,cs),
(211,104,o),
(163,126,o),
(151,165,c),
(13,114,l),
(50,34,o),
(144,-13,o),
(268,-13,cs)
);
}
);
width = 526;
},
{
anchors = (
{
name = bottom;
pos = (243,0);
},
{
name = top;
pos = (236,496);
}
);
layerId = "78636F1B-F233-4E70-8C3B-7E1F8D8169C5";
shapes = (
{
closed = 1;
nodes = (
(352,-12,o),
(441,50,o),
(441,140,cs),
(441,234,o),
(374,266,o),
(271,289,cs),
(213,302,ls),
(156,315,o),
(128,332,o),
(128,368,cs),
(128,410,o),
(173,435,o),
(229,435,cs),
(280,435,o),
(329,414,o),
(347,373,c),
(426,402,l),
(395,473,o),
(318,506,o),
(235,506,cs),
(131,506,o),
(44,452,o),
(44,366,cs),
(44,280,o),
(107,246,o),
(192,227,cs),
(250,214,ls),
(323,198,o),
(357,179,o),
(357,136,cs),
(357,89,o),
(305,59,o),
(240,59,cs),
(185,59,o),
(126,87,o),
(112,142,c),
(31,112,l),
(64,27,o),
(153,-12,o),
(239,-12,cs)
);
}
);
width = 471;
},
{
anchors = (
{
name = bottom;
pos = (265,0);
},
{
name = top;
pos = (264,496);
}
);
layerId = "77C32F3B-CDAD-439A-A41B-3F592148655B";
shapes = (
{
closed = 1;
nodes = (
(394,-13,o),
(502,43,o),
(502,155,cs),
(502,242,o),
(448,280,o),
(328,302,cs),
(239,318,ls),
(195,326,o),
(179,337,o),
(179,358,cs),
(179,383,o),
(206,401,o),
(259,401,cs),
(309,401,o),
(343,384,o),
(358,348,c),
(487,395,l),
(448,479,o),
(358,510,o),
(262,510,cs),
(144,510,o),
(34,456,o),
(34,350,cs),
(34,269,o),
(100,222,o),
(196,205,cs),
(281,190,ls),
(338,180,o),
(356,166,o),
(356,145,cs),
(356,113,o),
(312,97,o),
(265,97,cs),
(207,97,o),
(157,120,o),
(145,161,c),
(16,114,l),
(52,33,o),
(145,-13,o),
(263,-13,cs)
);
}
);
width = 517;
}
);
unicode = 115;
},
{
glyphname = scedilla;
kernLeft = s;
kernRight = s;
lastChange = "2024-11-01 12:02:53 +0000";
layers = (
{
anchors = (
{
name = top;
pos = (221,496);
}
);
layerId = "883DA8B6-3D8E-4908-9E9E-18B044E47F8D";
shapes = (
{
closed = 1;
nodes = (
(286,-177,o),
(310,-128,o),
(310,-99,cs),
(310,-71,o),
(289,-44,o),
(248,-44,cs),
(242,-44,o),
(230,-45,o),
(217,-48,c),
(240,-12,l),
(339,-8,o),
(410,53,o),
(410,136,cs),
(410,229,o),
(349,256,o),
(246,280,cs),
(203,290,ls),
(131,307,o),
(101,331,o),
(101,373,cs),
(101,421,o),
(151,458,o),
(219,458,cs),
(269,458,o),
(325,434,o),
(343,387,c),
(394,407,l),
(367,470,o),
(297,506,o),
(221,506,cs),
(119,506,o),
(49,446,o),
(49,370,cs),
(49,290,o),
(103,262,o),
(189,242,cs),
(232,232,ls),
(318,212,o),
(358,189,o),
(358,132,cs),
(358,75,o),
(306,36,o),
(231,36,cs),
(166,36,o),
(107,71,o),
(89,132,c),
(36,112,l),
(63,36,o),
(139,-2,o),
(203,-10,c),
(176,-55,ls),
(167,-69,o),
(170,-83,o),
(185,-83,cs),
(195,-83,o),
(212,-77,o),
(230,-77,cs),
(258,-77,o),
(268,-88,o),
(268,-108,cs),
(268,-122,o),
(257,-145,o),
(218,-145,cs),
(200,-145,o),
(183,-142,o),
(155,-128,c),
(141,-153,l),
(164,-165,o),
(196,-177,o),
(218,-177,cs)
);
}
);
width = 447;
},
{
anchors = (
{
name = top;
pos = (269,496);
}
);
layerId = "5C67A8D6-F0A6-408B-B629-E0E82D5C59F6";
shapes = (
{
closed = 1;
nodes = (
(322,-188,o),
(391,-170,o),
(391,-108,cs),
(391,-59,o),
(338,-46,o),
(301,-46,cs),
(286,-46,o),
(275,-47,o),
(267,-49,c),
(290,-13,l),
(415,-7,o),
(513,49,o),
(513,158,cs),
(513,242,o),
(465,282,o),
(339,304,cs),
(244,321,ls),
(201,328,o),
(189,338,o),
(189,356,cs),
(189,378,o),
(211,395,o),
(265,395,cs),
(314,395,o),
(346,378,o),
(360,343,c),
(498,394,l),
(458,480,o),
(365,511,o),
(267,511,cs),
(135,511,o),
(32,448,o),
(32,347,cs),
(32,268,o),
(97,218,o),
(197,201,cs),
(287,185,ls),
(343,176,o),
(356,162,o),
(356,147,cs),
(356,118,o),
(313,104,o),
(270,104,cs),
(211,104,o),
(163,126,o),
(151,165,c),
(13,114,l),
(46,42,o),
(126,-3,o),
(231,-12,c),
(202,-59,ls),
(192,-75,o),
(203,-96,o),
(227,-90,cs),
(236,-87,o),
(246,-85,o),
(253,-85,cs),
(275,-85,o),
(291,-94,o),
(291,-111,cs),
(291,-131,o),
(270,-136,o),
(248,-136,cs),
(222,-136,o),
(195,-129,o),
(186,-124,c),
(170,-176,l),
(193,-183,o),
(225,-188,o),
(258,-188,cs)
);
}
);
width = 526;
},
{
anchors = (
{
name = top;
pos = (236,496);
}
);
layerId = "78636F1B-F233-4E70-8C3B-7E1F8D8169C5";
shapes = (
{
closed = 1;
nodes = (
(303,-183,o),
(335,-142,o),
(335,-104,cs),
(335,-72,o),
(312,-41,o),
(266,-41,cs),
(257,-41,o),
(247,-43,o),
(236,-45,c),
(257,-11,l),
(361,-5,o),
(441,55,o),
(441,140,cs),
(441,234,o),
(374,266,o),
(271,289,cs),
(213,302,ls),
(156,315,o),
(128,332,o),
(128,368,cs),
(128,410,o),
(173,435,o),
(229,435,cs),
(280,435,o),
(329,414,o),
(347,373,c),
(426,402,l),
(395,473,o),
(318,506,o),
(235,506,cs),
(131,506,o),
(44,452,o),
(44,366,cs),
(44,280,o),
(107,246,o),
(192,227,cs),
(250,214,ls),
(323,198,o),
(357,179,o),
(357,136,cs),
(357,89,o),
(305,59,o),
(240,59,cs),
(185,59,o),
(126,87,o),
(112,142,c),
(31,112,l),
(60,37,o),
(134,-3,o),
(210,-11,c),
(181,-57,ls),
(172,-71,o),
(181,-89,o),
(204,-83,cs),
(216,-80,o),
(228,-79,o),
(237,-79,cs),
(264,-79,o),
(275,-92,o),
(275,-108,cs),
(275,-124,o),
(262,-142,o),
(222,-142,cs),
(206,-142,o),
(187,-138,o),
(164,-128,c),
(150,-163,l),
(184,-177,o),
(213,-183,o),
(238,-183,cs)
);
}
);
width = 471;
},
{
anchors = (
{
name = top;
pos = (264,496);
}
);
layerId = "77C32F3B-CDAD-439A-A41B-3F592148655B";
shapes = (
{
closed = 1;
nodes = (
(323,-187,o),
(386,-165,o),
(386,-107,cs),
(386,-61,o),
(338,-45,o),
(300,-45,cs),
(286,-45,o),
(275,-46,o),
(266,-48,c),
(288,-12,l),
(408,-5,o),
(502,50,o),
(502,155,cs),
(502,242,o),
(448,280,o),
(328,302,cs),
(239,318,ls),
(195,326,o),
(179,337,o),
(179,358,cs),
(179,383,o),
(206,401,o),
(259,401,cs),
(309,401,o),
(343,384,o),
(358,348,c),
(487,395,l),
(448,479,o),
(358,510,o),
(262,510,cs),
(144,510,o),
(34,456,o),
(34,350,cs),
(34,269,o),
(100,222,o),
(196,205,cs),
(281,190,ls),
(338,180,o),
(356,166,o),
(356,145,cs),
(356,113,o),
(312,97,o),
(265,97,cs),
(207,97,o),
(157,120,o),
(145,161,c),
(16,114,l),
(49,40,o),
(129,-5,o),
(232,-12,c),
(203,-59,ls),
(193,-75,o),
(210,-95,o),
(228,-89,cs),
(237,-86,o),
(247,-84,o),
(255,-84,cs),
(277,-84,o),
(292,-94,o),
(292,-110,cs),
(292,-130,o),
(272,-137,o),
(248,-137,cs),
(224,-137,o),
(198,-130,o),
(187,-124,c),
(171,-174,l),
(196,-182,o),
(227,-187,o),
(259,-187,cs)
);
}
);
width = 517;
}
);
metricLeft = s;
metricRight = s;
unicode = 351;
},
{
glyphname = germandbls;
kernLeft = germandbls;
kernRight = germandbls;
lastChange = "2024-11-01 12:02:53 +0000";
layers = (
{
layerId = "883DA8B6-3D8E-4908-9E9E-18B044E47F8D";
shapes = (
{
closed = 1;
nodes = (
(267,-13,o),
(271,-13,o),
(275,-13,cs),
(399,-13,o),
(518,50,o),
(518,205,cs),
(518,319,o),
(439,394,o),
(329,414,c),
(406,440,o),
(434,484,o),
(434,541,cs),
(434,614,o),
(369,680,o),
(269,680,cs),
(136,679,o),
(82,588,o),
(82,478,cs),
(82,0,l),
(136,0,l),
(136,476,ls),
(136,589,o),
(197,631,o),
(267,632,cs),
(333,632,o),
(381,593,o),
(381,539,cs),
(381,487,o),
(332,435,o),
(229,435,c),
(229,387,l),
(241,387,ls),
(365,387,o),
(464,314,o),
(464,205,cs),
(464,87,o),
(386,34,o),
(276,34,cs),
(267,34,o),
(258,34,o),
(249,35,c),
(263,-13,l)
);
}
);
width = 555;
},
{
layerId = "5C67A8D6-F0A6-408B-B629-E0E82D5C59F6";
shapes = (
{
closed = 1;
nodes = (
(329,-11,o),
(351,-13,o),
(373,-13,cs),
(510,-13,o),
(621,49,o),
(621,208,cs),
(621,304,o),
(564,379,o),
(485,401,c),
(501,420,o),
(526,459,o),
(526,508,cs),
(526,623,o),
(431,680,o),
(307,680,cs),
(153,680,o),
(54,628,o),
(54,459,cs),
(54,0,l),
(219,0,l),
(219,452,ls),
(219,522,o),
(235,559,o),
(311,559,cs),
(368,559,o),
(390,535,o),
(390,503,cs),
(390,466,o),
(363,447,o),
(293,450,c),
(293,322,l),
(306,322,ls),
(391,322,o),
(453,290,o),
(453,212,cs),
(453,143,o),
(397,122,o),
(341,122,cs),
(313,122,o),
(285,127,o),
(263,134,c),
(306,-8,l)
);
}
);
width = 640;
},
{
layerId = "78636F1B-F233-4E70-8C3B-7E1F8D8169C5";
shapes = (
{
closed = 1;
nodes = (
(286,-12,o),
(296,-12,o),
(305,-12,cs),
(434,-12,o),
(550,51,o),
(550,206,cs),
(550,314,o),
(478,389,o),
(377,410,c),
(435,432,o),
(466,477,o),
(466,532,cs),
(466,618,o),
(386,680,o),
(281,680,cs),
(141,680,o),
(78,602,o),
(78,474,cs),
(78,0,l),
(162,0,l),
(162,470,ls),
(162,570,o),
(209,611,o),
(281,611,cs),
(345,611,o),
(381,576,o),
(381,530,cs),
(381,481,o),
(342,439,o),
(249,440,c),
(249,367,l),
(261,367,ls),
(373,367,o),
(460,306,o),
(460,207,cs),
(460,103,o),
(383,63,o),
(294,63,cs),
(280,63,o),
(267,64,o),
(253,66,c),
(276,-11,l)
);
}
);
width = 582;
},
{
layerId = "77C32F3B-CDAD-439A-A41B-3F592148655B";
shapes = (
{
closed = 1;
nodes = (
(321,-11,o),
(343,-12,o),
(363,-12,cs),
(498,-12,o),
(609,50,o),
(609,204,cs),
(609,307,o),
(549,381,o),
(467,402,c),
(490,422,o),
(516,462,o),
(516,514,cs),
(516,624,o),
(423,680,o),
(302,680,cs),
(150,680,o),
(56,626,o),
(56,461,cs),
(56,0,l),
(209,0,l),
(209,454,ls),
(209,531,o),
(230,569,o),
(305,569,cs),
(363,569,o),
(388,543,o),
(388,509,cs),
(388,468,o),
(359,446,o),
(285,448,c),
(285,329,l),
(298,329,ls),
(387,329,o),
(453,293,o),
(453,212,cs),
(453,137,o),
(392,114,o),
(331,114,cs),
(306,114,o),
(281,118,o),
(260,123,c),
(300,-8,l)
);
}
);
width = 630;
}
);
metricLeft = B;
metricRight = B;
unicode = 223;
},
{
glyphname = t;
kernLeft = t;
kernRight = t;
lastChange = "2024-11-01 12:02:53 +0000";
layers = (
{
anchors = (
{
name = bottom;
pos = (179,0);
},
{
name = center;
pos = (149,248);
},
{
name = top;
pos = (149,496);
},
{
name = topright;
pos = (188,542);
}
);
layerId = "883DA8B6-3D8E-4908-9E9E-18B044E47F8D";
shapes = (
{
closed = 1;
nodes = (
(258,0,l),
(258,48,l),
(213,48,ls),
(167,48,o),
(158,59,o),
(158,117,cs),
(158,452,l),
(259,452,l),
(259,496,l),
(158,496,l),
(158,620,l),
(104,620,l),
(104,496,l),
(19,496,l),
(19,452,l),
(104,452,l),
(104,116,ls),
(104,20,o),
(129,0,o),
(209,0,cs)
);
}
);
width = 294;
},
{
anchors = (
{
name = bottom;
pos = (222,0);
},
{
name = center;
pos = (192,248);
},
{
name = top;
pos = (192,496);
},
{
name = topright;
pos = (270,554);
}
);
layerId = "5C67A8D6-F0A6-408B-B629-E0E82D5C59F6";
shapes = (
{
closed = 1;
nodes = (
(363,0,l),
(363,133,l),
(321,133,ls),
(272,133,o),
(255,142,o),
(255,188,cs),
(255,371,l),
(363,371,l),
(363,496,l),
(255,496,l),
(255,620,l),
(90,620,l),
(90,496,l),
(8,496,l),
(8,371,l),
(90,371,l),
(90,143,ls),
(90,23,o),
(135,0,o),
(263,0,cs)
);
}
);
width = 398;
},
{
anchors = (
{
name = bottom;
pos = (192,0);
},
{
name = center;
pos = (162,248);
},
{
name = top;
pos = (162,496);
},
{
name = topright;
pos = (208,546);
}
);
layerId = "78636F1B-F233-4E70-8C3B-7E1F8D8169C5";
shapes = (
{
closed = 1;
nodes = (
(291,0,l),
(291,74,l),
(239,74,ls),
(196,74,o),
(188,82,o),
(188,138,cs),
(188,429,l),
(291,429,l),
(291,496,l),
(188,496,l),
(188,620,l),
(104,620,l),
(104,496,l),
(20,496,l),
(20,429,l),
(104,429,l),
(104,124,ls),
(104,21,o),
(126,0,o),
(221,0,cs)
);
}
);
width = 326;
},
{
anchors = (
{
name = bottom;
pos = (217,0);
},
{
name = center;
pos = (187,248);
},
{
name = top;
pos = (187,496);
},
{
name = topright;
pos = (264,553);
}
);
layerId = "77C32F3B-CDAD-439A-A41B-3F592148655B";
shapes = (
{
closed = 1;
nodes = (
(352,0,l),
(352,124,l),
(308,124,ls),
(259,124,o),
(244,133,o),
(244,180,cs),
(244,380,l),
(352,380,l),
(352,496,l),
(244,496,l),
(244,620,l),
(92,620,l),
(92,496,l),
(10,496,l),
(10,380,l),
(92,380,l),
(92,140,ls),
(92,23,o),
(134,0,o),
(256,0,cs)
);
}
);
width = 387;
}
);
unicode = 116;
},
{
glyphname = tcedilla;
kernLeft = t;
kernRight = t;
lastChange = "2024-11-01 12:02:53 +0000";
layers = (
{
anchors = (
{
name = center;
pos = (149,248);
},
{
name = top;
pos = (149,496);
},
{
name = topright;
pos = (188,542);
}
);
layerId = "883DA8B6-3D8E-4908-9E9E-18B044E47F8D";
shapes = (
{
closed = 1;
nodes = (
(234,-177,o),
(258,-127,o),
(258,-99,cs),
(258,-71,o),
(237,-44,o),
(196,-44,cs),
(190,-44,o),
(178,-45,o),
(165,-48,c),
(196,0,l),
(200,0,o),
(205,0,o),
(209,0,c),
(258,0,l),
(258,48,l),
(213,48,ls),
(167,48,o),
(158,59,o),
(158,117,cs),
(158,452,l),
(259,452,l),
(259,496,l),
(158,496,l),
(158,620,l),
(104,620,l),
(104,496,l),
(19,496,l),
(19,452,l),
(104,452,l),
(104,116,ls),
(104,43,o),
(118,14,o),
(160,4,c),
(124,-55,ls),
(115,-69,o),
(118,-83,o),
(133,-83,cs),
(143,-83,o),
(160,-77,o),
(175,-77,cs),
(206,-77,o),
(216,-88,o),
(216,-108,cs),
(216,-122,o),
(205,-145,o),
(166,-145,cs),
(148,-145,o),
(131,-142,o),
(103,-128,c),
(89,-153,l),
(112,-165,o),
(145,-177,o),
(166,-177,cs)
);
}
);
width = 294;
},
{
anchors = (
{
name = center;
pos = (192,248);
},
{
name = top;
pos = (192,496);
},
{
name = topright;
pos = (270,554);
}
);
layerId = "5C67A8D6-F0A6-408B-B629-E0E82D5C59F6";
shapes = (
{
closed = 1;
nodes = (
(275,-188,o),
(344,-170,o),
(344,-108,cs),
(344,-59,o),
(291,-46,o),
(254,-46,cs),
(239,-46,o),
(228,-47,o),
(220,-49,c),
(250,0,l),
(254,0,o),
(259,0,o),
(263,0,cs),
(363,0,l),
(363,133,l),
(321,133,ls),
(272,133,o),
(255,142,o),
(255,188,cs),
(255,371,l),
(363,371,l),
(363,496,l),
(255,496,l),
(255,620,l),
(90,620,l),
(90,496,l),
(8,496,l),
(8,371,l),
(90,371,l),
(90,143,ls),
(90,48,o),
(118,14,o),
(194,4,c),
(155,-59,ls),
(145,-75,o),
(156,-96,o),
(180,-90,cs),
(189,-87,o),
(199,-85,o),
(206,-85,cs),
(228,-85,o),
(244,-94,o),
(244,-111,cs),
(244,-131,o),
(223,-136,o),
(201,-136,cs),
(175,-136,o),
(148,-129,o),
(139,-124,c),
(123,-176,l),
(146,-183,o),
(178,-188,o),
(211,-188,cs)
);
}
);
width = 398;
},
{
anchors = (
{
name = center;
pos = (162,248);
},
{
name = top;
pos = (162,496);
},
{
name = topright;
pos = (208,546);
}
);
layerId = "78636F1B-F233-4E70-8C3B-7E1F8D8169C5";
shapes = (
{
closed = 1;
nodes = (
(252,-183,o),
(284,-142,o),
(284,-104,cs),
(284,-72,o),
(261,-41,o),
(215,-41,cs),
(206,-41,o),
(196,-43,o),
(185,-45,c),
(213,0,l),
(216,0,o),
(218,0,o),
(221,0,c),
(291,0,l),
(291,74,l),
(239,74,ls),
(196,74,o),
(188,82,o),
(188,138,cs),
(188,429,l),
(291,429,l),
(291,496,l),
(188,496,l),
(188,620,l),
(104,620,l),
(104,496,l),
(20,496,l),
(20,429,l),
(104,429,l),
(104,124,ls),
(104,44,o),
(117,13,o),
(168,4,c),
(130,-57,ls),
(121,-71,o),
(130,-89,o),
(153,-83,cs),
(165,-80,o),
(177,-79,o),
(186,-79,cs),
(213,-79,o),
(224,-92,o),
(224,-108,cs),
(224,-124,o),
(211,-142,o),
(171,-142,cs),
(155,-142,o),
(136,-138,o),
(113,-128,c),
(99,-163,l),
(133,-177,o),
(162,-183,o),
(187,-183,cs)
);
}
);
width = 326;
},
{
anchors = (
{
name = center;
pos = (187,248);
},
{
name = top;
pos = (187,496);
},
{
name = topright;
pos = (264,553);
}
);
layerId = "77C32F3B-CDAD-439A-A41B-3F592148655B";
shapes = (
{
closed = 1;
nodes = (
(271,-187,o),
(334,-165,o),
(334,-107,cs),
(334,-61,o),
(286,-45,o),
(248,-45,cs),
(234,-45,o),
(223,-46,o),
(214,-48,c),
(244,0,l),
(248,0,o),
(252,0,o),
(256,0,cs),
(352,0,l),
(352,124,l),
(308,124,ls),
(259,124,o),
(244,133,o),
(244,180,cs),
(244,380,l),
(352,380,l),
(352,496,l),
(244,496,l),
(244,620,l),
(92,620,l),
(92,496,l),
(10,496,l),
(10,380,l),
(92,380,l),
(92,140,ls),
(92,47,o),
(118,14,o),
(190,4,c),
(151,-59,ls),
(141,-75,o),
(158,-95,o),
(176,-89,cs),
(185,-86,o),
(195,-84,o),
(203,-84,cs),
(225,-84,o),
(240,-94,o),
(240,-110,cs),
(240,-130,o),
(220,-137,o),
(196,-137,cs),
(172,-137,o),
(146,-130,o),
(135,-124,c),
(119,-174,l),
(144,-182,o),
(175,-187,o),
(207,-187,cs)
);
}
);
width = 387;
}
);
unicode = 355;
},
{
glyphname = u;
kernLeft = u;
kernRight = u;
lastChange = "2024-11-01 12:02:53 +0000";
layers = (
{
anchors = (
{
name = bottom;
pos = (251,0);
},
{
name = ogonek;
pos = (449,10);
},
{
name = top;
pos = (251,496);
},
{
name = topright;
pos = (489,496);
}
);
layerId = "883DA8B6-3D8E-4908-9E9E-18B044E47F8D";
shapes = (
{
closed = 1;
nodes = (
(326,-12,o),
(374,36,o),
(397,80,c),
(409,0,l),
(449,0,l),
(449,496,l),
(395,496,l),
(395,220,ls),
(395,102,o),
(333,36,o),
(246,36,cs),
(155,36,o),
(128,94,o),
(128,183,cs),
(128,496,l),
(74,496,l),
(74,166,ls),
(74,61,o),
(120,-12,o),
(240,-12,cs)
);
}
);
width = 525;
},
{
anchors = (
{
name = bottom;
pos = (289,0);
},
{
name = ogonek;
pos = (529,10);
},
{
name = top;
pos = (289,496);
},
{
name = topright;
pos = (556,496);
}
);
layerId = "5C67A8D6-F0A6-408B-B629-E0E82D5C59F6";
shapes = (
{
closed = 1;
nodes = (
(297,-12,o),
(335,20,o),
(364,70,c),
(385,0,l),
(529,0,l),
(529,496,l),
(364,496,l),
(364,237,ls),
(364,148,o),
(344,114,o),
(283,114,cs),
(212,114,o),
(212,172,o),
(212,242,cs),
(212,496,l),
(47,496,l),
(47,201,ls),
(47,62,o),
(87,-12,o),
(222,-12,cs)
);
}
);
width = 580;
},
{
anchors = (
{
name = bottom;
pos = (270,0);
},
{
name = ogonek;
pos = (468,10);
},
{
name = top;
pos = (270,496);
},
{
name = topright;
pos = (518,496);
}
);
layerId = "78636F1B-F233-4E70-8C3B-7E1F8D8169C5";
shapes = (
{
closed = 1;
nodes = (
(311,-12,o),
(356,24,o),
(384,72,c),
(405,0,l),
(468,0,l),
(468,496,l),
(384,496,l),
(384,224,ls),
(384,118,o),
(337,62,o),
(258,62,cs),
(167,62,o),
(154,128,o),
(154,205,cs),
(154,496,l),
(70,496,l),
(70,180,ls),
(70,67,o),
(113,-12,o),
(229,-12,cs)
);
}
);
width = 540;
},
{
anchors = (
{
name = bottom;
pos = (286,0);
},
{
name = ogonek;
pos = (520,10);
},
{
name = top;
pos = (286,496);
},
{
name = topright;
pos = (551,496);
}
);
layerId = "77C32F3B-CDAD-439A-A41B-3F592148655B";
shapes = (
{
closed = 1;
nodes = (
(299,-12,o),
(338,21,o),
(367,70,c),
(388,0,l),
(520,0,l),
(520,496,l),
(367,496,l),
(367,235,ls),
(367,143,o),
(343,106,o),
(279,106,cs),
(205,106,o),
(203,165,o),
(203,236,cs),
(203,496,l),
(51,496,l),
(51,198,ls),
(51,63,o),
(91,-12,o),
(223,-12,cs)
);
}
);
width = 573;
}
);
metricLeft = "=|n";
metricRight = "=|n";
unicode = 117;
},
